<svg xmlns="http://www.w3.org/2000/svg" xmlns:xlink="http://www.w3.org/1999/xlink" preserveAspectRatio="xMidYMid" width="500" height="500" viewBox="0 0 500 500">
  <defs>
    <style>
      .cls-1 {
        stroke: "current";
        fill: "current";
        fill-rule: evenodd;
      }
    </style>
  </defs>
  <path d="M443.254,443.470 L401.968,443.470 L401.968,484.346 C401.968,489.677 397.593,494.015 392.208,494.015 L377.632,494.015 C372.247,494.015 367.872,489.677 367.872,484.346 L367.872,443.470 L326.578,443.470 C321.201,443.470 316.826,439.118 316.826,433.766 L316.826,419.332 C316.826,413.993 321.201,409.648 326.578,409.648 L367.872,409.648 L367.872,368.761 C367.872,363.418 372.247,359.072 377.632,359.072 L392.208,359.072 C397.593,359.072 401.968,363.418 401.968,368.761 L401.968,409.648 L443.254,409.648 C448.640,409.648 453.014,413.993 453.014,419.332 L453.014,433.766 C453.014,439.118 448.640,443.470 443.254,443.470 ZM448.086,419.332 C448.086,416.707 445.919,414.570 443.254,414.570 L399.504,414.570 C398.140,414.570 397.040,413.469 397.040,412.109 L397.040,368.761 C397.040,366.135 394.873,363.995 392.208,363.995 L377.632,363.995 C374.968,363.995 372.800,366.135 372.800,368.761 L372.800,412.109 C372.800,413.469 371.702,414.570 370.337,414.570 L326.578,414.570 C323.922,414.570 321.754,416.707 321.754,419.332 L321.754,433.766 C321.754,436.404 323.922,438.548 326.578,438.548 L370.337,438.548 C371.702,438.548 372.800,439.650 372.800,441.009 L372.800,484.346 C372.800,486.964 374.968,489.092 377.632,489.092 L392.208,489.092 C394.873,489.092 397.040,486.964 397.040,484.346 L397.040,441.009 C397.040,439.650 398.140,438.548 399.504,438.548 L443.254,438.548 C445.919,438.548 448.086,436.404 448.086,433.766 L448.086,419.332 ZM404.818,352.146 C404.015,352.752 402.938,352.812 402.072,352.311 C398.966,350.487 395.651,349.561 392.208,349.561 L377.632,349.561 C366.925,349.561 358.217,358.175 358.217,368.761 L358.217,397.664 C358.217,399.023 357.117,400.125 355.753,400.125 L326.578,400.125 C315.872,400.125 307.163,408.743 307.163,419.332 L307.163,433.766 C307.163,436.965 308.022,440.099 309.716,443.086 C310.125,443.807 310.149,444.685 309.764,445.422 C309.386,446.164 308.664,446.661 307.837,446.749 C283.510,449.362 256.695,450.684 228.138,450.684 C124.360,450.684 73.883,433.357 57.004,425.906 C51.402,423.437 47.012,416.671 47.012,410.502 L47.012,375.975 C47.012,323.327 86.861,279.108 139.706,273.124 C141.817,272.867 144.722,273.673 146.504,274.944 C170.518,292.167 198.746,301.270 228.138,301.270 C257.530,301.270 285.749,292.167 309.764,274.947 C311.553,273.669 314.499,272.919 316.554,273.120 C358.899,277.921 394.720,308.636 405.709,349.549 C405.965,350.515 405.612,351.541 404.818,352.146 ZM316.008,278.014 C315.109,277.910 313.431,278.383 312.629,278.955 C287.788,296.772 258.565,306.192 228.138,306.192 C197.703,306.192 168.479,296.772 143.631,278.947 C142.909,278.431 141.463,278.001 140.524,278.001 C140.428,278.001 140.340,278.006 140.251,278.018 C89.911,283.717 51.940,325.832 51.940,375.975 L51.940,410.502 C51.940,414.723 55.175,419.713 58.995,421.401 C75.593,428.724 125.299,445.762 228.138,445.762 C255.169,445.762 280.620,444.568 303.848,442.211 C302.772,439.478 302.235,436.648 302.235,433.766 L302.235,419.332 C302.235,406.025 313.150,395.203 326.578,395.203 L353.289,395.203 L353.289,368.761 C353.289,355.457 364.204,344.639 377.632,344.639 L392.208,344.639 C394.640,344.639 397.079,345.024 399.440,345.769 C387.481,309.338 354.581,282.391 316.008,278.014 ZM198.152,105.402 C210.882,112.308 225.376,116.129 241.236,116.754 L288.694,116.754 C295.710,116.754 301.416,122.690 301.416,129.993 L301.416,230.828 C301.416,230.917 301.416,231.009 301.400,231.097 L301.175,233.149 C301.127,233.642 300.927,234.107 300.598,234.480 C281.704,256.538 254.688,269.184 226.468,269.184 C198.730,269.184 172.011,256.883 153.165,235.434 C152.773,234.985 152.555,234.408 152.555,233.811 C152.571,113.819 153.559,112.846 154.514,111.904 C166.553,100.103 183.681,97.566 198.152,105.402 ZM226.468,264.261 C252.994,264.261 278.429,252.457 296.360,231.850 L296.488,230.692 L296.488,129.993 C296.488,125.407 292.989,121.676 288.694,121.676 L241.140,121.676 C224.421,121.019 209.196,117.002 195.792,109.731 C183.320,102.966 169.097,104.937 158.527,114.886 C157.780,122.522 157.492,188.477 157.483,232.877 C175.358,252.834 200.447,264.261 226.468,264.261 ZM345.648,137.396 C344.893,142.831 343.457,148.194 341.395,153.333 C339.034,159.177 336.242,166.909 335.551,174.918 C333.987,192.962 326.900,207.532 319.772,220.912 L311.995,233.334 C311.537,234.068 310.743,234.488 309.908,234.488 C309.683,234.488 309.458,234.460 309.234,234.396 C308.182,234.095 307.452,233.138 307.444,232.039 L307.395,223.173 L307.395,118.674 C307.395,113.924 303.527,110.060 298.768,110.060 L241.566,110.060 C223.402,109.383 206.844,105.230 192.268,97.719 C178.288,90.523 162.356,92.784 150.677,103.639 C150.156,104.131 149.537,105.322 149.184,106.172 L146.713,227.077 C146.688,228.139 145.990,229.069 144.971,229.382 C143.943,229.694 142.844,229.314 142.234,228.440 L137.651,221.927 L131.953,212.475 C131.286,211.004 130.644,209.821 130.042,208.715 C129.385,207.496 128.773,206.354 128.373,205.380 L126.190,200.081 C122.401,190.963 119.455,183.784 118.910,181.270 L111.486,147.405 C110.611,143.397 110.130,139.304 110.065,135.236 C109.880,123.861 109.487,99.831 109.456,98.255 C107.778,78.287 130.965,61.616 135.637,58.474 C136.447,57.937 137.258,57.696 138.277,57.769 C143.253,58.085 149.827,58.129 152.692,57.291 C154.594,50.377 164.820,39.058 174.603,28.857 C186.313,16.664 201.370,9.341 216.989,8.230 C240.867,6.523 262.667,15.217 268.774,17.922 C268.918,17.982 269.079,18.027 269.392,18.035 C300.621,18.684 325.510,53.920 337.565,74.868 C342.871,84.075 345.720,94.440 345.801,104.841 C345.985,126.963 346.050,134.546 345.536,137.380 L345.648,137.396 ZM340.873,104.882 C340.792,95.326 338.177,85.798 333.296,77.320 C321.754,57.275 298.093,23.558 269.287,22.957 C268.373,22.936 267.586,22.772 266.808,22.440 C260.932,19.842 240.121,11.545 217.343,13.145 C202.944,14.167 189.027,20.956 178.167,32.264 C172.926,37.727 158.992,52.245 157.427,58.699 C156.930,60.691 155.646,61.452 154.932,61.728 C150.886,63.316 141.720,62.931 137.956,62.682 C135.773,64.322 112.843,80.287 114.375,97.903 L113.830,97.947 C114.448,101.591 114.599,110.982 114.993,135.155 C115.058,138.899 115.499,142.667 116.302,146.355 L123.726,180.220 C124.223,182.505 128.148,191.944 130.741,198.193 L132.948,203.528 C133.285,204.362 133.814,205.328 134.376,206.370 C135.050,207.600 135.757,208.915 136.327,210.227 L141.937,219.465 L144.265,105.635 C144.273,105.366 144.321,105.102 144.409,104.849 C144.602,104.320 145.645,101.599 147.315,100.039 C160.557,87.718 178.632,85.157 194.532,93.342 C208.458,100.516 224.317,104.488 241.662,105.138 L298.768,105.138 C306.240,105.138 312.323,111.211 312.323,118.674 L312.323,223.522 L315.510,218.447 C322.597,205.132 329.155,191.628 330.640,174.492 C331.386,165.834 334.331,157.654 336.819,151.493 C338.738,146.727 340.062,141.757 340.768,136.715 C340.784,136.594 340.809,136.474 340.849,136.358 C340.937,135.195 341.074,129.692 340.873,104.882 Z" class="cls-1"/>
</svg>
