<svg xmlns="http://www.w3.org/2000/svg" xmlns:xlink="http://www.w3.org/1999/xlink" preserveAspectRatio="xMidYMid" width="500" height="500" viewBox="0 0 500 500">
  <defs>
    <style>
      .cls-1 {
        stroke: "current";
        fill: "current";
        fill-rule: evenodd;
      }
    </style>
  </defs>
  <path d="M475.002,225.160 C474.983,226.621 473.793,227.797 472.332,227.797 L280.533,227.797 C279.059,227.797 277.864,226.604 277.864,225.125 L277.864,29.690 C277.864,28.924 278.186,28.202 278.755,27.697 C279.320,27.183 280.073,26.905 280.833,27.036 C475.110,49.149 475.028,223.401 475.002,225.160 ZM283.203,32.701 L283.203,222.453 L469.602,222.453 C468.780,200.853 456.714,54.083 283.203,32.701 ZM442.449,277.698 C447.115,362.896 379.500,425.772 378.813,426.399 C335.365,464.020 290.224,474.994 252.364,474.994 C199.841,474.994 161.315,453.882 160.657,453.516 C159.431,452.828 158.949,451.305 159.553,450.034 L242.085,276.697 C242.529,275.765 243.467,275.174 244.498,275.174 L439.784,275.174 C441.201,275.174 442.375,276.279 442.449,277.698 ZM437.231,280.517 L246.185,280.517 L165.488,450.000 C181.593,458.007 282.403,502.825 375.265,422.404 C375.870,421.848 440.305,361.869 437.231,280.517 ZM227.558,262.546 L45.060,325.370 C44.773,325.474 44.478,325.518 44.191,325.518 C43.148,325.518 42.160,324.900 41.735,323.891 L40.760,321.602 C15.890,262.780 22.743,195.884 59.091,142.659 C95.975,88.650 156.554,57.469 221.794,59.383 C225.071,59.479 226.858,59.593 226.858,59.593 C228.268,59.688 229.359,60.854 229.359,62.264 L229.359,260.022 C229.359,261.162 228.637,262.181 227.558,262.546 ZM224.020,64.814 C223.350,64.779 222.554,64.753 221.637,64.726 C219.850,64.675 218.067,64.648 216.289,64.648 C155.144,64.648 98.340,94.664 63.504,145.678 C28.191,197.381 21.529,262.363 45.674,319.505 L224.020,258.116 L224.020,64.814 ZM43.321,338.146 L225.820,275.322 C226.837,274.930 227.963,275.260 228.680,276.061 C229.398,276.870 229.563,278.019 229.103,278.994 L146.571,452.333 C146.253,452.994 145.684,453.499 144.993,453.725 C144.718,453.812 144.441,453.855 144.157,453.855 C143.723,453.855 143.288,453.751 142.897,453.542 L134.832,449.225 C91.379,425.972 58.330,387.837 41.774,341.835 C41.530,341.165 41.521,340.286 41.830,339.642 C42.139,338.999 42.647,338.372 43.321,338.146 ZM137.354,444.509 L142.949,447.503 L221.541,282.449 L47.639,342.306 C64.117,386.166 95.861,422.308 137.354,444.509 Z" class="cls-1"/>
</svg>
