<svg xmlns="http://www.w3.org/2000/svg" xmlns:xlink="http://www.w3.org/1999/xlink" preserveAspectRatio="xMidYMid" width="500" height="500" viewBox="0 0 500 500">
  <defs>
    <style>
      .cls-1 {
        fill: #335c67;
        fill-rule: evenodd;
      }
    </style>
  </defs>
  <path d="M485.442,296.198 C484.910,296.896 484.086,297.299 483.205,297.299 L234.752,297.299 C233.881,297.299 233.056,296.896 232.515,296.198 C231.984,295.505 231.810,294.601 232.030,293.758 C232.287,292.790 232.579,288.610 232.891,284.187 C235.283,250.263 239.517,218.067 254.188,212.273 L312.350,189.331 L325.729,178.179 C330.474,174.216 337.402,174.495 341.829,178.831 L358.983,195.676 L376.092,178.835 C380.518,174.486 387.445,174.211 392.202,178.179 L405.580,189.331 L463.742,212.260 C478.404,218.045 482.655,250.231 485.056,284.151 C485.368,288.592 485.661,292.785 485.927,293.753 C486.147,294.596 485.973,295.500 485.442,296.198 ZM479.439,284.550 C478.239,267.659 475.068,222.784 461.671,217.508 L403.087,194.410 C402.813,194.300 402.556,194.144 402.318,193.951 L388.591,182.510 C386.125,180.437 382.359,180.583 380.032,182.859 L360.954,201.635 C359.873,202.718 358.113,202.714 357.013,201.640 L337.889,182.859 C335.533,180.546 331.868,180.405 329.330,182.515 L315.612,193.951 C315.374,194.144 315.117,194.300 314.842,194.410 L256.259,217.521 C242.861,222.806 239.700,267.691 238.509,284.582 C238.298,287.661 238.133,289.959 237.967,291.665 L479.980,291.665 C479.824,289.949 479.659,287.642 479.439,284.550 ZM359.542,178.693 C359.184,178.693 358.956,178.688 358.882,178.683 C344.303,178.931 331.153,173.968 320.918,163.981 C305.944,149.374 297.853,125.120 297.522,93.837 C297.330,74.991 302.361,60.247 312.469,50.017 C322.997,39.369 338.649,33.970 358.992,33.970 C399.193,33.970 420.443,54.660 420.443,93.805 C420.443,124.835 412.692,148.026 397.407,162.733 C381.654,177.876 363.308,178.693 359.542,178.693 ZM358.992,39.603 C340.207,39.603 325.902,44.443 316.474,53.985 C307.456,63.105 302.975,76.492 303.149,93.777 C303.469,123.528 310.965,146.406 324.839,159.944 C333.765,168.646 344.936,173.055 358.048,173.055 C358.350,173.055 358.654,173.055 358.946,173.050 C359.322,173.018 378.089,173.555 393.585,158.591 C407.669,144.979 414.817,123.183 414.817,93.805 C414.817,57.839 396.032,39.603 358.992,39.603 ZM273.698,138.809 C272.048,140.061 270.004,140.658 267.952,140.465 L226.422,137.405 C223.388,137.139 220.740,135.327 219.467,132.676 C218.193,130.083 218.394,126.969 219.989,124.519 C206.619,123.917 193.066,127.937 182.290,136.080 C167.756,147.071 159.601,163.751 159.922,181.835 C159.976,184.450 158.739,186.987 156.622,188.616 C155.340,189.588 153.809,190.171 152.187,190.308 L135.995,191.575 C135.765,191.593 135.537,191.602 135.308,191.602 C133.273,191.602 131.267,190.845 129.727,189.474 C128.004,187.942 126.987,185.758 126.932,183.478 C126.062,154.902 139.266,127.445 162.249,110.045 C184.856,92.956 213.263,87.465 240.461,94.832 L243.612,90.263 C245.299,87.800 248.093,86.428 251.191,86.630 C254.170,86.850 256.836,88.663 258.138,91.355 L276.208,128.519 C277.519,131.198 277.280,134.396 275.585,136.864 C275.017,137.657 274.394,138.300 273.698,138.809 ZM271.150,130.992 L253.070,93.814 C252.639,92.920 251.759,92.328 250.760,92.254 C249.808,92.181 248.799,92.668 248.258,93.457 L243.951,99.691 C243.246,100.696 242.019,101.122 240.836,100.797 C232.827,98.438 224.690,97.278 216.626,97.278 C198.455,97.278 180.677,103.177 165.639,114.541 C144.114,130.841 131.742,156.554 132.558,183.322 C132.577,184.051 132.916,184.767 133.465,185.253 L133.465,185.258 C134.042,185.771 134.904,186.033 135.537,185.955 L151.728,184.689 C152.269,184.643 152.783,184.450 153.204,184.129 C153.901,183.602 154.313,182.780 154.295,181.945 C153.938,162.026 162.909,143.672 178.899,131.584 C192.095,121.605 209.011,117.174 225.386,119.367 C226.357,119.500 227.192,120.123 227.585,121.018 C227.980,121.913 227.888,122.945 227.330,123.753 L224.745,127.528 C224.195,128.336 224.113,129.358 224.534,130.212 C224.956,131.102 225.854,131.694 226.880,131.785 L268.427,134.845 C269.050,134.915 269.766,134.717 270.334,134.290 C270.581,134.111 270.783,133.891 270.975,133.629 C271.488,132.873 271.571,131.850 271.150,130.992 ZM203.485,264.521 C203.485,295.546 195.733,318.737 180.448,333.439 C164.696,348.597 146.341,349.408 142.584,349.408 C142.226,349.408 141.997,349.404 141.924,349.400 C127.088,349.762 114.213,344.698 103.968,334.711 C88.995,320.109 80.894,295.845 80.555,264.553 C80.362,245.712 85.393,230.973 95.501,220.742 C106.030,210.090 121.690,204.690 142.033,204.690 C182.235,204.690 203.485,225.380 203.485,264.521 ZM99.505,224.706 C90.488,233.826 86.007,247.212 86.182,264.493 C86.501,294.253 94.016,317.136 107.899,330.674 C117.017,339.569 128.756,344.124 141.988,343.766 C142.345,343.725 161.112,344.275 176.627,329.297 C190.711,315.691 197.859,293.895 197.859,264.521 C197.859,228.559 179.073,210.324 142.033,210.324 C123.249,210.324 108.935,215.164 99.505,224.706 ZM108.779,348.904 C113.535,344.932 120.481,345.234 124.870,349.569 L142.024,366.392 L159.133,349.578 C163.532,345.234 170.460,344.932 175.243,348.904 L188.622,360.048 L246.784,382.994 C261.454,388.770 265.707,420.974 268.098,454.917 C268.419,459.335 268.712,463.511 268.969,464.478 C269.189,465.322 269.014,466.226 268.483,466.919 C267.942,467.616 267.118,468.019 266.247,468.019 L17.784,468.019 C16.913,468.019 16.080,467.616 15.548,466.919 C15.017,466.226 14.842,465.322 15.063,464.473 C15.328,463.501 15.621,459.308 15.933,454.867 C18.324,420.952 22.567,388.770 37.238,382.994 L95.390,360.048 L108.779,348.904 ZM21.551,455.261 C21.330,458.363 21.165,460.670 21.010,462.386 L263.030,462.386 C262.866,460.679 262.701,458.386 262.490,455.312 C261.289,438.412 258.119,393.509 244.722,388.242 L244.712,388.242 L186.129,365.126 C185.854,365.016 185.598,364.860 185.369,364.667 L171.642,353.235 C169.094,351.116 165.419,351.285 163.083,353.597 L143.995,372.351 C142.895,373.425 141.155,373.425 140.055,372.351 L120.930,353.592 C118.630,351.313 114.846,351.152 112.381,353.235 L98.644,364.667 C98.415,364.860 98.158,365.016 97.883,365.126 L39.301,388.242 C25.903,393.514 22.741,438.375 21.551,455.261 ZM267.283,369.622 C268.931,367.241 271.901,365.819 274.824,366.011 L316.436,369.107 C319.433,369.346 322.090,371.144 323.383,373.810 C324.646,376.411 324.454,379.517 322.879,381.967 C336.285,382.682 349.810,378.558 360.578,370.424 C375.112,359.423 383.257,342.743 382.937,324.659 C382.882,322.049 384.110,319.507 386.226,317.870 C387.564,316.878 389.085,316.310 390.671,316.181 L406.863,314.929 C409.227,314.787 411.427,315.502 413.123,317.021 C414.845,318.535 415.862,320.714 415.935,322.999 C416.797,351.597 403.591,379.058 380.600,396.458 C358.012,413.529 329.623,419.029 302.398,411.666 L299.245,416.245 C297.697,418.493 295.030,419.868 292.309,419.868 C292.088,419.868 291.878,419.860 291.657,419.841 C288.716,419.663 286.041,417.855 284.721,415.134 L266.650,377.994 C265.339,375.296 265.587,372.090 267.283,369.622 ZM271.708,375.530 L289.788,412.675 C290.219,413.570 291.090,414.162 292.061,414.222 C292.959,414.268 294.068,413.832 294.609,413.043 L298.906,406.808 C299.603,405.804 300.885,405.372 302.012,405.702 C328.128,413.364 355.519,408.354 377.209,391.963 C398.744,375.664 411.115,349.946 410.309,323.173 C410.290,322.448 409.951,321.727 409.402,321.246 C409.392,321.242 409.383,321.232 409.383,321.232 C408.825,320.727 408.008,320.494 407.321,320.549 L391.120,321.802 C390.598,321.842 390.057,322.044 389.617,322.370 C388.958,322.879 388.545,323.710 388.563,324.549 C388.921,344.468 379.959,362.823 363.968,374.921 C350.764,384.889 333.810,389.321 317.472,387.118 C316.501,386.985 315.666,386.361 315.272,385.467 C314.878,384.572 314.970,383.536 315.530,382.728 L318.114,378.966 C318.654,378.168 318.737,377.131 318.324,376.278 C317.893,375.401 317.014,374.809 316.006,374.732 L274.430,371.636 C274.375,371.631 274.329,371.631 274.275,371.631 C273.377,371.631 272.413,372.104 271.919,372.828 C271.360,373.631 271.287,374.645 271.708,375.530 Z" class="cls-1"/>
</svg>
