<?xml version="1.0" encoding="UTF-8"?><svg id="a" xmlns="http://www.w3.org/2000/svg" viewBox="0 0 54 54"><path d="M27,0C12.09,0,0,12.09,0,27c0,1.66,.15,3.28,.45,4.86H.45c.06,.39,.13,.76,.23,1.13H.68c1.19,5.3,3.95,10,7.75,13.59,.27,.27,.54,.52,.82,.75,2.02,1.78,4.31,3.25,6.8,4.35,.24,.12,.49,.22,.75,.32,3.14,1.29,6.59,2,10.2,2s7.06-.71,10.2-2c.26-.1,.51-.2,.75-.32,2.49-1.1,4.78-2.57,6.8-4.35,.28-.23,.55-.48,.82-.75,3.8-3.59,6.56-8.29,7.75-13.58h0c.1-.38,.17-.75,.23-1.13h0c.3-1.59,.45-3.21,.45-4.87C54,12.09,41.91,0,27,0ZM11.63,47.33c-.32-.24-.63-.49-.94-.75-4.6-3.83-7.82-9.24-8.84-15.39,1.59-1.91,3.98-3.12,6.66-3.12h3.03c4.79,0,8.68,3.89,8.68,8.68v.72c-2.52,1.7-4.17,4.57-4.17,7.83v4.72c-1.57-.75-3.05-1.65-4.42-2.69Zm15.37,5.17c-3.63,0-7.08-.76-10.2-2.14v-5.06c0-2.81,1.34-5.31,3.42-6.89,.24-.19,.49-.36,.75-.52,1.31-.8,2.86-1.27,4.51-1.27h3.04c1.65,0,3.2,.47,4.51,1.27,.26,.16,.51,.33,.75,.52,2.08,1.58,3.42,4.08,3.42,6.89v5.06c-3.12,1.38-6.57,2.14-10.2,2.14Zm16.31-5.92c-.31,.26-.62,.51-.94,.75-1.37,1.04-2.85,1.94-4.42,2.69v-4.72c0-3.26-1.65-6.13-4.17-7.83v-.72c0-4.79,3.89-8.68,8.68-8.68h3.03c2.68,0,5.07,1.21,6.66,3.12-1.02,6.15-4.24,11.56-8.84,15.39Zm2.18-19.26h-3.03c-5.21,0-9.43,4.22-9.43,9.43v.27c-1.34-.74-2.88-1.15-4.51-1.15h-3.04c-1.63,0-3.17,.41-4.51,1.15v-.27c0-5.21-4.22-9.43-9.43-9.43h-3.03c-2.67,0-5.09,1.11-6.8,2.9-.14-1.05-.21-2.13-.21-3.22C1.5,12.94,12.94,1.5,27,1.5s25.5,11.44,25.5,25.5c0,1.09-.07,2.17-.21,3.22-1.71-1.79-4.13-2.9-6.8-2.9Z"/><path fill="#008000" d="M27,24.72c-2.79,0-5.06,2.27-5.06,5.06s2.27,5.06,5.06,5.06,5.06-2.26,5.06-5.06-2.27-5.06-5.06-5.06Zm0,9.37c-2.38,0-4.31-1.93-4.31-4.31s1.93-4.31,4.31-4.31,4.31,1.94,4.31,4.31-1.93,4.31-4.31,4.31Z"/><path d="M43.97,16.17c-2.79,0-5.06,2.27-5.06,5.06s2.27,5.06,5.06,5.06,5.06-2.27,5.06-5.06-2.26-5.06-5.06-5.06Zm0,9.37c-2.37,0-4.31-1.93-4.31-4.31s1.94-4.31,4.31-4.31,4.31,1.93,4.31,4.31-1.93,4.31-4.31,4.31Z"/><path d="M10.03,16.17c-2.8,0-5.06,2.27-5.06,5.06s2.26,5.06,5.06,5.06,5.06-2.27,5.06-5.06-2.27-5.06-5.06-5.06Zm0,9.37c-2.38,0-4.31-1.93-4.31-4.31s1.93-4.31,4.31-4.31,4.31,1.93,4.31,4.31-1.94,4.31-4.31,4.31Z"/></svg>