<svg xmlns="http://www.w3.org/2000/svg" xmlns:xlink="http://www.w3.org/1999/xlink" preserveAspectRatio="xMidYMid" width="500" height="500" viewBox="0 0 500 500">
  <defs>
    <style>
      .cls-1 {
        fill: #000;
        fill-rule: evenodd;
      }
    </style>
  </defs>
  <path d="M406.648,258.585 C406.338,258.714 406.009,258.773 405.682,258.773 C405.051,258.773 404.429,258.543 403.939,258.109 L371.655,229.347 C370.863,228.648 370.577,227.532 370.927,226.525 C371.280,225.529 372.201,224.839 373.261,224.778 C401.762,223.296 424.089,200.601 424.089,173.118 C424.089,144.535 399.976,121.278 370.343,121.278 C368.579,121.278 366.769,121.363 364.950,121.550 C356.220,122.377 347.862,117.852 344.028,110.199 C334.958,92.073 316.422,80.807 295.654,80.807 C292.080,80.807 288.356,81.173 284.590,81.906 C277.812,83.261 270.775,81.318 265.768,76.614 C253.478,65.024 237.294,58.640 220.202,58.640 C190.282,58.640 164.304,78.207 157.027,106.228 C154.522,115.858 145.222,122.267 135.053,121.517 C133.571,121.397 132.096,121.295 130.601,121.295 C100.964,121.295 76.851,144.543 76.851,173.118 C76.851,200.601 99.179,223.296 127.684,224.778 C128.744,224.839 129.664,225.529 130.018,226.525 C130.368,227.532 130.082,228.648 129.289,229.347 L97.006,258.109 C96.281,258.747 95.285,258.927 94.368,258.620 C58.838,245.717 34.969,211.356 34.969,173.118 C34.969,126.817 70.746,87.394 118.192,81.429 C120.364,81.156 122.204,79.861 123.116,77.960 C140.527,41.546 178.635,18.016 220.202,18.016 C243.850,18.016 266.258,25.320 284.999,39.134 C286.234,40.054 287.806,40.497 289.268,40.386 C322.217,38.299 353.720,52.820 372.998,78.437 C374.088,79.877 375.783,80.789 377.649,80.926 C427.178,84.548 465.971,125.045 465.971,173.118 C465.971,210.683 442.686,244.234 406.648,258.585 ZM377.270,86.142 C373.905,85.903 370.821,84.241 368.818,81.590 C350.593,57.371 320.495,43.642 289.617,45.611 C286.852,45.798 284.118,44.997 281.885,43.335 C264.060,30.202 242.725,23.249 220.202,23.249 C180.642,23.249 144.383,45.611 127.837,80.227 C126.154,83.738 122.793,86.124 118.848,86.628 C74.013,92.260 40.200,129.451 40.200,173.118 C40.200,208.637 62.038,240.604 94.701,253.149 L121.365,229.398 C93.022,225.094 71.620,201.411 71.620,173.118 C71.620,141.654 98.080,116.062 130.601,116.062 C132.241,116.062 133.861,116.164 135.467,116.301 C143.249,116.915 150.100,112.091 151.958,104.916 C159.839,74.586 187.901,53.408 220.202,53.408 C238.636,53.408 256.093,60.294 269.356,72.796 C273.126,76.341 278.426,77.815 283.568,76.767 C287.691,75.975 291.747,75.574 295.654,75.574 C318.416,75.574 338.745,87.948 348.710,107.864 C351.573,113.582 357.831,117.076 364.422,116.335 C366.420,116.130 368.409,116.046 370.343,116.046 C402.865,116.046 429.321,141.646 429.321,173.118 C429.321,201.411 407.918,225.094 379.580,229.398 L406.205,253.114 C439.387,239.240 460.740,208.007 460.740,173.118 C460.740,127.772 424.077,89.567 377.270,86.142 ZM61.599,273.022 L160.031,273.022 C168.521,273.022 175.436,279.738 175.440,287.995 L175.440,468.996 C175.440,477.254 168.530,483.969 160.031,483.969 L61.599,483.969 C53.096,483.969 46.182,477.254 46.182,468.996 L46.182,287.995 C46.182,279.738 53.096,273.022 61.599,273.022 ZM51.414,468.996 C51.414,474.365 55.984,478.737 61.599,478.737 L160.031,478.737 C165.642,478.737 170.208,474.365 170.208,468.996 L170.208,287.995 C170.204,282.626 165.638,278.255 160.031,278.255 L61.599,278.255 C55.984,278.255 51.414,282.626 51.414,287.995 L51.414,468.996 ZM69.404,292.930 L151.795,292.930 C153.240,292.930 154.412,294.097 154.412,295.546 L154.412,461.462 C154.412,462.911 153.240,464.078 151.795,464.078 L69.404,464.078 C67.960,464.078 66.788,462.911 66.788,461.462 L66.788,295.546 C66.788,294.097 67.960,292.930 69.404,292.930 ZM72.020,458.846 L149.180,458.846 L149.180,298.162 L72.020,298.162 L72.020,458.846 ZM138.201,448.381 L82.985,448.381 C82.023,448.381 81.239,447.597 81.239,446.634 L81.239,416.150 C81.239,415.188 82.023,414.403 82.985,414.403 L138.201,414.403 C139.165,414.403 139.948,415.188 139.948,416.150 L139.948,446.634 C139.948,447.597 139.165,448.381 138.201,448.381 ZM136.454,417.897 L84.732,417.897 L84.732,444.887 L136.454,444.887 L136.454,417.897 ZM96.704,425.397 C99.958,425.397 102.608,427.970 102.608,431.141 C102.608,434.319 99.958,436.901 96.704,436.901 C93.452,436.901 90.803,434.319 90.803,431.141 C90.803,427.970 93.452,425.397 96.704,425.397 ZM96.704,433.407 C98.032,433.407 99.115,432.393 99.115,431.141 C99.115,429.896 98.032,428.891 96.704,428.891 C95.374,428.891 94.297,429.896 94.297,431.141 C94.297,432.393 95.374,433.407 96.704,433.407 ZM121.106,419.491 C122.068,419.491 122.853,420.275 122.853,421.238 L122.853,441.103 C122.853,442.066 122.068,442.850 121.106,442.850 C120.143,442.850 119.359,442.066 119.359,441.103 L119.359,421.238 C119.359,420.275 120.143,419.491 121.106,419.491 ZM131.628,419.491 C132.591,419.491 133.375,420.275 133.375,421.238 L133.375,441.103 C133.375,442.066 132.591,442.850 131.628,442.850 C130.666,442.850 129.881,442.066 129.881,441.103 L129.881,421.238 C129.881,420.275 130.666,419.491 131.628,419.491 ZM138.201,395.493 L82.985,395.493 C82.023,395.493 81.239,394.709 81.239,393.745 L81.239,363.262 C81.239,362.299 82.023,361.516 82.985,361.516 L138.201,361.516 C139.165,361.516 139.948,362.299 139.948,363.262 L139.948,393.745 C139.948,394.709 139.165,395.493 138.201,395.493 ZM136.454,365.010 L84.732,365.010 L84.732,391.998 L136.454,391.998 L136.454,365.010 ZM96.704,372.500 C99.958,372.500 102.608,375.083 102.608,378.252 C102.608,381.431 99.958,384.013 96.704,384.013 C93.452,384.013 90.803,381.431 90.803,378.252 C90.803,375.083 93.452,372.500 96.704,372.500 ZM96.704,380.520 C98.032,380.520 99.115,379.506 99.115,378.252 C99.115,377.009 98.032,375.994 96.704,375.994 C95.374,375.994 94.297,377.009 94.297,378.252 C94.297,379.506 95.374,380.520 96.704,380.520 ZM121.106,366.595 C122.068,366.595 122.853,367.378 122.853,368.341 L122.853,388.215 C122.853,389.178 122.068,389.962 121.106,389.962 C120.143,389.962 119.359,389.178 119.359,388.215 L119.359,368.341 C119.359,367.378 120.143,366.595 121.106,366.595 ZM131.628,366.595 C132.591,366.595 133.375,367.378 133.375,368.341 L133.375,388.215 C133.375,389.178 132.591,389.962 131.628,389.962 C130.666,389.962 129.881,389.178 129.881,388.215 L129.881,368.341 C129.881,367.378 130.666,366.595 131.628,366.595 ZM138.201,341.906 L82.985,341.906 C82.023,341.906 81.239,341.122 81.239,340.159 L81.239,309.675 C81.239,308.713 82.023,307.928 82.985,307.928 L138.201,307.928 C139.165,307.928 139.948,308.713 139.948,309.675 L139.948,340.159 C139.948,341.122 139.165,341.906 138.201,341.906 ZM136.454,311.422 L84.732,311.422 L84.732,338.412 L136.454,338.412 L136.454,311.422 ZM96.704,318.922 C99.958,318.922 102.608,321.495 102.608,324.666 C102.608,327.845 99.958,330.427 96.704,330.427 C93.452,330.427 90.803,327.845 90.803,324.666 C90.803,321.495 93.452,318.922 96.704,318.922 ZM96.704,326.933 C98.032,326.933 99.115,325.919 99.115,324.666 C99.115,323.421 98.032,322.416 96.704,322.416 C95.374,322.416 94.297,323.421 94.297,324.666 C94.297,325.919 95.374,326.933 96.704,326.933 ZM121.106,313.016 C122.068,313.016 122.853,313.800 122.853,314.763 L122.853,334.628 C122.853,335.592 122.068,336.375 121.106,336.375 C120.143,336.375 119.359,335.592 119.359,334.628 L119.359,314.763 C119.359,313.800 120.143,313.016 121.106,313.016 ZM131.628,313.016 C132.591,313.016 133.375,313.800 133.375,314.763 L133.375,334.628 C133.375,335.592 132.591,336.375 131.628,336.375 C130.666,336.375 129.881,335.592 129.881,334.628 L129.881,314.763 C129.881,313.800 130.666,313.016 131.628,313.016 ZM201.252,273.022 L299.688,273.022 C308.187,273.022 315.097,279.738 315.097,287.995 L315.097,468.996 C315.097,477.254 308.187,483.969 299.688,483.969 L201.252,483.969 C192.754,483.969 185.844,477.254 185.844,468.996 L185.844,287.995 C185.844,279.738 192.754,273.022 201.252,273.022 ZM191.075,468.996 C191.075,474.365 195.642,478.737 201.252,478.737 L299.688,478.737 C305.299,478.737 309.865,474.365 309.865,468.996 L309.865,287.995 C309.865,282.626 305.299,278.255 299.688,278.255 L201.252,278.255 C195.642,278.255 191.075,282.626 191.075,287.995 L191.075,468.996 ZM209.061,292.930 L291.453,292.930 C292.897,292.930 294.069,294.097 294.069,295.546 L294.069,461.462 C294.069,462.911 292.897,464.078 291.453,464.078 L209.061,464.078 C207.617,464.078 206.445,462.911 206.445,461.462 L206.445,295.546 C206.445,294.097 207.617,292.930 209.061,292.930 ZM211.677,458.846 L288.838,458.846 L288.838,298.162 L211.677,298.162 L211.677,458.846 ZM275.072,448.389 L219.856,448.389 C218.894,448.389 218.110,447.605 218.110,446.642 C218.110,446.640 218.111,446.639 218.111,446.638 C218.111,446.637 218.110,446.635 218.110,446.634 L218.110,416.150 C218.110,415.188 218.894,414.403 219.856,414.403 L275.072,414.403 C276.035,414.403 276.819,415.188 276.819,416.150 L276.819,416.585 L276.819,446.634 L276.819,446.642 C276.819,447.605 276.035,448.389 275.072,448.389 ZM273.326,417.897 L221.603,417.897 L221.603,444.887 L273.326,444.887 L273.326,417.897 ZM233.574,425.397 C236.829,425.397 239.479,427.970 239.479,431.141 C239.479,434.319 236.829,436.901 233.574,436.901 C230.323,436.901 227.674,434.319 227.674,431.141 C227.674,427.970 230.323,425.397 233.574,425.397 ZM233.574,433.407 C234.903,433.407 235.986,432.393 235.986,431.141 C235.986,429.896 234.903,428.891 233.574,428.891 C232.245,428.891 231.167,429.896 231.167,431.141 C231.167,432.393 232.245,433.407 233.574,433.407 ZM257.977,419.491 C258.939,419.491 259.724,420.275 259.724,421.238 L259.724,441.103 C259.724,442.066 258.939,442.850 257.977,442.850 C257.014,442.850 256.230,442.066 256.230,441.103 L256.230,421.238 C256.230,420.275 257.014,419.491 257.977,419.491 ZM268.499,419.491 C269.462,419.491 270.246,420.275 270.246,421.238 L270.246,441.103 C270.246,442.066 269.462,442.850 268.499,442.850 C267.537,442.850 266.753,442.066 266.753,441.103 L266.753,421.238 C266.753,420.275 267.537,419.491 268.499,419.491 ZM275.072,395.493 L219.856,395.493 C218.894,395.493 218.110,394.709 218.110,393.745 L218.110,363.262 C218.110,362.299 218.894,361.516 219.856,361.516 L275.072,361.516 C276.035,361.516 276.819,362.299 276.819,363.262 L276.819,393.745 C276.819,394.709 276.035,395.493 275.072,395.493 ZM273.326,365.010 L221.603,365.010 L221.603,391.998 L273.326,391.998 L273.326,365.010 ZM233.574,372.500 C236.829,372.500 239.479,375.083 239.479,378.252 C239.479,381.431 236.829,384.013 233.574,384.013 C230.323,384.013 227.674,381.431 227.674,378.252 C227.674,375.083 230.323,372.500 233.574,372.500 ZM233.574,380.520 C234.903,380.520 235.986,379.506 235.986,378.252 C235.986,377.009 234.903,375.994 233.574,375.994 C232.245,375.994 231.167,377.009 231.167,378.252 C231.167,379.506 232.245,380.520 233.574,380.520 ZM257.977,366.595 C258.939,366.595 259.724,367.378 259.724,368.341 L259.724,388.215 C259.724,389.178 258.939,389.962 257.977,389.962 C257.014,389.962 256.230,389.178 256.230,388.215 L256.230,368.341 C256.230,367.378 257.014,366.595 257.977,366.595 ZM268.499,366.595 C269.462,366.595 270.246,367.378 270.246,368.341 L270.246,388.215 C270.246,389.178 269.462,389.962 268.499,389.962 C267.537,389.962 266.753,389.178 266.753,388.215 L266.753,368.341 C266.753,367.378 267.537,366.595 268.499,366.595 ZM275.072,341.906 L219.856,341.906 C218.894,341.906 218.110,341.122 218.110,340.159 L218.110,309.675 C218.110,308.713 218.894,307.928 219.856,307.928 L275.072,307.928 C276.035,307.928 276.819,308.713 276.819,309.675 L276.819,340.159 C276.819,341.122 276.035,341.906 275.072,341.906 ZM273.326,311.422 L221.603,311.422 L221.603,338.412 L273.326,338.412 L273.326,311.422 ZM233.574,318.922 C236.829,318.922 239.479,321.495 239.479,324.666 C239.479,327.845 236.829,330.427 233.574,330.427 C230.323,330.427 227.674,327.845 227.674,324.666 C227.674,321.495 230.323,318.922 233.574,318.922 ZM233.574,326.933 C234.903,326.933 235.986,325.919 235.986,324.666 C235.986,323.421 234.903,322.416 233.574,322.416 C232.245,322.416 231.167,323.421 231.167,324.666 C231.167,325.919 232.245,326.933 233.574,326.933 ZM257.977,313.016 C258.939,313.016 259.724,313.800 259.724,314.763 L259.724,334.628 C259.724,335.592 258.939,336.375 257.977,336.375 C257.014,336.375 256.230,335.592 256.230,334.628 L256.230,314.763 C256.230,313.800 257.014,313.016 257.977,313.016 ZM268.499,313.016 C269.462,313.016 270.246,313.800 270.246,314.763 L270.246,334.628 C270.246,335.592 269.462,336.375 268.499,336.375 C267.537,336.375 266.753,335.592 266.753,334.628 L266.753,314.763 C266.753,313.800 267.537,313.016 268.499,313.016 ZM387.728,264.347 C387.341,265.361 386.370,266.034 385.284,266.034 L349.604,266.034 C348.962,266.034 348.343,265.795 347.862,265.369 L265.180,191.687 L265.180,263.418 C265.180,264.867 264.010,266.034 262.565,266.034 L238.376,266.034 C236.931,266.034 235.760,264.867 235.760,263.418 L235.760,191.687 L153.078,265.369 C152.596,265.795 151.979,266.034 151.336,266.034 L115.661,266.034 C114.574,266.034 113.603,265.361 113.216,264.347 C112.828,263.332 113.110,262.182 113.918,261.466 L219.456,167.417 C218.689,164.732 218.306,161.979 218.306,159.193 C218.306,142.012 232.735,128.036 250.475,128.036 C268.209,128.036 282.635,142.012 282.635,159.193 C282.635,161.979 282.251,164.732 281.484,167.417 L387.026,261.466 C387.835,262.182 388.117,263.332 387.728,264.347 ZM276.735,170.194 C275.946,169.496 275.656,168.379 276.006,167.383 C276.930,164.732 277.403,161.971 277.403,159.193 C277.403,144.901 265.321,133.269 250.475,133.269 C235.623,133.269 223.537,144.901 223.537,159.193 C223.537,161.971 224.011,164.732 224.934,167.383 C225.284,168.379 224.994,169.496 224.206,170.194 L122.533,260.802 L150.339,260.802 L236.633,183.899 C237.408,183.216 238.517,183.055 239.444,183.463 C240.386,183.881 240.991,184.818 240.991,185.850 L240.991,260.802 L259.949,260.802 L259.949,185.850 C259.949,184.818 260.554,183.881 261.496,183.463 C262.420,183.037 263.536,183.216 264.307,183.899 L350.602,260.802 L378.412,260.802 L276.735,170.194 ZM340.913,273.022 L439.341,273.022 C447.831,273.022 454.750,279.738 454.759,287.995 L454.759,468.996 C454.759,477.254 447.845,483.969 439.346,483.969 L340.913,483.969 C332.415,483.969 325.505,477.254 325.505,468.996 L325.505,287.995 C325.505,279.738 332.415,273.022 340.913,273.022 ZM330.736,468.996 C330.736,474.365 335.303,478.737 340.913,478.737 L439.346,478.737 C444.960,478.737 449.527,474.365 449.527,468.996 L449.527,287.995 C449.519,282.626 444.951,278.255 439.341,278.255 L340.913,278.255 C335.303,278.255 330.736,282.626 330.736,287.995 L330.736,468.996 ZM348.714,292.930 L431.110,292.930 C432.554,292.930 433.726,294.097 433.726,295.546 L433.726,461.462 C433.726,462.911 432.554,464.078 431.110,464.078 L348.714,464.078 C347.270,464.078 346.099,462.911 346.099,461.462 L346.099,295.546 C346.099,294.097 347.270,292.930 348.714,292.930 ZM351.330,458.846 L428.495,458.846 L428.495,298.162 L351.330,298.162 L351.330,458.846 ZM417.520,448.492 L362.304,448.492 C361.341,448.492 360.557,447.707 360.557,446.745 C360.557,446.742 360.559,446.739 360.559,446.736 C360.559,446.733 360.557,446.731 360.557,446.728 L360.557,416.244 C360.557,415.281 361.341,414.497 362.304,414.497 L417.520,414.497 C418.483,414.497 419.267,415.281 419.267,416.244 L419.267,416.679 L419.267,446.728 L419.267,446.745 C419.267,447.707 418.483,448.492 417.520,448.492 ZM415.774,417.991 L364.051,417.991 L364.051,444.980 L415.774,444.980 L415.774,417.991 ZM376.026,425.490 C379.277,425.490 381.927,428.064 381.927,431.234 C381.927,434.413 379.277,436.996 376.026,436.996 C372.771,436.996 370.122,434.413 370.122,431.234 C370.122,428.064 372.771,425.490 376.026,425.490 ZM376.026,433.501 C377.329,433.501 378.433,432.461 378.433,431.234 C378.433,429.990 377.356,428.984 376.026,428.984 C374.697,428.984 373.615,429.990 373.615,431.234 C373.615,432.487 374.697,433.501 376.026,433.501 ZM400.428,419.585 C401.391,419.585 402.175,420.369 402.175,421.332 L402.175,441.205 C402.175,442.169 401.391,442.952 400.428,442.952 C399.466,442.952 398.682,442.169 398.682,441.205 L398.682,421.332 C398.682,420.369 399.466,419.585 400.428,419.585 ZM410.947,419.585 C411.909,419.585 412.694,420.369 412.694,421.332 L412.694,441.205 C412.694,442.169 411.909,442.952 410.947,442.952 C409.984,442.952 409.201,442.169 409.201,441.205 L409.201,421.332 C409.201,420.369 409.984,419.585 410.947,419.585 ZM417.520,395.587 L362.304,395.587 C361.341,395.587 360.557,394.802 360.557,393.840 L360.557,363.356 C360.557,362.393 361.341,361.609 362.304,361.609 L417.520,361.609 C418.483,361.609 419.267,362.393 419.267,363.356 L419.267,393.840 C419.267,394.802 418.483,395.587 417.520,395.587 ZM415.774,365.103 L364.051,365.103 L364.051,392.093 L415.774,392.093 L415.774,365.103 ZM376.026,372.603 C379.277,372.603 381.927,375.176 381.927,378.347 C381.927,381.525 379.277,384.107 376.026,384.107 C372.771,384.107 370.122,381.525 370.122,378.347 C370.122,375.176 372.771,372.603 376.026,372.603 ZM376.026,380.613 C377.329,380.613 378.433,379.573 378.433,378.347 C378.433,377.102 377.356,376.097 376.026,376.097 C374.697,376.097 373.615,377.102 373.615,378.347 C373.615,379.599 374.697,380.613 376.026,380.613 ZM400.428,366.697 C401.391,366.697 402.175,367.481 402.175,368.444 L402.175,388.309 C402.175,389.271 401.391,390.056 400.428,390.056 C399.466,390.056 398.682,389.271 398.682,388.309 L398.682,368.444 C398.682,367.481 399.466,366.697 400.428,366.697 ZM410.947,366.697 C411.909,366.697 412.694,367.481 412.694,368.444 L412.694,388.309 C412.694,389.271 411.909,390.056 410.947,390.056 C409.984,390.056 409.201,389.271 409.201,388.309 L409.201,368.444 C409.201,367.481 409.984,366.697 410.947,366.697 ZM417.520,342.008 L362.304,342.008 C361.341,342.008 360.557,341.224 360.557,340.261 L360.557,309.769 C360.557,308.806 361.341,308.022 362.304,308.022 L417.520,308.022 C418.483,308.022 419.267,308.806 419.267,309.769 L419.267,340.261 C419.267,341.224 418.483,342.008 417.520,342.008 ZM415.774,311.517 L364.051,311.517 L364.051,338.514 L415.774,338.514 L415.774,311.517 ZM376.026,319.015 C379.277,319.015 381.927,321.589 381.927,324.760 C381.927,327.938 379.277,330.520 376.026,330.520 C372.771,330.520 370.122,327.938 370.122,324.760 C370.122,321.589 372.771,319.015 376.026,319.015 ZM376.026,327.026 C377.356,327.026 378.433,326.012 378.433,324.760 C378.433,323.516 377.356,322.509 376.026,322.509 C374.697,322.509 373.615,323.516 373.615,324.760 C373.615,326.012 374.697,327.026 376.026,327.026 ZM400.428,313.110 C401.391,313.110 402.175,313.894 402.175,314.857 L402.175,334.730 C402.175,335.694 401.391,336.477 400.428,336.477 C399.466,336.477 398.682,335.694 398.682,334.730 L398.682,314.857 C398.682,313.894 399.466,313.110 400.428,313.110 ZM410.947,313.110 C411.909,313.110 412.694,313.894 412.694,314.857 L412.694,334.730 C412.694,335.694 411.909,336.477 410.947,336.477 C409.984,336.477 409.201,335.694 409.201,334.730 L409.201,314.857 C409.201,313.894 409.984,313.110 410.947,313.110 Z" class="cls-1"/>
</svg>
