<svg xmlns="http://www.w3.org/2000/svg" xmlns:xlink="http://www.w3.org/1999/xlink" preserveAspectRatio="xMidYMid" width="500" height="500" viewBox="0 0 500 500">
  <defs>
    <style>
      .cls-1 {
        fill: #000;
        fill-rule: evenodd;
      }
    </style>
  </defs>
  <path d="M402.500,478.943 C301.643,478.943 203.223,438.258 131.983,367.020 C59.741,294.747 18.926,194.636 20.010,92.344 C20.010,92.180 22.467,69.245 31.371,57.489 C51.344,31.142 83.647,17.925 115.575,23.090 L122.878,25.487 C139.694,31.131 157.121,49.567 161.726,66.575 L177.899,125.828 C182.575,143.173 176.226,167.418 163.753,179.871 L143.677,199.964 C164.680,275.069 224.001,334.386 299.169,355.438 L319.245,335.389 C331.734,322.892 355.979,316.518 373.275,321.181 L432.602,337.416 C463.925,353.836 475.397,381.675 475.871,382.852 C484.153,406.137 482.295,427.427 470.546,444.566 C453.832,468.941 422.701,478.463 405.857,478.921 C404.690,479.085 403.617,478.943 402.500,478.943 ZM101.816,28.603 C76.880,28.603 52.597,40.567 36.713,61.531 C30.445,69.801 27.350,86.864 26.685,92.747 C25.640,192.914 65.740,291.283 136.724,362.291 C207.463,433.028 305.654,473.201 405.704,472.231 C424.363,471.709 451.485,460.518 465.026,440.775 C475.658,425.270 477.206,406.583 469.609,385.227 C469.548,385.086 458.552,358.565 430.156,343.604 L371.521,327.643 C356.546,323.589 334.787,329.320 323.974,340.118 L302.521,361.550 C301.671,362.401 300.422,362.716 299.279,362.422 C220.323,341.033 158.026,278.741 136.702,199.843 C136.392,198.688 136.719,197.458 137.563,196.608 L159.017,175.143 C169.797,164.377 175.485,142.597 171.436,127.582 L155.262,68.329 C151.242,53.479 135.438,36.763 120.746,31.829 L113.984,29.561 C109.936,28.919 105.864,28.603 101.816,28.603 Z" class="cls-1"/>
</svg>
