<svg xmlns="http://www.w3.org/2000/svg" xmlns:xlink="http://www.w3.org/1999/xlink" preserveAspectRatio="xMidYMid" width="500" height="500" viewBox="0 0 500 500">
  <defs>
    <style>
      .cls-1 {
        fill: #000;
        fill-rule: evenodd;
      }
    </style>
  </defs>
  <path d="M414.376,413.657 C409.757,413.657 405.540,411.274 403.060,407.491 L289.764,490.474 C289.302,490.807 288.754,490.978 288.207,490.978 C287.805,490.978 287.394,490.884 287.017,490.696 C286.136,490.252 285.580,489.346 285.580,488.356 L285.580,127.067 C285.580,126.229 285.975,125.443 286.649,124.948 L400.785,41.350 L400.785,37.361 L153.680,37.361 L153.680,189.168 C153.680,190.620 152.508,191.790 151.053,191.790 L129.104,191.790 C127.651,191.790 126.479,190.620 126.479,189.168 L126.479,23.670 C126.479,16.120 132.578,9.979 140.079,9.979 L414.376,9.979 C421.878,9.979 427.977,16.120 427.977,23.670 L427.977,399.983 C427.977,407.525 421.878,413.657 414.376,413.657 ZM422.726,23.670 C422.726,19.015 418.978,15.223 414.376,15.223 L140.079,15.223 C135.477,15.223 131.731,19.015 131.731,23.670 L131.731,186.546 L148.428,186.546 L148.428,34.739 C148.428,33.287 149.599,32.117 151.053,32.117 L403.410,32.117 C404.864,32.117 406.037,33.287 406.037,34.739 L406.037,42.682 C406.037,43.520 405.643,44.305 404.967,44.800 L290.833,128.398 L290.833,483.180 L402.470,401.409 C403.153,400.914 404.026,400.769 404.813,401.025 C405.609,401.273 406.241,401.887 406.515,402.682 C407.687,406.107 410.844,408.413 414.376,408.413 C418.978,408.413 422.726,404.629 422.726,399.983 L422.726,23.670 ZM331.720,318.750 C325.759,318.750 320.668,312.669 318.890,303.684 L308.770,303.684 C307.316,303.684 306.144,302.514 306.144,301.062 L306.144,291.368 C306.144,289.916 307.316,288.746 308.770,288.746 L319.137,288.746 C321.096,280.247 325.989,274.688 331.720,274.688 C339.299,274.688 345.227,284.364 345.227,296.714 C345.235,302.343 343.986,307.673 341.711,311.729 C339.171,316.256 335.621,318.750 331.720,318.750 ZM331.720,279.932 C328.350,279.932 324.988,285.031 323.894,291.787 C323.688,293.059 322.593,293.990 321.302,293.990 L311.396,293.990 L311.396,298.440 L321.123,298.440 C322.447,298.440 323.560,299.422 323.731,300.729 C324.664,308.014 328.102,313.507 331.720,313.507 C333.610,313.507 335.578,311.926 337.126,309.159 C338.966,305.879 339.975,301.463 339.975,296.714 C339.975,286.824 335.621,279.932 331.720,279.932 ZM162.926,176.108 C157.563,170.676 157.572,161.880 162.926,156.489 C165.518,153.860 168.982,152.407 172.678,152.407 C172.678,152.407 172.678,152.407 172.687,152.407 C176.374,152.407 179.847,153.860 182.446,156.489 L235.917,210.426 C241.272,215.832 241.272,224.637 235.925,230.053 L182.446,283.980 C179.847,286.619 176.381,288.072 172.687,288.072 C168.982,288.072 165.509,286.619 162.918,283.972 C157.563,278.582 157.563,269.785 162.926,264.370 L192.916,234.118 L87.789,234.118 C80.177,234.118 73.992,227.901 73.992,220.248 C73.992,212.578 80.177,206.343 87.789,206.343 L192.908,206.343 L162.926,176.108 ZM87.789,211.587 C83.076,211.587 79.244,215.474 79.244,220.248 C79.244,225.005 83.076,228.874 87.789,228.874 L199.212,228.874 C200.273,228.874 201.231,229.507 201.641,230.489 C202.043,231.462 201.829,232.589 201.077,233.341 L166.656,268.060 C163.312,271.442 163.312,276.926 166.656,280.290 C169.863,283.570 175.483,283.570 178.709,280.290 L232.187,226.363 C235.523,222.981 235.523,217.490 232.187,214.115 L178.717,160.179 C177.101,158.548 174.961,157.652 172.687,157.652 C172.678,157.652 172.678,157.652 172.678,157.652 C170.402,157.652 168.273,158.548 166.665,160.179 C163.319,163.545 163.319,169.037 166.665,172.418 L201.068,207.120 C201.821,207.872 202.035,208.999 201.633,209.973 C201.222,210.956 200.264,211.587 199.203,211.587 L87.789,211.587 ZM129.104,253.301 L151.045,253.301 C152.500,253.301 153.671,254.472 153.671,255.924 L153.671,399.983 C153.671,407.525 147.572,413.657 140.079,413.657 C132.578,413.657 126.479,407.525 126.479,399.983 L126.479,255.924 C126.479,254.472 127.651,253.301 129.104,253.301 ZM131.731,399.983 C131.731,404.629 135.477,408.413 140.079,408.413 C144.681,408.413 148.420,404.629 148.420,399.983 L148.420,258.545 L131.731,258.545 L131.731,399.983 Z" class="cls-1"/>
</svg>
