<svg xmlns="http://www.w3.org/2000/svg" xmlns:xlink="http://www.w3.org/1999/xlink" preserveAspectRatio="xMidYMid" width="500" height="500" viewBox="0 0 500 500">
  <defs>
    <style>
      .cls-1 {
        fill: #000;
        fill-rule: evenodd;
      }
    </style>
  </defs>
  <path d="M459.308,237.621 L435.171,237.621 C423.762,237.621 414.479,228.380 414.479,217.014 L414.479,133.482 L312.768,234.767 C308.707,238.765 303.396,240.764 298.094,240.764 C292.792,240.764 287.498,238.765 283.479,234.767 L266.348,217.691 C262.459,213.778 260.322,208.586 260.322,203.063 C260.322,197.533 262.459,192.349 266.348,188.478 L368.095,87.295 L284.279,87.295 C272.869,87.295 263.586,78.045 263.586,66.679 L263.586,42.616 C263.586,31.249 272.869,21.999 284.279,21.999 L459.308,21.999 C464.767,21.999 469.945,24.151 473.889,28.064 L473.893,28.072 C477.764,31.935 479.932,37.119 480.000,42.658 L480.000,217.014 C480.000,228.380 470.717,237.621 459.308,237.621 ZM474.799,42.692 C474.744,38.550 473.122,34.663 470.221,31.757 C467.260,28.818 463.386,27.200 459.308,27.200 L284.279,27.200 C275.737,27.200 268.787,34.120 268.787,42.616 L268.787,66.679 C268.787,75.175 275.737,82.094 284.279,82.094 L374.402,82.094 C375.457,82.094 376.405,82.730 376.807,83.704 C377.210,84.678 376.985,85.796 376.236,86.541 L270.019,192.171 C267.122,195.059 265.526,198.922 265.526,203.063 C265.526,207.205 267.122,211.093 270.028,214.007 L287.150,231.074 C293.165,237.071 303.015,237.062 309.105,231.065 L415.241,125.377 C415.994,124.639 417.130,124.419 418.078,124.817 C419.049,125.224 419.679,126.173 419.679,127.223 L419.679,217.014 C419.679,225.509 426.629,232.421 435.171,232.421 L459.308,232.421 C467.849,232.421 474.799,225.509 474.799,217.014 L474.799,42.692 ZM133.895,414.696 L217.717,414.696 C229.126,414.696 238.409,423.945 238.409,435.312 L238.409,459.358 C238.409,470.742 229.126,480.000 217.717,480.000 L42.688,480.000 C37.207,480.000 32.028,477.832 28.102,473.902 C24.181,470.141 22.000,464.966 22.000,459.358 L22.000,284.994 C22.000,273.619 31.279,264.370 42.688,264.370 L66.828,264.370 C78.237,264.370 87.516,273.619 87.516,284.994 L87.516,368.509 L189.103,267.173 C197.264,259.211 210.394,259.220 218.394,267.165 L235.516,284.232 C239.408,288.078 241.564,293.202 241.594,298.682 C241.623,304.230 239.472,309.473 235.529,313.445 L133.895,414.696 ZM231.853,287.934 C231.853,287.925 231.848,287.925 231.848,287.925 L214.721,270.858 C208.725,264.903 198.874,264.895 192.758,270.875 L86.754,376.615 C86.009,377.360 84.890,377.589 83.921,377.182 C82.947,376.775 82.316,375.826 82.316,374.776 L82.316,284.994 C82.316,276.490 75.365,269.571 66.828,269.571 L42.688,269.571 C34.150,269.571 27.200,276.490 27.200,284.994 L27.200,459.358 C27.200,463.534 28.814,467.379 31.744,470.183 C34.726,473.173 38.597,474.799 42.688,474.799 L217.717,474.799 C226.258,474.799 233.208,467.870 233.208,459.358 L233.208,435.312 C233.208,426.816 226.258,419.896 217.717,419.896 L127.597,419.896 C126.543,419.896 125.594,419.262 125.192,418.287 C124.790,417.313 125.015,416.195 125.760,415.450 L231.845,309.769 C234.796,306.797 236.414,302.865 236.393,298.707 C236.367,294.624 234.758,290.796 231.853,287.934 Z" class="cls-1"/>
</svg>
