<svg xmlns="http://www.w3.org/2000/svg" xmlns:xlink="http://www.w3.org/1999/xlink" preserveAspectRatio="xMidYMid" width="500" height="500" viewBox="0 0 500 500">
  <defs>
    <style>
      .cls-1 {
        fill: #000;
        fill-rule: evenodd;
      }
    </style>
  </defs>
  <path d="M413.940,489.005 L141.321,489.005 C125.856,489.005 113.277,476.242 113.277,460.549 L113.277,448.072 C113.277,446.627 114.444,445.453 115.892,445.453 L360.680,445.453 C381.213,445.453 397.912,428.437 397.912,407.528 L397.912,71.158 C397.912,69.712 399.079,68.539 400.527,68.539 L413.983,68.539 C429.422,68.539 441.985,81.319 441.985,97.024 L441.985,460.549 C441.985,476.242 429.406,489.005 413.940,489.005 ZM436.755,97.024 C436.755,84.206 426.536,73.777 413.983,73.777 L403.141,73.777 L403.141,407.528 C403.141,431.330 384.091,450.691 360.680,450.691 L118.506,450.691 L118.506,460.549 C118.506,473.351 128.742,483.767 141.321,483.767 L413.940,483.767 C426.518,483.767 436.755,473.351 436.755,460.549 L436.755,97.024 ZM360.638,436.026 L88.061,436.026 C72.604,436.026 60.025,423.242 60.025,407.528 L60.025,136.618 C60.025,135.172 61.192,133.999 62.640,133.999 L71.480,133.999 C72.340,134.055 73.038,134.106 73.694,134.106 L143.340,134.106 C161.640,134.106 176.527,118.946 176.527,100.314 L176.527,29.449 C176.527,28.604 176.476,27.789 176.399,26.992 L176.382,18.149 C176.382,16.703 177.549,15.530 178.996,15.530 L360.638,15.530 C376.103,15.530 388.681,28.310 388.681,44.016 L388.681,407.528 C388.681,423.242 376.103,436.026 360.638,436.026 ZM383.452,44.016 C383.452,31.198 373.216,20.768 360.638,20.768 L181.611,20.768 L181.611,26.715 C181.705,27.414 181.756,28.417 181.756,29.449 L181.756,100.314 C181.756,121.838 164.519,139.344 143.340,139.344 L73.694,139.344 C72.902,139.344 72.067,139.293 71.284,139.233 L65.255,139.238 L65.255,407.528 C65.255,420.355 75.482,430.788 88.061,430.788 L360.638,430.788 C373.216,430.788 383.452,420.355 383.452,407.528 L383.452,44.016 ZM347.966,157.763 L293.462,157.763 C292.015,157.763 290.848,156.590 290.848,155.144 L290.848,105.824 C290.848,104.378 292.015,103.205 293.462,103.205 L347.966,103.205 C349.413,103.205 350.580,104.378 350.580,105.824 L350.580,155.144 C350.580,156.590 349.413,157.763 347.966,157.763 ZM345.352,108.444 L296.077,108.444 L296.077,152.524 L345.352,152.524 L345.352,108.444 ZM349.218,172.394 C349.218,173.840 348.051,175.013 346.604,175.013 L94.788,175.013 C93.341,175.013 92.174,173.840 92.174,172.394 C92.174,170.947 93.341,169.775 94.788,169.775 L346.604,169.775 C348.051,169.775 349.218,170.947 349.218,172.394 ZM345.726,252.767 C347.174,252.767 348.340,253.939 348.340,255.386 C348.340,256.832 347.174,258.005 345.726,258.005 L93.911,258.005 C92.464,258.005 91.297,256.832 91.297,255.386 C91.297,253.939 92.464,252.767 93.911,252.767 L345.726,252.767 ZM93.741,278.975 L345.555,278.975 C347.003,278.975 348.170,280.147 348.170,281.594 C348.170,283.040 347.003,284.213 345.555,284.213 L93.741,284.213 C92.293,284.213 91.127,283.040 91.127,281.594 C91.127,280.147 92.293,278.975 93.741,278.975 ZM346.604,205.589 L94.788,205.589 C93.341,205.589 92.174,204.416 92.174,202.970 C92.174,201.523 93.341,200.351 94.788,200.351 L346.604,200.351 C348.051,200.351 349.218,201.523 349.218,202.970 C349.218,204.416 348.051,205.589 346.604,205.589 ZM346.604,231.797 L94.788,231.797 C93.341,231.797 92.174,230.624 92.174,229.178 C92.174,227.732 93.341,226.559 94.788,226.559 L346.604,226.559 C348.051,226.559 349.218,227.732 349.218,229.178 C349.218,230.624 348.051,231.797 346.604,231.797 ZM94.788,305.183 L346.604,305.183 C348.051,305.183 349.218,306.355 349.218,307.802 C349.218,309.248 348.051,310.421 346.604,310.421 L94.788,310.421 C93.341,310.421 92.174,309.248 92.174,307.802 C92.174,306.355 93.341,305.183 94.788,305.183 ZM94.788,331.391 L346.604,331.391 C348.051,331.391 349.218,332.563 349.218,334.010 C349.218,335.456 348.051,336.629 346.604,336.629 L94.788,336.629 C93.341,336.629 92.174,335.456 92.174,334.010 C92.174,332.563 93.341,331.391 94.788,331.391 ZM143.552,124.683 L73.694,124.683 C72.672,124.683 71.744,124.090 71.318,123.160 C70.892,122.231 71.045,121.134 71.710,120.358 L162.688,13.973 C163.395,13.142 164.553,12.834 165.583,13.222 C166.605,13.602 167.287,14.583 167.287,15.680 L167.287,100.343 C167.184,113.746 156.539,124.564 143.552,124.683 ZM162.057,22.769 L79.383,119.445 L143.340,119.445 C153.652,119.351 161.973,110.862 162.057,100.522 L162.057,22.769 Z" class="cls-1"/>
</svg>
