<svg xmlns="http://www.w3.org/2000/svg" xmlns:xlink="http://www.w3.org/1999/xlink" preserveAspectRatio="xMidYMid" width="500" height="500" viewBox="0 0 500 500">
  <defs>
    <style>
      .cls-1 {
        fill: #000;
        fill-rule: evenodd;
      }
    </style>
  </defs>
  <path d="M130.210,129.681 L280.648,129.681 C289.137,129.681 296.041,136.504 296.041,144.894 C296.041,153.270 289.137,160.080 280.648,160.080 L130.210,160.080 C121.722,160.080 114.814,153.270 114.814,144.894 C114.814,136.504 121.722,129.681 130.210,129.681 ZM130.210,154.502 L280.648,154.502 C286.058,154.502 290.464,150.191 290.464,144.894 C290.464,139.583 286.058,135.259 280.648,135.259 L130.210,135.259 C124.797,135.259 120.392,139.583 120.392,144.894 C120.392,150.191 124.797,154.502 130.210,154.502 ZM130.210,79.250 L280.648,79.250 C289.137,79.250 296.041,86.063 296.041,94.440 C296.041,102.816 289.137,109.625 280.648,109.625 L130.210,109.625 C121.722,109.625 114.814,102.816 114.814,94.440 C114.814,86.063 121.722,79.250 130.210,79.250 ZM130.210,104.047 L280.648,104.047 C286.058,104.047 290.464,99.736 290.464,94.440 C290.464,89.139 286.058,84.828 280.648,84.828 L130.210,84.828 C124.797,84.828 120.392,89.139 120.392,94.440 C120.392,99.736 124.797,104.047 130.210,104.047 ZM487.309,207.876 L436.882,431.210 C434.084,443.734 422.588,452.823 409.559,452.823 L79.007,453.015 C79.002,453.015 78.993,453.015 78.993,453.015 L78.988,453.015 C78.126,453.015 77.313,452.619 76.786,451.937 C76.255,451.251 76.068,450.357 76.291,449.517 L82.677,425.118 C83.017,422.961 89.979,392.530 102.247,338.955 C113.020,291.904 125.923,235.563 134.616,196.897 C136.955,186.490 146.547,178.936 157.425,178.936 L310.570,178.936 L310.570,177.073 C310.538,169.078 312.954,162.583 317.737,157.781 C321.490,154.012 326.062,151.962 329.972,150.835 L329.972,54.611 L67.243,54.611 L67.243,99.191 L67.243,406.907 L67.243,450.225 C67.243,451.765 65.994,453.015 64.455,453.015 L42.036,453.015 C26.331,453.015 14.032,441.108 14.032,425.909 L14.032,123.367 C14.032,108.144 26.594,95.762 42.036,95.762 C42.064,95.762 42.091,95.762 42.118,95.762 L61.666,96.320 L61.666,51.821 C61.666,50.282 62.916,49.033 64.455,49.033 L332.761,49.033 C334.300,49.033 335.550,50.282 335.550,51.821 L335.550,149.690 C337.277,149.477 338.425,149.463 338.574,149.463 L409.559,149.463 C424.047,149.463 436.000,160.366 437.422,174.284 L459.990,174.284 C468.506,174.284 476.458,178.036 481.809,184.586 L481.809,184.591 C487.182,191.187 489.185,199.672 487.309,207.876 ZM41.995,101.340 C29.651,101.362 19.609,111.234 19.609,123.367 L19.609,425.909 C19.609,437.978 29.460,447.435 42.036,447.435 L61.666,447.435 L61.666,406.907 L61.666,101.903 L41.995,101.340 ZM477.485,188.116 C473.198,182.870 466.821,179.862 459.990,179.862 L434.774,179.862 C433.234,179.862 431.985,178.613 431.985,177.073 C431.985,164.927 421.926,155.042 409.559,155.042 L338.574,155.042 C337.662,155.046 316.075,155.396 316.147,177.064 L316.147,181.725 C316.147,183.264 314.898,184.514 313.359,184.514 L157.425,184.514 C149.137,184.514 141.833,190.238 140.057,198.123 C131.368,236.794 118.466,293.144 107.688,340.205 C97.401,385.121 88.517,423.919 88.126,426.276 L82.609,447.408 L106.975,447.245 L409.559,447.245 C420.000,447.245 429.201,439.986 431.436,429.988 L481.868,206.640 C483.357,200.118 481.759,193.367 477.485,188.116 ZM391.713,141.478 L341.286,141.478 C339.746,141.478 338.497,140.229 338.497,138.688 L338.497,90.233 C338.497,88.794 339.592,87.590 341.027,87.453 L353.635,86.273 L366.498,86.264 C381.939,86.264 394.502,98.646 394.502,113.869 L394.502,138.688 C394.502,140.229 393.253,141.478 391.713,141.478 ZM388.925,113.869 C388.925,101.722 378.865,91.842 366.498,91.842 L353.894,91.842 L344.074,92.773 L344.074,135.899 L388.925,135.899 L388.925,113.869 Z" class="cls-1"/>
</svg>
