<svg xmlns="http://www.w3.org/2000/svg" xmlns:xlink="http://www.w3.org/1999/xlink" preserveAspectRatio="xMidYMid" width="500" height="500" viewBox="0 0 500 500">
  <defs>
    <style>
      .cls-1 {
        fill: #000;
        fill-rule: evenodd;
      }
    </style>
  </defs>
  <path d="M484.264,69.008 L440.315,113.050 C440.095,113.279 439.830,113.458 439.537,113.580 L389.501,135.206 L382.250,142.500 C414.355,180.224 432.017,228.085 432.017,277.539 C432.017,392.486 338.704,485.997 224.006,485.997 C109.309,485.997 15.996,392.486 15.996,277.539 C15.996,162.600 109.309,69.098 224.006,69.098 C273.264,69.098 320.930,86.725 358.539,118.769 L364.151,113.132 L387.649,61.517 C387.771,61.239 387.945,60.994 388.158,60.782 L432.106,16.741 C432.815,16.023 433.894,15.802 434.830,16.194 C435.767,16.586 436.373,17.499 436.373,18.511 L436.378,64.732 L482.497,64.732 C483.511,64.732 484.423,65.344 484.809,66.275 C485.196,67.213 484.980,68.290 484.264,69.008 ZM323.824,201.269 C340.745,223.424 349.697,249.736 349.697,277.539 C349.697,347.001 293.313,403.503 224.006,403.503 C154.696,403.503 98.311,347.001 98.311,277.539 C98.311,208.086 154.696,151.583 224.006,151.583 C251.742,151.583 277.986,160.544 300.086,177.485 L325.791,151.664 C297.000,128.250 260.982,115.351 224.006,115.351 C134.760,115.351 62.152,188.109 62.152,277.539 C62.152,366.977 134.760,439.735 224.006,439.735 C313.252,439.735 385.857,366.977 385.857,277.539 C385.857,240.428 372.952,204.287 349.520,175.422 L323.824,201.269 ZM224.006,321.018 C200.086,321.018 180.627,301.514 180.627,277.539 C180.627,253.572 200.086,234.077 224.006,234.077 C229.596,234.077 235.109,235.207 240.425,237.413 L267.081,210.638 C254.187,202.260 239.359,197.845 224.006,197.845 C180.151,197.845 144.467,233.595 144.467,277.539 C144.467,321.492 180.151,357.250 224.006,357.250 C267.861,357.250 303.545,321.492 303.545,277.539 C303.545,262.190 299.158,247.364 290.826,234.462 L264.146,261.299 C266.290,266.567 267.385,272.023 267.385,277.539 C267.385,301.514 247.927,321.018 224.006,321.018 ZM211.428,266.539 C211.676,266.255 211.917,265.968 212.186,265.699 L236.551,241.274 C232.455,239.822 228.253,239.087 224.006,239.087 C202.846,239.087 185.627,256.339 185.627,277.539 C185.627,298.748 202.846,316.007 224.006,316.007 C245.167,316.007 262.385,298.748 262.385,277.539 C262.385,273.366 261.666,269.232 260.269,265.199 L238.501,287.095 C236.584,289.127 231.714,294.293 224.006,294.293 C221.195,294.293 218.842,293.582 216.915,292.616 C215.175,291.835 213.555,290.769 212.170,289.380 C211.481,288.689 210.881,287.944 210.338,287.171 C208.395,284.761 206.840,280.726 206.954,276.560 C207.059,272.594 208.611,269.130 211.428,266.539 ZM308.546,277.539 C308.546,324.257 270.622,362.261 224.006,362.261 C177.390,362.261 139.467,324.257 139.467,277.539 C139.467,230.829 177.390,192.835 224.006,192.835 C240.683,192.835 256.780,197.732 270.689,207.014 L296.538,181.049 C275.424,165.039 250.411,156.594 224.006,156.594 C157.456,156.594 103.312,210.852 103.312,277.539 C103.312,344.234 157.456,398.493 224.006,398.493 C290.552,398.493 344.697,344.234 344.697,277.539 C344.697,251.067 336.262,225.996 320.279,204.836 L294.434,230.833 C303.672,244.764 308.546,260.859 308.546,277.539 ZM224.006,74.109 C112.066,74.109 20.996,165.367 20.996,277.539 C20.996,389.720 112.066,480.987 224.006,480.987 C335.947,480.987 427.017,389.720 427.017,277.539 C427.017,229.450 409.904,182.895 378.785,146.132 L353.122,171.853 C377.474,201.672 390.857,239.112 390.857,277.539 C390.857,369.736 316.009,444.746 224.006,444.746 C132.000,444.746 57.152,369.736 57.152,277.539 C57.152,185.343 132.000,110.341 224.006,110.341 C262.304,110.341 299.621,123.728 329.367,148.073 L354.999,122.325 C318.344,91.211 271.941,74.109 224.006,74.109 ZM433.877,69.743 C432.498,69.743 431.378,68.624 431.378,67.238 L431.373,24.566 L392.013,64.006 L368.601,115.433 C368.480,115.751 368.297,116.053 368.056,116.306 L368.052,116.314 L368.048,116.314 C368.052,116.331 368.024,116.346 368.007,116.355 L361.120,123.273 C360.995,123.569 360.818,123.843 360.585,124.075 L331.399,153.314 C331.212,153.502 330.996,153.644 330.769,153.759 L302.530,182.125 C302.424,182.307 302.301,182.481 302.149,182.634 L272.789,212.052 C272.737,212.104 272.671,212.127 272.616,212.174 L214.983,270.065 C214.965,270.081 214.951,270.098 214.933,270.115 C211.622,274.173 211.434,279.943 214.362,284.198 L214.662,284.516 C215.619,285.570 217.303,287.372 219.838,288.432 C224.032,289.949 229.052,289.089 232.288,285.846 C232.288,285.846 232.288,285.846 232.292,285.846 L259.328,258.754 C259.577,258.504 259.873,258.317 260.190,258.187 L288.937,229.268 C289.052,229.051 289.182,228.839 289.364,228.658 L318.721,199.240 C318.818,199.142 318.929,199.063 319.040,198.986 L386.012,131.615 C386.142,131.485 386.285,131.370 386.439,131.272 C386.655,131.060 386.883,130.880 387.074,130.798 L437.119,109.166 L476.459,69.743 L433.877,69.743 Z" class="cls-1"/>
</svg>
