<svg xmlns="http://www.w3.org/2000/svg" xmlns:xlink="http://www.w3.org/1999/xlink" preserveAspectRatio="xMidYMid" width="500" height="500" viewBox="0 0 500 500">
  <defs>
    <style>
      .cls-1 {
        fill: #000;
        fill-rule: evenodd;
      }
    </style>
  </defs>
  <path d="M251.011,126.809 C218.491,126.809 192.032,100.403 192.032,67.944 C192.032,35.457 218.491,9.032 251.011,9.032 C283.533,9.032 309.982,35.457 309.982,67.944 C309.982,100.403 283.533,126.809 251.011,126.809 ZM251.011,14.933 C221.753,14.933 197.940,38.714 197.940,67.944 C197.940,97.145 221.753,120.909 251.011,120.909 C280.271,120.909 304.074,97.145 304.074,67.944 C304.074,38.714 280.271,14.933 251.011,14.933 ZM251.155,162.803 C280.896,162.803 305.095,186.874 305.095,216.469 L305.095,438.327 C305.095,467.913 280.896,491.974 251.155,491.974 C221.416,491.974 197.217,467.913 197.217,438.327 L197.217,216.469 C197.217,186.874 221.416,162.803 251.155,162.803 ZM203.125,438.327 C203.125,464.656 224.677,486.074 251.155,486.074 C277.634,486.074 299.186,464.656 299.186,438.327 L299.186,216.469 C299.186,190.131 277.634,168.703 251.155,168.703 C224.677,168.703 203.125,190.131 203.125,216.469 L203.125,438.327 Z" class="cls-1"/>
</svg>
