<svg xmlns="http://www.w3.org/2000/svg" xmlns:xlink="http://www.w3.org/1999/xlink" preserveAspectRatio="xMidYMid" width="500" height="500" viewBox="0 0 500 500">
  <defs>
    <style>
      .cls-1 {
        fill: #000;
        fill-rule: evenodd;
      }
    </style>
  </defs>
  <path d="M470.312,300.930 L469.520,301.179 C458.819,304.590 450.113,305.466 449.747,305.505 C449.746,305.505 449.745,305.505 449.744,305.505 C434.826,307.659 412.962,308.739 391.264,308.739 C369.763,308.739 348.425,307.681 334.145,305.558 C330.076,305.272 323.133,304.336 316.704,302.623 C311.288,301.179 301.417,296.258 302.824,287.998 L304.832,276.170 C308.796,252.710 312.891,228.446 316.324,215.279 C316.334,215.241 316.360,215.208 316.372,215.171 C316.384,215.094 316.389,215.016 316.410,214.939 C319.006,205.627 339.617,201.027 357.794,196.962 L363.426,195.694 C364.144,195.511 364.861,195.766 365.335,196.275 C365.470,196.027 365.640,195.796 365.879,195.622 L369.189,193.146 C360.367,185.216 354.338,174.836 351.626,163.013 C347.617,162.046 343.247,157.589 343.247,151.617 C343.247,149.982 344.146,145.284 346.329,142.256 C345.448,136.588 345.406,121.184 345.406,121.014 C345.406,109.591 351.436,98.234 360.424,92.653 C361.268,92.182 379.216,82.426 401.219,80.191 C406.832,79.642 412.699,80.270 418.605,82.080 C419.757,82.433 420.751,82.779 421.399,83.060 C424.290,84.171 439.098,90.745 439.098,108.271 C439.098,108.467 439.072,108.656 439.013,108.847 C439.013,110.853 438.281,113.440 436.835,116.551 C436.535,118.322 435.920,122.511 436.011,124.406 C436.102,126.255 436.070,129.640 436.037,132.568 L436.011,136.469 C436.015,138.015 436.006,139.396 435.665,141.002 C438.390,143.369 440.236,147.699 440.014,151.591 C439.491,160.883 433.846,162.850 431.446,163.262 C429.047,174.846 422.908,185.194 414.370,192.442 L418.730,195.491 C419.062,195.722 419.290,196.043 419.453,196.393 C419.912,195.911 420.599,195.674 421.340,195.831 C423.348,196.276 425.480,196.733 427.698,197.210 C444.370,200.772 463.274,204.803 468.383,212.639 C468.454,212.747 468.739,213.366 468.844,214.092 C468.897,214.202 468.961,214.307 468.991,214.423 C473.308,230.204 479.698,264.172 483.865,288.463 C485.199,296.298 475.145,299.427 470.312,300.930 ZM392.408,296.811 L392.488,296.944 L403.064,278.425 L392.828,227.407 C392.619,226.343 392.946,225.251 393.710,224.474 C393.717,224.474 393.717,224.467 393.717,224.467 L396.721,221.479 L392.560,214.020 L391.506,215.842 L388.177,221.604 L391.428,224.134 C392.396,224.878 392.854,226.100 392.619,227.322 L384.866,267.185 C384.863,267.220 384.853,267.252 384.847,267.286 L382.409,279.819 L392.403,296.794 C392.406,296.799 392.405,296.806 392.408,296.811 ZM394.064,205.568 C393.646,205.940 393.122,206.130 392.598,206.130 C392.134,206.130 391.676,205.980 391.291,205.679 C390.179,204.791 388.930,203.634 387.601,202.405 C386.715,201.585 385.790,200.744 384.856,199.923 C382.195,199.364 379.780,198.565 377.677,197.715 L392.577,209.598 L405.417,198.027 C403.849,198.704 402.293,199.240 400.756,199.646 L394.064,205.568 ZM395.680,200.564 C394.554,200.676 393.444,200.732 392.357,200.732 C391.423,200.732 390.510,200.685 389.610,200.614 C390.673,201.597 391.684,202.534 392.598,203.287 L395.680,200.564 ZM319.020,221.180 C315.900,234.765 312.295,256.115 308.789,276.843 L306.788,288.678 C305.833,294.252 314.598,297.905 317.738,298.742 C323.208,300.200 329.060,301.068 333.029,301.443 C336.608,287.945 326.828,240.702 319.525,222.382 C319.357,221.978 319.188,221.565 319.020,221.180 ZM320.576,215.252 C320.602,215.296 320.629,215.352 320.655,215.396 C320.694,215.466 320.732,215.534 320.770,215.605 C321.537,216.951 322.346,218.692 323.178,220.756 C331.809,241.602 340.426,287.081 337.063,301.915 C350.886,303.762 370.441,304.697 390.227,304.729 C389.616,304.145 389.230,303.326 389.230,302.414 C389.230,301.035 390.108,299.867 391.332,299.414 C390.835,299.153 390.412,298.762 390.146,298.245 L390.104,298.175 C390.099,298.167 390.092,298.162 390.087,298.153 L389.703,297.501 L379.817,280.895 C379.729,280.746 379.674,280.584 379.648,280.419 L355.655,239.660 C355.381,239.183 355.420,238.588 355.760,238.157 L360.816,231.688 L350.540,224.532 C350.057,224.193 349.847,223.578 350.031,223.023 L357.129,201.228 C343.214,204.346 323.729,208.897 320.576,215.252 ZM363.207,199.856 L360.170,200.543 L352.889,222.905 L363.511,230.303 C363.812,230.512 364.015,230.838 364.073,231.204 C364.126,231.564 364.028,231.936 363.799,232.224 L358.429,239.085 L380.358,276.335 L382.157,267.085 L363.207,199.856 ZM383.293,261.242 L389.989,226.813 C390.028,226.597 389.956,226.381 389.786,226.251 L386.818,223.944 L381.172,233.701 C380.929,234.132 380.203,234.524 379.687,234.524 C379.661,234.524 379.635,234.524 379.609,234.517 C378.975,234.465 378.438,234.060 378.209,233.459 L366.188,200.557 L383.293,261.242 ZM367.900,197.452 L379.961,230.446 L390.180,212.793 L390.885,211.573 L370.562,195.465 L367.900,197.452 ZM419.881,86.778 C419.246,86.504 418.396,86.223 417.422,85.922 C412.032,84.262 406.734,83.661 401.625,84.191 C380.432,86.341 362.628,96.019 362.452,96.116 C354.818,100.861 349.422,111.088 349.422,120.923 C349.422,127.615 349.768,140.436 350.462,142.481 C350.868,143.677 351.404,145.344 351.894,146.866 C351.809,146.480 351.718,146.088 351.620,145.703 C351.070,143.402 350.495,141.030 351.928,139.279 C353.628,137.201 354.582,135.855 354.471,132.379 C354.374,128.915 356.401,127.471 357.879,126.412 C358.808,125.752 359.534,125.236 359.959,124.275 C361.202,121.458 362.190,120.609 363.661,119.557 C363.995,119.315 364.368,119.054 364.794,118.694 L365.709,117.878 C367.299,116.440 368.933,114.956 371.995,114.577 C372.682,114.486 373.342,114.270 374.035,114.055 C376.325,113.323 379.183,112.434 384.193,113.885 C386.653,114.584 388.092,113.950 390.087,113.055 C392.115,112.160 394.646,111.023 398.355,111.702 C404.503,112.767 410.790,112.669 413.641,111.421 C415.394,110.657 416.755,110.376 417.808,110.376 C419.515,110.376 420.418,111.108 420.869,111.709 C422.230,113.493 422.680,118.818 422.680,120.092 C422.680,121.739 423.943,129.908 425.277,132.522 C426.540,135.005 427.508,138.606 428.162,143.232 C428.273,143.964 428.300,145.004 428.319,146.134 C428.332,147.075 428.365,148.728 428.541,149.839 C428.594,149.591 428.640,149.342 428.685,149.114 C428.940,147.774 429.293,145.938 430.275,144.004 C432.008,140.625 432.001,139.155 431.995,136.482 L432.021,132.522 C432.048,129.686 432.086,126.399 431.995,124.602 C431.858,121.798 432.812,116.224 432.918,115.597 C432.950,115.420 433.009,115.251 433.081,115.080 C434.840,111.375 435.037,109.454 434.991,108.644 C434.978,108.408 435.011,108.173 435.082,107.944 C434.906,93.659 423.420,88.137 419.881,86.778 ZM427.868,162.132 C428.214,160.655 429.352,159.543 430.765,159.302 C432.970,158.923 435.671,157.243 435.998,151.369 C436.116,149.323 435.320,146.950 434.123,145.271 C434.033,145.459 433.959,145.631 433.859,145.827 C433.133,147.251 432.865,148.643 432.636,149.865 C432.270,151.787 431.766,154.420 428.784,154.682 C428.672,154.694 428.555,154.694 428.443,154.694 C427.580,154.694 426.788,154.394 426.147,153.819 C424.408,152.251 424.349,149.179 424.297,146.206 C424.283,145.271 424.276,144.422 424.185,143.808 C423.446,138.573 422.426,135.777 421.700,134.345 C419.927,130.881 418.665,122.106 418.665,120.092 C418.665,118.276 418.109,115.172 417.710,114.244 C417.599,114.368 416.814,114.414 415.256,115.100 C411.639,116.688 404.713,116.897 397.655,115.655 C395.169,115.211 393.561,115.910 391.722,116.727 C389.492,117.714 386.947,118.851 383.088,117.741 C379.223,116.636 377.293,117.237 375.246,117.884 C374.316,118.171 373.434,118.440 372.505,118.564 C370.693,118.786 369.784,119.609 368.410,120.851 L367.390,121.753 C366.866,122.197 366.416,122.524 366.003,122.818 C364.990,123.543 364.531,123.877 363.635,125.896 C362.772,127.863 361.353,128.869 360.215,129.679 C358.848,130.659 358.455,130.999 358.488,132.254 C358.638,137.025 357.088,139.318 355.040,141.814 C354.910,142.187 355.296,143.801 355.532,144.762 C355.976,146.604 356.473,148.689 356.140,150.728 C355.812,152.695 354.563,154.126 352.967,154.374 C351.875,154.531 350.344,154.106 349.448,152.336 C349.373,152.151 348.725,150.122 348.013,147.917 C347.521,149.451 347.263,150.932 347.263,151.617 C347.263,155.472 350.095,158.576 352.829,159.347 C354.223,159.753 355.230,160.785 355.538,162.105 C358.069,173.136 363.688,182.814 371.779,190.087 C372.452,190.584 391.435,204.706 410.417,190.492 C418.985,183.807 425.192,173.724 427.868,162.132 ZM413.026,194.773 L394.300,211.640 L399.565,221.043 C399.588,221.083 399.593,221.128 399.611,221.170 L404.824,230.505 L416.925,197.491 L413.026,194.773 ZM406.564,233.543 C406.387,234.027 405.707,234.563 405.197,234.615 C405.138,234.622 405.086,234.622 405.027,234.622 C404.451,234.622 403.901,234.315 403.601,233.812 L398.076,223.907 L395.614,226.362 C395.477,226.499 395.418,226.695 395.457,226.885 L402.152,260.252 L418.373,201.323 L406.564,233.543 ZM424.916,200.718 C423.754,200.471 422.622,200.226 421.520,199.983 L403.321,266.076 L405.249,275.686 L426.736,239.085 L421.588,232.518 C421.359,232.230 421.196,231.589 421.249,231.230 C421.313,230.779 421.569,230.368 421.935,230.100 L432.270,222.905 L424.916,200.718 ZM427.949,201.366 L435.043,222.768 C435.279,223.486 435.017,224.251 434.402,224.682 L424.335,231.688 L429.255,237.968 C429.686,238.556 429.719,239.282 429.385,239.863 L395.058,298.349 C394.998,298.452 394.925,298.542 394.845,298.622 C394.557,299.006 394.186,299.301 393.755,299.493 C394.872,299.995 395.653,301.112 395.653,302.414 C395.653,303.322 395.272,304.138 394.665,304.722 C413.889,304.621 432.944,303.666 446.791,301.859 C445.457,296.742 445.808,288.125 447.160,278.196 C449.881,255.800 457.811,227.818 463.769,216.211 C463.925,215.895 464.078,215.605 464.230,215.317 C464.239,215.300 464.248,215.283 464.257,215.266 C464.399,215.000 464.542,214.717 464.680,214.475 C460.320,208.411 441.941,204.363 427.949,201.366 ZM479.901,289.142 C475.032,260.706 469.882,234.619 466.324,220.170 C460.788,232.591 453.813,259.027 451.060,278.953 C449.963,288.012 449.768,296.013 451.016,301.296 C454.005,300.885 460.690,299.774 468.304,297.350 L469.115,297.095 C475.107,295.232 480.555,292.978 479.901,289.142 ZM291.090,271.073 C288.570,283.054 282.231,293.730 273.412,301.200 L277.969,304.387 C278.329,304.638 278.575,304.990 278.737,305.375 C279.197,304.854 279.908,304.586 280.670,304.767 L283.868,305.473 C301.614,309.380 323.703,314.242 329.295,322.815 C329.419,323.004 329.498,323.232 329.552,323.472 C329.623,323.605 329.696,323.738 329.734,323.881 C334.208,340.238 340.788,375.212 345.066,400.188 C346.439,408.206 336.117,411.422 331.160,412.970 L330.322,413.232 C319.301,416.734 310.333,417.649 309.954,417.688 C309.951,417.689 309.948,417.688 309.945,417.689 C294.576,419.907 272.054,421.015 249.692,421.015 C227.524,421.015 205.521,419.923 190.804,417.741 C190.803,417.741 190.803,417.740 190.803,417.740 C186.608,417.447 179.456,416.484 172.842,414.715 C167.276,413.238 157.137,408.206 158.583,399.717 L160.604,387.811 C164.705,363.515 168.950,338.388 172.502,324.763 C172.512,324.727 172.537,324.694 172.549,324.658 C172.561,324.580 172.566,324.501 172.587,324.423 C175.249,314.863 196.455,310.119 215.169,305.936 L221.003,304.623 C221.738,304.429 222.478,304.707 222.953,305.249 C223.084,304.980 223.257,304.729 223.508,304.538 L227.010,301.922 C227.008,301.920 226.996,301.912 226.994,301.911 C217.903,293.756 211.682,283.052 208.883,270.864 C204.729,269.825 200.249,265.251 200.249,259.128 C200.249,257.447 201.173,252.608 203.425,249.499 C202.516,243.694 202.473,227.767 202.473,227.591 C202.473,215.841 208.680,204.150 217.922,198.406 C218.792,197.929 237.290,187.872 259.948,185.572 C265.750,184.996 271.774,185.643 277.844,187.519 C279.035,187.885 280.055,188.238 280.729,188.532 C283.692,189.669 298.926,196.439 298.926,214.456 C298.926,214.652 298.900,214.841 298.841,215.030 C298.841,217.095 298.088,219.762 296.597,222.964 C296.283,224.787 295.642,229.120 295.740,231.086 C295.838,232.988 295.799,236.478 295.766,239.497 L295.740,243.522 C295.747,245.123 295.737,246.549 295.381,248.209 C298.193,250.630 300.096,255.095 299.868,259.102 C299.331,268.629 293.549,270.649 291.090,271.073 ZM272.114,303.558 L252.779,320.973 L263.670,340.545 L276.183,306.400 L272.114,303.558 ZM252.537,314.712 C252.112,315.085 251.582,315.275 251.059,315.275 C250.581,315.275 250.117,315.118 249.725,314.811 C248.593,313.909 247.311,312.720 245.950,311.458 C245.020,310.595 244.050,309.715 243.069,308.856 C240.208,308.253 237.618,307.384 235.388,306.463 L251.014,318.928 C251.021,318.934 251.025,318.943 251.033,318.949 C251.038,318.945 251.040,318.939 251.046,318.934 L264.546,306.773 C262.838,307.530 261.143,308.127 259.471,308.571 L252.537,314.712 ZM254.376,309.507 C253.167,309.632 251.976,309.694 250.810,309.694 C249.796,309.694 248.808,309.638 247.833,309.556 C248.986,310.619 250.077,311.630 251.059,312.445 L254.376,309.507 ZM246.447,331.278 L249.822,333.906 C250.817,334.676 251.281,335.924 251.039,337.153 L243.045,378.249 C243.042,378.279 243.034,378.305 243.029,378.335 L240.511,391.278 L250.823,408.794 C250.826,408.800 250.826,408.805 250.829,408.811 L250.908,408.944 L261.884,389.844 L251.334,337.245 C251.111,336.153 251.451,335.036 252.243,334.251 L255.355,331.143 L251.018,323.369 L250.341,324.539 L246.447,331.278 ZM265.416,343.564 C265.167,344.198 264.625,344.596 263.984,344.642 C263.958,344.642 263.938,344.648 263.918,344.648 C263.402,344.648 262.676,344.244 262.427,343.818 L256.711,333.573 L254.140,336.146 C254.140,336.146 254.133,336.146 254.133,336.153 C253.983,336.297 253.918,336.513 253.963,336.715 L260.895,371.277 L277.923,309.438 L265.416,343.564 ZM283.005,309.393 L280.842,308.918 L262.063,377.101 L264.074,387.130 L286.289,349.288 L280.971,342.492 C280.736,342.198 280.572,341.525 280.630,341.159 C280.709,340.702 280.958,340.309 281.337,340.048 L291.999,332.631 L284.390,309.699 C283.922,309.595 283.460,309.494 283.005,309.393 ZM311.223,413.480 C314.278,413.062 321.211,411.918 329.105,409.402 L329.963,409.134 C334.129,407.833 341.881,405.422 341.102,400.868 C336.930,376.495 331.190,346.311 327.056,329.585 C321.381,342.190 314.157,369.512 311.284,390.171 C310.126,399.631 309.914,407.990 311.223,413.480 ZM253.052,417.003 C272.949,416.903 292.682,415.916 306.991,414.042 C305.575,408.716 305.958,399.647 307.404,389.203 C310.240,366.332 318.280,337.952 324.364,325.945 C324.678,325.303 324.987,324.698 325.286,324.162 C319.963,318.060 301.686,313.562 287.435,310.375 L294.766,332.481 C295.008,333.173 294.746,333.970 294.125,334.409 L283.712,341.656 L288.807,348.164 C289.238,348.713 289.291,349.458 288.938,350.066 L253.557,410.350 C253.496,410.454 253.422,410.547 253.339,410.628 C253.028,411.044 252.621,411.357 252.151,411.549 C253.333,412.041 254.166,413.206 254.166,414.565 C254.166,415.539 253.730,416.404 253.052,417.003 ZM175.197,330.651 C171.939,344.792 168.198,366.965 164.561,388.477 L162.547,400.397 C161.552,406.200 170.618,409.971 173.876,410.833 C179.537,412.345 185.605,413.245 189.699,413.626 C193.411,399.831 183.439,351.465 175.911,332.339 C175.673,331.761 175.435,331.191 175.197,330.651 ZM176.753,324.724 C177.618,326.174 178.541,328.157 179.491,330.519 C188.368,352.031 197.239,398.915 193.737,414.099 C208.018,416.014 228.269,416.981 248.747,417.010 C248.065,416.411 247.625,415.543 247.625,414.565 C247.625,413.121 248.570,411.909 249.871,411.477 C249.325,411.214 248.857,410.802 248.567,410.245 L248.525,410.175 C248.520,410.167 248.513,410.162 248.508,410.154 L248.126,409.506 L237.918,392.359 C237.829,392.208 237.774,392.044 237.748,391.876 L213.017,349.863 C212.742,349.387 212.781,348.792 213.121,348.360 L218.361,341.649 L207.731,334.251 C207.248,333.912 207.038,333.298 207.221,332.742 L214.564,310.188 C200.191,313.406 179.977,318.119 176.753,324.724 ZM220.785,308.785 L217.604,309.504 L210.080,332.625 L221.056,340.264 C221.356,340.473 221.559,340.799 221.618,341.159 C221.670,341.525 221.572,341.897 221.343,342.185 L215.790,349.288 L238.460,387.794 L240.336,378.147 L220.785,308.785 ZM223.493,308.520 L241.473,372.305 L248.410,336.644 C248.455,336.408 248.364,336.166 248.174,336.023 L245.087,333.619 L239.246,343.714 C238.945,344.237 238.409,344.544 237.820,344.544 C237.768,344.544 237.722,344.544 237.670,344.537 C237.035,344.485 236.485,344.061 236.263,343.466 L223.493,308.520 ZM225.549,306.355 L238.023,340.486 L248.330,322.674 L249.325,320.953 L228.342,304.270 L225.549,306.355 ZM279.198,192.244 C278.537,191.950 277.661,191.662 276.654,191.349 C271.094,189.636 265.593,189.015 260.354,189.571 C238.533,191.780 220.133,201.772 219.950,201.869 C212.062,206.777 206.489,217.338 206.489,227.492 C206.489,234.393 206.848,247.613 207.562,249.731 C208.065,251.233 208.778,253.442 209.360,255.239 C209.236,254.521 209.053,253.769 208.876,253.024 C208.307,250.665 207.725,248.228 209.183,246.444 C210.943,244.300 211.931,242.908 211.813,239.294 C211.721,235.759 213.795,234.282 215.306,233.204 C216.268,232.518 217.026,231.976 217.471,230.975 C218.746,228.080 219.760,227.211 221.271,226.127 C221.618,225.878 221.997,225.611 222.436,225.238 L223.397,224.389 C225.019,222.918 226.701,221.402 229.827,221.010 C230.540,220.918 231.220,220.696 231.940,220.467 C234.295,219.723 237.219,218.814 242.379,220.297 C244.930,221.017 246.428,220.356 248.495,219.441 C250.575,218.520 253.185,217.364 256.979,218.043 C263.330,219.160 269.812,219.043 272.768,217.749 C274.567,216.965 275.961,216.677 277.040,216.677 C278.773,216.677 279.689,217.422 280.147,218.030 C281.540,219.853 282.004,225.329 282.004,226.636 C282.004,228.335 283.305,236.778 284.686,239.477 C285.982,242.026 286.982,245.731 287.656,250.495 C287.767,251.246 287.793,252.318 287.813,253.488 C287.832,254.546 287.865,256.474 288.101,257.611 C288.179,257.278 288.257,256.886 288.316,256.566 C288.578,255.187 288.938,253.299 289.951,251.312 C291.737,247.822 291.731,246.208 291.724,243.536 L291.750,239.451 C291.783,236.523 291.816,233.139 291.724,231.282 C291.580,228.401 292.568,222.657 292.679,222.010 C292.711,221.833 292.770,221.657 292.843,221.493 C294.661,217.664 294.864,215.671 294.818,214.822 C294.804,214.593 294.837,214.357 294.910,214.129 C294.733,199.366 282.855,193.649 279.198,192.244 ZM293.857,252.458 C293.749,252.685 293.658,252.896 293.536,253.135 C292.784,254.612 292.509,256.049 292.267,257.318 C291.888,259.278 291.377,261.957 288.349,262.225 C288.231,262.238 288.120,262.238 288.009,262.238 C287.126,262.238 286.328,261.937 285.674,261.349 C283.901,259.755 283.849,256.605 283.797,253.554 C283.783,252.593 283.770,251.704 283.678,251.070 C282.914,245.666 281.860,242.777 281.108,241.300 C279.316,237.804 277.988,228.642 277.988,226.636 C277.988,224.624 277.328,221.102 276.915,220.415 C277.059,220.651 276.143,220.657 274.377,221.428 C270.656,223.055 263.546,223.284 256.279,221.996 C253.662,221.507 252.034,222.258 250.130,223.108 C247.834,224.134 245.218,225.290 241.274,224.153 C237.270,223.010 235.178,223.657 233.143,224.297 C232.195,224.597 231.292,224.866 230.337,224.996 C228.460,225.231 227.518,226.081 226.092,227.368 L225.033,228.303 C224.496,228.754 224.031,229.087 223.613,229.387 C222.560,230.145 222.076,230.492 221.147,232.596 C220.258,234.609 218.806,235.641 217.641,236.471 C216.235,237.471 215.796,237.857 215.829,239.176 C215.986,244.072 214.397,246.423 212.297,248.985 C212.134,249.384 212.539,251.076 212.787,252.089 C213.239,253.978 213.756,256.115 213.409,258.200 C213.082,260.206 211.820,261.657 210.191,261.911 C209.072,262.061 207.541,261.624 206.633,259.840 C206.556,259.651 205.856,257.460 205.101,255.123 C204.553,256.773 204.265,258.393 204.265,259.128 C204.265,263.127 207.208,266.355 210.047,267.165 C211.453,267.570 212.480,268.610 212.794,269.955 C215.411,281.346 221.206,291.325 229.559,298.820 C230.265,299.342 249.849,313.928 269.459,299.251 C278.309,292.344 284.719,281.941 287.472,269.981 C287.806,268.492 288.964,267.368 290.403,267.113 C292.705,266.721 295.511,264.970 295.852,258.879 C295.976,256.679 295.139,254.194 293.857,252.458 ZM184.655,300.930 L183.864,301.179 C173.163,304.590 164.457,305.466 164.090,305.505 C164.089,305.505 164.088,305.505 164.088,305.505 C149.170,307.659 127.305,308.739 105.608,308.739 C84.106,308.739 62.768,307.681 48.489,305.558 C44.426,305.272 37.489,304.336 31.047,302.623 C25.631,301.179 15.767,296.258 17.167,288.005 L19.149,276.327 C23.119,252.802 27.234,228.479 30.668,215.279 C30.679,215.232 30.711,215.191 30.727,215.145 C30.738,215.079 30.741,215.011 30.760,214.945 C33.350,205.627 53.960,201.027 72.137,196.962 L77.769,195.694 C78.478,195.511 79.201,195.766 79.679,196.275 C79.813,196.028 79.982,195.797 80.222,195.622 L83.532,193.146 C74.709,185.216 68.681,174.836 65.969,163.013 C61.960,162.046 57.590,157.589 57.590,151.617 C57.590,149.982 58.489,145.284 60.671,142.255 C59.792,136.587 59.749,121.184 59.749,121.014 C59.749,109.598 65.780,98.240 74.767,92.653 C75.611,92.182 93.566,82.426 115.563,80.191 C121.175,79.642 127.043,80.270 132.949,82.080 C134.100,82.433 135.094,82.779 135.742,83.060 C138.632,84.171 153.442,90.745 153.442,108.271 C153.442,108.460 153.416,108.644 153.363,108.827 C153.363,110.853 152.631,113.447 151.185,116.551 C150.884,118.322 150.263,122.511 150.354,124.406 C150.446,126.255 150.413,129.640 150.380,132.568 L150.354,136.469 C150.358,138.018 150.349,139.398 150.009,141.003 C152.734,143.370 154.579,147.700 154.357,151.591 C153.834,160.883 148.196,162.844 145.795,163.262 C143.391,174.846 137.251,185.194 128.713,192.442 L133.073,195.491 C133.408,195.724 133.637,196.047 133.800,196.400 C134.261,195.914 134.954,195.673 135.690,195.831 L138.881,196.537 C156.071,200.328 177.467,205.045 182.895,213.371 C183.013,213.551 183.092,213.767 183.147,213.995 C183.222,214.134 183.295,214.274 183.334,214.423 C187.651,230.204 194.041,264.172 198.208,288.463 C199.542,296.298 189.489,299.427 184.655,300.930 ZM106.766,296.836 L106.831,296.944 L117.408,278.425 L107.171,227.407 C106.961,226.343 107.289,225.251 108.054,224.474 L108.061,224.467 L111.064,221.479 L106.902,214.018 L102.520,221.604 L105.771,224.134 C106.746,224.892 107.204,226.114 106.961,227.336 L99.209,267.188 C99.206,267.220 99.197,267.249 99.191,267.281 L96.754,279.811 L106.752,296.794 C106.760,296.807 106.759,296.823 106.766,296.836 ZM108.407,205.568 C107.988,205.940 107.465,206.130 106.942,206.130 C106.478,206.130 106.020,205.980 105.634,205.679 C104.522,204.791 103.272,203.634 101.945,202.405 C101.058,201.585 100.133,200.744 99.199,199.923 C96.537,199.364 94.123,198.565 92.019,197.715 L106.922,209.600 C106.922,209.600 106.923,209.601 106.923,209.601 L119.763,198.025 C118.195,198.703 116.637,199.240 115.099,199.646 L108.407,205.568 ZM110.023,200.564 C108.897,200.676 107.787,200.732 106.700,200.732 C105.766,200.732 104.853,200.685 103.953,200.614 C105.016,201.597 106.027,202.534 106.942,203.287 L110.023,200.564 ZM33.362,221.180 C30.242,234.798 26.619,256.213 23.106,277.000 L21.131,288.678 C20.183,294.252 28.941,297.905 32.080,298.742 C37.557,300.200 43.410,301.068 47.373,301.443 C50.936,288.021 41.287,241.236 33.998,222.694 C33.786,222.178 33.574,221.664 33.362,221.180 ZM34.926,215.252 C35.828,216.771 36.794,218.879 37.788,221.410 C46.328,242.538 54.735,287.234 51.406,301.915 C65.227,303.762 84.783,304.697 104.571,304.729 C103.959,304.145 103.573,303.326 103.573,302.414 C103.573,301.035 104.451,299.868 105.675,299.414 C105.182,299.154 104.760,298.765 104.489,298.252 L94.161,280.895 C94.071,280.743 94.017,280.577 93.991,280.408 L70.005,239.660 C69.730,239.183 69.769,238.588 70.110,238.157 L75.159,231.688 L64.884,224.532 C64.399,224.193 64.190,223.578 64.373,223.023 L71.472,201.227 C57.557,204.339 38.078,208.897 34.926,215.252 ZM77.550,199.856 L74.513,200.543 L67.232,222.905 L77.854,230.303 C78.155,230.512 78.358,230.838 78.417,231.197 C78.469,231.564 78.371,231.936 78.142,232.224 L72.778,239.085 L94.703,276.327 L96.500,267.085 L77.550,199.856 ZM97.636,261.243 L104.332,226.813 C104.378,226.591 104.300,226.381 104.129,226.251 L101.160,223.943 L95.515,233.701 C95.273,234.132 94.553,234.524 94.043,234.524 C94.017,234.524 93.997,234.524 93.971,234.517 C93.337,234.471 92.781,234.060 92.552,233.459 L80.528,200.546 L97.636,261.243 ZM82.250,197.452 L94.305,230.446 L104.455,212.909 L105.228,211.573 L84.906,195.465 L82.250,197.452 ZM134.224,86.778 C133.590,86.504 132.740,86.223 131.765,85.922 C126.375,84.262 121.077,83.661 115.968,84.191 C94.782,86.341 76.971,96.019 76.795,96.116 C69.161,100.868 63.765,111.088 63.765,120.923 C63.765,127.615 64.112,140.436 64.805,142.481 C65.210,143.677 65.747,145.344 66.237,146.866 C66.152,146.480 66.061,146.088 65.963,145.703 C65.413,143.402 64.838,141.030 66.270,139.279 C67.970,137.201 68.926,135.855 68.814,132.379 C68.717,128.915 70.744,127.471 72.229,126.412 C73.151,125.752 73.884,125.229 74.309,124.275 C75.552,121.452 76.539,120.609 78.005,119.551 C78.338,119.315 78.711,119.047 79.136,118.694 L80.065,117.864 C81.655,116.434 83.289,114.956 86.338,114.577 C87.025,114.486 87.685,114.270 88.379,114.055 C90.668,113.323 93.526,112.434 98.537,113.885 C100.996,114.584 102.435,113.950 104.430,113.055 C106.458,112.160 108.976,111.023 112.698,111.702 C118.853,112.767 125.132,112.669 127.984,111.421 C129.737,110.657 131.097,110.376 132.151,110.376 C133.858,110.376 134.760,111.108 135.212,111.709 C136.572,113.493 137.024,118.818 137.024,120.092 C137.024,121.739 138.286,129.908 139.620,132.522 C140.883,135.005 141.851,138.606 142.505,143.232 C142.616,143.964 142.643,145.010 142.662,146.154 C142.681,147.088 142.707,148.735 142.891,149.839 C142.943,149.597 142.989,149.342 143.028,149.120 C143.290,147.774 143.636,145.938 144.625,143.997 C146.351,140.625 146.345,139.155 146.338,136.482 L146.364,132.522 C146.390,129.686 146.430,126.399 146.338,124.602 C146.201,121.798 147.162,116.224 147.267,115.597 C147.300,115.420 147.359,115.244 147.430,115.080 C149.183,111.388 149.379,109.461 149.340,108.637 C149.334,108.428 149.353,108.219 149.406,108.023 L149.425,108.023 C149.294,93.679 137.769,88.137 134.224,86.778 ZM142.211,162.132 C142.558,160.655 143.695,159.543 145.121,159.302 C147.319,158.923 150.015,157.237 150.341,151.369 C150.459,149.325 149.664,146.955 148.470,145.276 C148.380,145.462 148.308,145.632 148.209,145.827 C147.476,147.251 147.215,148.643 146.979,149.872 C146.612,151.793 146.109,154.420 143.126,154.682 C143.015,154.694 142.898,154.694 142.787,154.694 C141.922,154.694 141.131,154.394 140.490,153.819 C138.751,152.257 138.698,149.193 138.646,146.226 C138.627,145.291 138.620,144.428 138.528,143.814 C137.789,138.573 136.769,135.777 136.042,134.345 C134.270,130.881 133.008,122.106 133.008,120.092 C133.008,118.276 132.452,115.172 132.053,114.244 C131.941,114.368 131.156,114.414 129.600,115.100 C125.976,116.688 119.056,116.897 111.998,115.655 C109.499,115.211 107.903,115.910 106.065,116.727 C103.835,117.714 101.290,118.851 97.431,117.741 C93.572,116.636 91.636,117.237 89.589,117.884 C88.660,118.171 87.777,118.440 86.848,118.564 C85.043,118.786 84.133,119.603 82.760,120.844 L81.733,121.753 C81.210,122.197 80.765,122.517 80.353,122.811 C79.339,123.543 78.881,123.870 77.985,125.896 C77.115,127.863 75.696,128.869 74.557,129.679 C73.190,130.659 72.798,130.999 72.830,132.254 C72.981,137.025 71.431,139.318 69.384,141.814 C69.253,142.187 69.639,143.801 69.874,144.762 C70.319,146.604 70.816,148.689 70.482,150.728 C70.155,152.695 68.906,154.126 67.310,154.374 C66.218,154.531 64.687,154.106 63.791,152.336 C63.717,152.151 63.068,150.122 62.356,147.917 C61.864,149.451 61.606,150.932 61.606,151.617 C61.606,155.472 64.439,158.576 67.173,159.347 C68.566,159.753 69.574,160.785 69.881,162.105 C72.412,173.136 78.031,182.814 86.122,190.087 C86.803,190.590 105.804,204.699 124.759,190.492 C133.328,183.807 139.535,173.724 142.211,162.132 ZM127.369,194.773 L108.645,211.644 L113.908,221.043 C113.926,221.075 113.930,221.111 113.945,221.144 L119.174,230.512 L131.267,197.491 L127.369,194.773 ZM120.913,233.543 C120.737,234.034 120.037,234.569 119.520,234.615 C119.468,234.622 119.422,234.622 119.376,234.622 C118.794,234.622 118.245,234.315 117.944,233.812 L112.419,223.907 L109.958,226.362 C109.820,226.499 109.761,226.695 109.801,226.885 L116.495,260.253 L132.717,201.320 L120.913,233.543 ZM138.012,200.458 L135.863,199.984 L117.664,266.077 L119.592,275.688 L141.080,239.085 L135.938,232.518 C135.715,232.237 135.539,231.603 135.591,231.244 C135.650,230.786 135.905,230.368 136.278,230.100 L146.612,222.905 L139.265,200.735 C138.848,200.643 138.418,200.547 138.012,200.458 ZM142.307,201.411 L149.386,222.768 C149.622,223.486 149.360,224.251 148.745,224.682 L138.685,231.688 L143.597,237.968 C144.029,238.556 144.062,239.282 143.728,239.863 L109.402,298.349 C109.339,298.456 109.264,298.550 109.180,298.632 C108.893,299.011 108.526,299.303 108.099,299.492 C109.215,299.995 109.996,301.112 109.996,302.414 C109.996,303.322 109.615,304.138 109.008,304.722 C128.233,304.621 147.290,303.666 161.134,301.859 C159.788,296.706 160.152,288.008 161.527,277.992 C164.261,255.731 172.105,228.029 178.034,216.368 C178.324,215.777 178.609,215.221 178.886,214.723 C173.718,208.840 156.076,204.490 142.307,201.411 ZM194.244,289.142 C189.370,260.704 184.220,234.609 180.669,220.165 C175.147,232.550 168.194,258.881 165.425,278.791 C164.311,287.916 164.105,295.981 165.359,301.296 C168.349,300.885 175.033,299.774 182.647,297.350 L183.458,297.095 C189.450,295.232 194.898,292.978 194.244,289.142 Z" class="cls-1"/>
</svg>
