<svg xmlns="http://www.w3.org/2000/svg" xmlns:xlink="http://www.w3.org/1999/xlink" preserveAspectRatio="xMidYMid" width="500" height="500" viewBox="0 0 500 500">
  <defs>
    <style>
      .cls-1 {
        fill: #000;
        fill-rule: evenodd;
      }
    </style>
  </defs>
  <path d="M347.213,319.499 C308.662,370.731 264.968,428.801 252.796,494.073 C252.591,495.179 251.674,495.911 250.499,495.980 C249.388,495.980 248.426,495.197 248.209,494.107 C235.607,431.559 194.651,376.440 155.048,323.138 C116.450,271.199 79.999,222.135 79.999,175.310 C79.999,81.954 156.485,6.008 250.499,6.008 C344.509,6.008 420.991,81.954 420.991,175.310 C420.987,221.459 385.156,269.079 347.213,319.499 ZM250.499,10.673 C159.060,10.673 84.670,84.529 84.670,175.310 C84.670,220.593 120.680,269.053 158.801,320.357 C194.766,368.764 235.272,423.278 250.419,482.787 C265.204,420.717 306.669,365.614 343.478,316.695 C380.933,266.918 416.316,219.902 416.320,175.310 C416.320,84.529 341.933,10.673 250.499,10.673 ZM250.499,304.274 C176.497,304.274 116.295,244.506 116.295,171.036 C116.295,97.536 176.497,37.738 250.499,37.738 C324.497,37.738 384.696,97.536 384.696,171.036 C384.696,244.506 324.497,304.274 250.499,304.274 ZM250.499,42.403 C179.075,42.403 120.966,100.108 120.966,171.036 C120.966,241.931 179.075,299.609 250.499,299.609 C321.919,299.609 380.024,241.931 380.024,171.036 C380.024,100.108 321.919,42.403 250.499,42.403 ZM250.499,240.506 C211.910,240.506 180.517,209.334 180.517,171.021 C180.517,132.693 211.910,101.510 250.499,101.510 C289.084,101.510 320.473,132.693 320.473,171.021 C320.473,209.334 289.084,240.506 250.499,240.506 ZM250.499,106.175 C214.488,106.175 185.188,135.264 185.188,171.021 C185.188,206.763 214.488,235.841 250.499,235.841 C286.505,235.841 315.802,206.763 315.802,171.021 C315.802,135.264 286.505,106.175 250.499,106.175 Z" class="cls-1"/>
</svg>
