<svg xmlns="http://www.w3.org/2000/svg" xmlns:xlink="http://www.w3.org/1999/xlink" preserveAspectRatio="xMidYMid" width="500" height="500" viewBox="0 0 500 500">
  <defs>
    <style>
      .cls-1 {
        stroke: "current"
        fill: "current";
        fill-rule: evenodd;
      }
    </style>
  </defs>
  <path d="M484.494,382.788 C484.149,382.948 483.778,383.024 483.416,383.024 C482.810,383.024 482.212,382.814 481.731,382.401 L337.225,258.321 C336.652,257.833 336.323,257.117 336.323,256.360 C336.323,255.603 336.652,254.888 337.225,254.400 L481.731,130.328 C482.498,129.671 483.576,129.512 484.494,129.941 C485.413,130.362 486.002,131.278 486.002,132.288 L486.002,380.441 C486.002,381.451 485.413,382.367 484.494,382.788 ZM480.830,137.918 L342.877,256.360 L480.830,374.812 L480.830,137.918 ZM252.188,320.744 C251.708,321.156 251.101,321.366 250.504,321.366 C249.905,321.366 249.299,321.156 248.819,320.744 L15.897,120.761 C15.325,120.273 14.996,119.558 14.996,118.801 L14.996,108.570 C14.996,107.139 16.150,105.986 17.583,105.986 L483.416,105.986 C484.849,105.986 486.002,107.139 486.002,108.570 L486.002,118.801 C486.002,119.558 485.674,120.273 485.100,120.761 L252.188,320.744 ZM480.830,111.152 L20.169,111.152 L20.169,117.614 L250.504,315.375 L480.830,117.614 L480.830,111.152 ZM19.267,130.328 L163.783,254.400 C164.355,254.888 164.684,255.603 164.684,256.360 C164.684,257.117 164.355,257.833 163.783,258.321 L19.267,382.401 C18.787,382.814 18.189,383.024 17.583,383.024 C17.220,383.024 16.850,382.948 16.504,382.788 C15.586,382.367 14.996,381.451 14.996,380.441 L14.996,132.288 C14.996,131.278 15.586,130.362 16.504,129.941 C17.431,129.512 18.500,129.671 19.267,130.328 ZM20.169,374.812 L158.130,256.360 L20.169,137.918 L20.169,374.812 ZM168.264,261.139 C169.224,260.315 170.673,260.315 171.633,261.139 L250.504,328.855 L329.365,261.148 C330.325,260.324 331.775,260.324 332.735,261.148 L483.315,390.445 C484.140,391.152 484.435,392.288 484.057,393.306 C483.677,394.315 482.709,394.989 481.630,394.989 L19.360,394.989 C18.282,394.989 17.313,394.315 16.934,393.306 C16.555,392.288 16.850,391.152 17.675,390.445 L168.264,261.139 ZM474.647,389.822 L331.050,266.516 L252.188,334.222 C251.228,335.047 249.779,335.047 248.819,334.222 L169.949,266.508 L26.343,389.822 L474.647,389.822 Z" class="cls-1"/>
</svg>
