<svg xmlns="http://www.w3.org/2000/svg" xmlns:xlink="http://www.w3.org/1999/xlink" preserveAspectRatio="xMidYMid" width="500" height="500" viewBox="0 0 500 500">
  <defs>
    <style>
      .cls-1 {
        fill: #000;
        fill-rule: evenodd;
      }
    </style>
  </defs>
  <path d="M485.779,202.675 L443.590,465.554 C443.496,466.133 443.227,466.637 442.856,467.037 C441.975,470.529 440.345,473.821 437.993,476.630 C433.567,481.946 427.138,484.997 420.356,484.997 L77.297,484.997 C62.729,484.997 50.540,474.273 48.314,459.489 L15.268,238.542 C14.231,231.693 16.174,224.740 20.609,219.472 C24.588,214.658 30.413,211.738 36.753,211.343 L34.466,197.476 C33.497,191.669 34.277,185.638 36.558,180.301 L36.558,48.472 C36.558,30.578 48.346,16.023 62.840,16.023 L390.839,16.023 C405.332,16.023 417.121,30.578 417.121,48.472 L417.121,176.113 L463.606,176.113 C470.020,176.113 476.208,179.107 480.582,184.325 C484.794,189.357 486.685,196.043 485.779,202.675 ZM42.285,216.002 C41.745,216.639 40.946,217.007 40.109,217.007 L38.240,217.007 C33.039,217.007 28.213,219.239 24.992,223.137 C21.604,227.163 20.125,232.460 20.915,237.691 L53.967,458.644 C55.765,470.603 65.578,479.286 77.297,479.286 L420.356,479.286 C425.437,479.286 430.267,476.984 433.609,472.971 C436.966,468.958 438.462,463.680 437.724,458.481 L405.379,232.335 C404.082,223.453 396.770,217.007 387.985,217.007 L224.166,217.007 C223.311,217.007 222.502,216.626 221.959,215.965 L192.208,179.707 C186.309,172.560 177.677,168.291 169.114,168.291 L62.682,168.291 C56.045,168.291 49.671,171.435 45.195,176.908 C40.844,182.242 38.942,189.580 40.100,196.541 L42.926,213.687 C43.066,214.515 42.829,215.361 42.285,216.002 ZM411.413,48.472 C411.413,33.732 402.181,21.734 390.839,21.734 L62.840,21.734 C51.498,21.734 42.266,33.732 42.266,48.472 L42.266,171.609 C47.722,165.847 55.044,162.581 62.682,162.581 L169.114,162.581 C179.513,162.581 189.540,167.496 196.620,176.076 L225.519,211.296 L387.985,211.296 C399.633,211.296 409.326,219.802 411.032,231.520 L411.032,231.525 L411.413,234.189 L411.413,48.472 ZM476.204,187.994 C472.917,184.074 468.324,181.823 463.606,181.823 L417.121,181.823 L417.121,274.102 L441.345,443.474 L480.127,201.837 C480.810,196.863 479.383,191.793 476.204,187.994 ZM394.957,167.040 L243.179,167.040 C241.604,167.040 240.325,165.761 240.325,164.185 C240.325,162.608 241.604,161.329 243.179,161.329 L394.957,161.329 C396.533,161.329 397.811,162.608 397.811,164.185 C397.811,165.761 396.533,167.040 394.957,167.040 ZM394.855,134.070 L69.535,134.070 C67.958,134.070 66.681,132.791 66.681,131.214 C66.681,129.638 67.958,128.359 69.535,128.359 L394.855,128.359 C396.431,128.359 397.708,129.638 397.708,131.214 C397.708,132.791 396.431,134.070 394.855,134.070 ZM394.855,109.539 L69.535,109.539 C67.958,109.539 66.681,108.261 66.681,106.684 C66.681,105.108 67.958,103.829 69.535,103.829 L394.855,103.829 C396.431,103.829 397.708,105.108 397.708,106.684 C397.708,108.261 396.431,109.539 394.855,109.539 ZM322.561,81.071 L141.828,81.071 C140.252,81.071 138.973,79.792 138.973,78.216 C138.973,76.639 140.252,75.361 141.828,75.361 L322.561,75.361 C324.137,75.361 325.415,76.639 325.415,78.216 C325.415,79.792 324.137,81.071 322.561,81.071 Z" class="cls-1"/>
</svg>
