<svg xmlns="http://www.w3.org/2000/svg" xmlns:xlink="http://www.w3.org/1999/xlink" preserveAspectRatio="xMidYMid" width="500" height="500" viewBox="0 0 500 500">
  <defs>
    <style>
      .cls-1 {
        fill: #000;
        fill-rule: evenodd;
      }
    </style>
  </defs>
  <path d="M213.076,486.986 C211.849,486.986 210.623,486.813 209.423,486.467 C203.845,484.850 199.961,479.678 199.961,473.874 L202.093,329.576 C202.084,329.369 202.067,327.743 202.472,326.359 C202.568,326.039 202.723,325.736 202.930,325.468 L301.452,199.826 C255.847,236.618 206.816,276.273 154.373,319.093 C153.829,319.535 153.181,319.760 152.431,319.682 L126.451,317.062 L34.630,291.529 C29.561,290.128 25.840,285.847 25.149,280.633 C24.459,275.426 26.936,270.332 31.461,267.651 L456.207,15.856 C460.558,13.270 466.032,13.443 470.210,16.262 C474.389,19.056 476.609,24.089 475.866,29.080 L422.732,381.556 C422.171,385.258 420.039,388.553 416.888,390.603 C413.744,392.636 409.867,393.266 406.233,392.246 L299.500,362.571 C299.431,362.780 299.337,362.978 299.216,363.169 L224.127,480.923 C221.718,484.720 217.582,486.986 213.076,486.986 ZM207.480,328.280 C207.411,328.712 207.385,329.239 207.394,329.559 L205.262,473.917 C205.262,477.325 207.575,480.404 210.882,481.364 C214.223,482.324 217.832,480.941 219.654,478.069 L293.379,362.451 C293.336,362.373 293.302,362.286 293.275,362.200 C293.008,361.430 293.103,360.582 293.543,359.891 L294.925,357.729 C295.555,356.760 296.746,356.276 297.869,356.604 L407.649,387.126 C409.791,387.731 412.121,387.377 414.004,386.140 C415.886,384.921 417.155,382.957 417.483,380.760 L470.616,28.284 C471.065,25.326 469.744,22.342 467.258,20.682 C467.258,20.673 467.249,20.673 467.249,20.665 C464.762,18.987 461.481,18.892 458.900,20.422 L34.155,272.226 C31.469,273.817 30.001,276.844 30.407,279.932 C30.822,283.037 33.032,285.571 36.045,286.410 L127.427,311.855 L151.869,314.285 C211.020,265.998 265.811,221.734 316.233,181.083 C317.295,180.228 318.798,180.323 319.764,181.257 C320.722,182.208 320.818,183.731 319.988,184.794 L207.480,328.280 Z" class="cls-1"/>
</svg>
