<?xml version="1.0" encoding="UTF-8"?><svg id="a" xmlns="http://www.w3.org/2000/svg" viewBox="0 0 54 54"><path d="M53.92,25.07c0-.25-.03-.5-.05-.75-.16-1.6-.46-3.17-.89-4.67-.1-.39-.22-.77-.35-1.14-.08-.26-.16-.51-.26-.75-.04-.13-.08-.25-.14-.37C48.36,7.22,38.52,0,27,0S5.4,7.4,1.63,17.76l-.1,.28c-.06,.15-.12,.31-.16,.47-.21,.62-.4,1.25-.56,1.89H.81c-.32,1.28-.55,2.58-.68,3.92-.02,.25-.04,.5-.05,.75-.06,.64-.08,1.28-.08,1.93,0,.37,.01,.74,.03,1.1,0,.11,0,.22,0,.33,.17,3.25,.91,6.34,2.13,9.18,.1,.25,.21,.5,.34,.75,4.28,9.24,13.64,15.64,24.49,15.64s20.21-6.4,24.49-15.64c.13-.25,.24-.5,.34-.75,.86-1.99,1.48-4.1,1.83-6.31,.04-.23,.07-.46,.09-.7,.1-.64,.16-1.29,.19-1.95,.03-.25,.04-.5,.03-.75,.03-.3,.03-.6,.03-.9,0-.65-.02-1.29-.08-1.93Zm-13.66-4.45c.21,0,.38-.17,.38-.38v-1.74h10.41c.66,1.85,1.11,3.79,1.32,5.81h-17.93v-3.2c0-1.44,1.17-2.61,2.61-2.61h2.84v1.74c0,.21,.17,.38,.38,.38ZM2.96,18.51H13.13v1.74c0,.21,.17,.38,.38,.38s.38-.17,.38-.38v-1.74h2.84c1.44,0,2.61,1.17,2.61,2.61v3.2H1.64c.21-2.02,.66-3.96,1.32-5.81Zm-.49,15.45c.06,.04,.13,.07,.2,.07h1.04c.21,0,.38-.17,.38-.38s-.17-.38-.38-.38h-1.04c-.15,0-.27,.09-.34,.21-.55-2.08-.84-4.25-.84-6.5,0-.65,.02-1.3,.08-1.93H19.33v9.93c0,1.44-1.17,2.61-2.61,2.61H3.83c-.55-1.17-1.01-2.39-1.36-3.65Zm24.53,18.54c-9.98,0-18.64-5.76-22.82-14.14h12.54c1.86,0,3.36-1.51,3.36-3.36v-13.88c0-1.86-1.5-3.36-3.36-3.36h-2.84v-1.75c0-.21-.17-.38-.38-.38s-.38,.17-.38,.38v1.75H3.24C6.94,8.25,16.2,1.5,27,1.5s20.06,6.75,23.76,16.26h-10.13v-1.75c0-.21-.17-.38-.38-.38s-.38,.17-.38,.38v1.75h-2.84c-1.86,0-3.36,1.5-3.36,3.36v13.88c0,1.85,1.5,3.36,3.36,3.36h12.78c-4.18,8.38-12.84,14.14-22.82,14.14Zm23.17-14.89h-13.13c-1.44,0-2.61-1.17-2.61-2.61v-9.93h17.99c.06,.63,.08,1.28,.08,1.93,0,3.78-.83,7.38-2.33,10.61Z"/><path d="M3.71,27.9h-1.04c-.21,0-.38,.17-.38,.38s.17,.38,.38,.38h1.04c.21,0,.38-.17,.38-.38s-.17-.38-.38-.38Z"/><path d="M7.72,27.9h-1.04c-.21,0-.38,.17-.38,.38s.17,.38,.38,.38h1.04c.21,0,.38-.17,.38-.38s-.17-.38-.38-.38Z"/><path d="M11.74,27.9h-1.04c-.21,0-.38,.17-.38,.38s.17,.38,.38,.38h1.04c.21,0,.38-.17,.38-.38s-.17-.38-.38-.38Z"/><path d="M15.75,27.9h-1.04c-.21,0-.38,.17-.38,.38s.17,.38,.38,.38h1.04c.21,0,.38-.17,.38-.38s-.17-.38-.38-.38Z"/><path d="M3.71,30.59h-1.04c-.21,0-.38,.17-.38,.38s.17,.38,.38,.38h1.04c.21,0,.38-.17,.38-.38s-.17-.38-.38-.38Z"/><path d="M7.72,30.59h-1.04c-.21,0-.38,.17-.38,.38s.17,.38,.38,.38h1.04c.21,0,.38-.17,.38-.38s-.17-.38-.38-.38Z"/><path d="M11.74,30.59h-1.04c-.21,0-.38,.17-.38,.38s.17,.38,.38,.38h1.04c.21,0,.38-.17,.38-.38s-.17-.38-.38-.38Z"/><path d="M15.75,30.59h-1.04c-.21,0-.38,.17-.38,.38s.17,.38,.38,.38h1.04c.21,0,.38-.17,.38-.38s-.17-.38-.38-.38Z"/><path d="M7.72,33.28h-1.04c-.21,0-.38,.17-.38,.38s.17,.38,.38,.38h1.04c.21,0,.38-.17,.38-.38s-.17-.38-.38-.38Z"/><path d="M11.74,33.28h-1.04c-.21,0-.38,.17-.38,.38s.17,.38,.38,.38h1.04c.21,0,.38-.17,.38-.38s-.17-.38-.38-.38Z"/><path d="M15.75,33.28h-1.04c-.21,0-.38,.17-.38,.38s.17,.38,.38,.38h1.04c.21,0,.38-.17,.38-.38s-.17-.38-.38-.38Z"/><path d="M38.81,27.9h-1.04c-.21,0-.38,.17-.38,.38s.17,.38,.38,.38h1.04c.21,0,.38-.17,.38-.38s-.17-.38-.38-.38Z"/><path d="M42.82,27.9h-1.04c-.21,0-.38,.17-.38,.38s.17,.38,.38,.38h1.04c.21,0,.38-.17,.38-.38s-.17-.38-.38-.38Z"/><path d="M46.83,27.9h-1.04c-.21,0-.38,.17-.38,.38s.17,.38,.38,.38h1.04c.21,0,.38-.17,.38-.38s-.17-.38-.38-.38Z"/><path d="M50.85,27.9h-1.04c-.21,0-.38,.17-.38,.38s.17,.38,.38,.38h1.04c.21,0,.38-.17,.38-.38s-.17-.38-.38-.38Z"/><path d="M38.81,30.59h-1.04c-.21,0-.38,.17-.38,.38s.17,.38,.38,.38h1.04c.21,0,.38-.17,.38-.38s-.17-.38-.38-.38Z"/><path d="M42.82,30.59h-1.04c-.21,0-.38,.17-.38,.38s.17,.38,.38,.38h1.04c.21,0,.38-.17,.38-.38s-.17-.38-.38-.38Z"/><path d="M46.83,30.59h-1.04c-.21,0-.38,.17-.38,.38s.17,.38,.38,.38h1.04c.21,0,.38-.17,.38-.38s-.17-.38-.38-.38Z"/><path d="M50.85,30.59h-1.04c-.21,0-.38,.17-.38,.38s.17,.38,.38,.38h1.04c.21,0,.38-.17,.38-.38s-.17-.38-.38-.38Z"/><path d="M38.81,33.28h-1.04c-.21,0-.38,.17-.38,.38s.17,.38,.38,.38h1.04c.21,0,.38-.17,.38-.38s-.17-.38-.38-.38Z"/><path d="M42.82,33.28h-1.04c-.21,0-.38,.17-.38,.38s.17,.38,.38,.38h1.04c.21,0,.38-.17,.38-.38s-.17-.38-.38-.38Z"/><path d="M46.83,33.28h-1.04c-.21,0-.38,.17-.38,.38s.17,.38,.38,.38h1.04c.21,0,.38-.17,.38-.38s-.17-.38-.38-.38Z"/><path d="M50.85,33.28h-1.04c-.21,0-.38,.17-.38,.38s.17,.38,.38,.38h1.04c.21,0,.38-.17,.38-.38s-.17-.38-.38-.38Z"/></svg>