<svg xmlns="http://www.w3.org/2000/svg" xmlns:xlink="http://www.w3.org/1999/xlink" preserveAspectRatio="xMidYMid" width="500" height="500" viewBox="0 0 500 500">
  <defs>
    <style>
      .cls-1 {
        fill: #000;
        fill-rule: evenodd;
      }
    </style>
  </defs>
  <path d="M480.259,368.647 L451.479,368.647 C449.962,368.647 448.740,367.418 448.740,365.902 L448.740,279.355 C448.740,277.839 449.962,276.610 451.479,276.610 L480.259,276.610 C481.776,276.610 482.998,277.839 482.998,279.355 L482.998,365.902 C482.998,367.418 481.776,368.647 480.259,368.647 ZM477.519,282.100 L454.219,282.100 L454.219,363.157 L477.519,363.157 L477.519,282.100 ZM480.259,253.267 L451.479,253.267 C449.962,253.267 448.740,252.037 448.740,250.520 L448.740,163.974 C448.740,162.459 449.962,161.229 451.479,161.229 L480.259,161.229 C481.776,161.229 482.998,162.459 482.998,163.974 L482.998,250.520 C482.998,252.037 481.776,253.267 480.259,253.267 ZM477.519,166.719 L454.219,166.719 L454.219,247.775 L477.519,247.775 L477.519,166.719 ZM480.259,137.898 L451.479,137.898 C449.962,137.898 448.740,136.669 448.740,135.153 L448.740,48.597 C448.740,47.082 449.962,45.852 451.479,45.852 L480.259,45.852 C481.776,45.852 482.998,47.082 482.998,48.597 L482.998,135.153 C482.998,136.669 481.776,137.898 480.259,137.898 ZM477.519,51.342 L454.219,51.342 L454.219,132.408 L477.519,132.408 L477.519,51.342 ZM393.904,484.016 L106.069,484.016 C104.552,484.016 103.330,482.786 103.330,481.270 L103.330,19.772 C103.330,18.256 104.552,17.026 106.069,17.026 L393.904,17.026 C411.287,17.026 425.432,31.186 425.432,48.597 L425.432,452.423 C425.432,469.842 411.287,484.016 393.904,484.016 ZM419.952,48.597 C419.952,34.218 408.262,22.517 393.904,22.517 L108.809,22.517 L108.809,478.525 L393.904,478.525 C408.262,478.525 419.952,466.815 419.952,452.423 L419.952,48.597 ZM397.241,190.917 L274.148,190.917 C272.631,190.917 271.408,189.687 271.408,188.172 C271.408,186.656 272.631,185.426 274.148,185.426 L397.241,185.426 C398.759,185.426 399.981,186.656 399.981,188.172 C399.981,189.687 398.759,190.917 397.241,190.917 ZM397.241,173.050 L274.148,173.050 C272.631,173.050 271.408,171.821 271.408,170.305 C271.408,168.789 272.631,167.560 274.148,167.560 L397.241,167.560 C398.759,167.560 399.981,168.789 399.981,170.305 C399.981,171.821 398.759,173.050 397.241,173.050 ZM397.241,155.492 L274.148,155.492 C272.631,155.492 271.408,154.262 271.408,152.747 C271.408,151.231 272.631,150.002 274.148,150.002 L397.241,150.002 C398.759,150.002 399.981,151.231 399.981,152.747 C399.981,154.262 398.759,155.492 397.241,155.492 ZM397.241,137.898 L274.148,137.898 C272.631,137.898 271.408,136.669 271.408,135.153 C271.408,133.637 272.631,132.408 274.148,132.408 L397.241,132.408 C398.759,132.408 399.981,133.637 399.981,135.153 C399.981,136.669 398.759,137.898 397.241,137.898 ZM397.241,120.385 L274.148,120.385 C272.631,120.385 271.408,119.156 271.408,117.639 C271.408,116.124 272.631,114.895 274.148,114.895 L397.241,114.895 C398.759,114.895 399.981,116.124 399.981,117.639 C399.981,119.156 398.759,120.385 397.241,120.385 ZM397.241,99.679 L274.148,99.679 C272.631,99.679 271.408,98.450 271.408,96.934 C271.408,95.419 272.631,94.189 274.148,94.189 L397.241,94.189 C398.759,94.189 399.981,95.419 399.981,96.934 C399.981,98.450 398.759,99.679 397.241,99.679 ZM187.409,188.914 C155.731,188.914 129.959,163.088 129.959,131.344 C129.959,129.828 131.181,128.599 132.698,128.599 L182.511,128.599 L182.511,76.524 C182.511,75.008 183.734,73.778 185.250,73.778 C219.169,73.778 243.780,97.985 243.780,131.344 C243.780,163.625 219.018,188.914 187.409,188.914 ZM187.990,79.327 L187.990,131.344 C187.990,132.859 186.767,134.089 185.250,134.089 L135.509,134.089 C136.945,161.533 159.674,183.423 187.409,183.423 C215.948,183.423 238.301,160.545 238.301,131.344 C238.301,101.588 217.750,80.544 187.990,79.327 ZM176.193,125.053 L123.650,125.053 C122.132,125.053 120.910,123.823 120.910,122.308 C120.910,91.641 146.744,64.738 176.193,64.738 C177.710,64.738 178.932,65.968 178.932,67.483 L178.932,122.308 C178.932,123.823 177.710,125.053 176.193,125.053 ZM173.453,70.318 C148.948,71.865 127.888,93.930 126.470,119.563 L173.453,119.563 L173.453,70.318 ZM163.413,375.913 L286.507,375.913 C288.024,375.913 289.246,377.143 289.246,378.658 C289.246,380.174 288.024,381.403 286.507,381.403 L163.413,381.403 C161.897,381.403 160.674,380.174 160.674,378.658 C160.674,377.143 161.897,375.913 163.413,375.913 ZM368.892,337.167 L163.557,337.167 C162.039,337.167 160.816,335.937 160.816,334.421 C160.816,332.905 162.039,331.676 163.557,331.676 L368.892,331.676 C370.408,331.676 371.631,332.905 371.631,334.421 C371.631,335.937 370.408,337.167 368.892,337.167 ZM368.892,319.300 L163.557,319.300 C162.039,319.300 160.816,318.070 160.816,316.555 C160.816,315.039 162.039,313.810 163.557,313.810 L368.892,313.810 C370.408,313.810 371.631,315.039 371.631,316.555 C371.631,318.070 370.408,319.300 368.892,319.300 ZM368.892,301.742 L163.557,301.742 C162.039,301.742 160.816,300.512 160.816,298.997 C160.816,297.481 162.039,296.251 163.557,296.251 L368.892,296.251 C370.408,296.251 371.631,297.481 371.631,298.997 C371.631,300.512 370.408,301.742 368.892,301.742 ZM368.892,266.635 L163.557,266.635 C162.039,266.635 160.816,265.405 160.816,263.889 C160.816,262.374 162.039,261.144 163.557,261.144 L368.892,261.144 C370.408,261.144 371.631,262.374 371.631,263.889 C371.631,265.405 370.408,266.635 368.892,266.635 ZM368.892,284.148 L163.557,284.148 C162.039,284.148 160.816,282.918 160.816,281.403 C160.816,279.887 162.039,278.657 163.557,278.657 L368.892,278.657 C370.408,278.657 371.631,279.887 371.631,281.403 C371.631,282.918 370.408,284.148 368.892,284.148 ZM160.816,355.462 C160.816,353.947 162.039,352.717 163.557,352.717 L368.892,352.717 C370.408,352.717 371.631,353.947 371.631,355.462 C371.631,356.978 370.408,358.208 368.892,358.208 L163.557,358.208 C162.039,358.208 160.816,356.978 160.816,355.462 ZM77.282,484.016 L48.494,484.016 C31.111,484.016 16.975,469.842 16.975,452.423 L16.975,48.597 C16.975,31.186 31.111,17.026 48.494,17.026 L77.282,17.026 C78.799,17.026 80.022,18.256 80.022,19.772 L80.022,481.270 C80.022,482.786 78.799,484.016 77.282,484.016 ZM74.542,22.517 L48.494,22.517 C34.136,22.517 22.455,34.218 22.455,48.597 L22.455,452.423 C22.455,466.815 34.136,478.525 48.494,478.525 L74.542,478.525 L74.542,22.517 Z" class="cls-1"/>
</svg>
