<svg xmlns="http://www.w3.org/2000/svg" xmlns:xlink="http://www.w3.org/1999/xlink" preserveAspectRatio="xMidYMid" width="500" height="500" viewBox="0 0 500 500">
  <defs>
    <style>
      .cls-1 {
        fill: #000;
        fill-rule: evenodd;
      }
    </style>
  </defs>
  <path d="M478.663,447.812 C480.502,447.812 481.994,449.307 481.994,451.149 L481.994,476.659 C481.994,478.502 480.502,479.997 478.663,479.997 L22.338,479.997 C20.499,479.997 19.006,478.502 19.006,476.659 L19.006,24.340 C19.006,22.497 20.499,21.002 22.338,21.002 L50.855,21.002 C52.694,21.002 54.187,22.497 54.187,24.340 L54.187,447.812 L118.014,447.812 L118.014,423.807 C118.014,422.775 118.492,421.802 119.307,421.165 L156.473,392.346 C157.683,391.422 159.354,391.416 160.542,392.340 L198.033,421.160 C198.858,421.791 199.336,422.769 199.336,423.807 L199.336,447.812 L206.910,447.812 L206.910,388.105 C206.910,387.072 207.387,386.099 208.202,385.464 L233.741,365.656 L107.343,365.656 C105.504,365.656 104.011,364.161 104.011,362.318 C104.011,360.476 105.504,358.981 107.343,358.981 L242.348,358.981 L245.368,356.638 C246.572,355.713 248.244,355.709 249.437,356.633 L252.491,358.981 L295.805,358.981 L295.805,352.398 C295.805,351.365 296.282,350.392 297.097,349.756 L334.263,320.930 C335.467,320.006 337.139,320.001 338.332,320.925 L375.824,349.751 C376.648,350.381 377.126,351.360 377.126,352.398 L377.126,447.812 L384.700,447.812 L384.700,312.777 L200.558,312.777 L177.806,335.569 C177.155,336.222 176.304,336.548 175.452,336.548 C174.600,336.548 173.748,336.222 173.097,335.575 L158.149,320.604 C157.519,319.974 157.173,319.126 157.173,318.239 C157.173,317.353 157.519,316.506 158.149,315.881 L161.247,312.777 L107.343,312.777 C105.504,312.777 104.011,311.282 104.011,309.439 C104.011,307.597 105.504,306.102 107.343,306.102 L167.910,306.102 L214.025,259.898 L107.343,259.898 C105.504,259.898 104.011,258.403 104.011,256.560 C104.011,254.718 105.504,253.223 107.343,253.223 L220.688,253.223 L246.958,226.903 C247.782,226.071 248.992,225.756 250.120,226.022 L330.508,246.173 L349.346,214.695 L336.588,207.019 L107.343,207.019 C105.504,207.019 104.011,205.524 104.011,203.681 C104.011,201.839 105.504,200.344 107.343,200.344 L325.494,200.344 L325.114,200.116 C324.094,199.501 323.477,198.387 323.498,197.197 C323.514,196.001 324.171,194.908 325.212,194.332 L397.498,154.140 L387.462,154.140 L107.343,154.140 C105.504,154.140 104.011,152.645 104.011,150.803 C104.011,148.960 105.504,147.465 107.343,147.465 L387.462,147.465 L411.775,147.465 L476.579,147.465 C478.419,147.465 479.911,148.960 479.911,150.803 C479.911,152.645 478.419,154.140 476.579,154.140 L411.775,154.140 L403.125,154.140 C403.620,154.744 403.916,155.499 403.902,156.303 L403.170,200.344 L476.579,200.344 C478.419,200.344 479.911,201.839 479.911,203.681 C479.911,205.524 478.419,207.019 476.579,207.019 L403.058,207.019 L402.497,240.797 C402.480,241.993 401.824,243.086 400.782,243.661 C399.735,244.244 398.465,244.221 397.451,243.607 L373.214,229.018 L358.712,253.223 L409.974,253.223 L410.853,253.223 L476.579,253.223 C478.419,253.223 479.911,254.718 479.911,256.560 C479.911,258.403 478.419,259.898 476.579,259.898 L410.853,259.898 L409.974,259.898 L354.712,259.898 L345.033,276.053 C344.279,277.309 342.808,277.918 341.364,277.575 L256.821,256.413 L207.221,306.102 L384.700,306.102 L384.700,298.840 C384.700,297.807 385.178,296.834 385.992,296.198 L423.158,267.372 C424.363,266.448 426.034,266.443 427.227,267.367 L464.719,296.193 C465.543,296.823 466.021,297.802 466.021,298.840 L466.021,306.102 L477.724,306.102 C479.564,306.102 481.055,307.597 481.055,309.439 C481.055,311.282 479.564,312.777 477.724,312.777 L466.021,312.777 L466.021,358.981 L476.579,358.981 C478.419,358.981 479.911,360.476 479.911,362.318 C479.911,364.161 478.419,365.656 476.579,365.656 L466.021,365.656 L466.021,447.812 L478.663,447.812 ZM253.441,250.359 C254.266,249.521 255.476,249.201 256.604,249.478 L340.583,270.498 L369.215,222.718 C369.671,221.956 370.409,221.408 371.267,221.195 C372.112,220.983 373.030,221.114 373.789,221.570 L395.926,234.899 L396.446,203.722 C396.446,203.708 396.442,203.695 396.442,203.681 C396.442,203.662 396.447,203.644 396.447,203.625 L397.142,161.973 L333.493,197.365 L355.634,210.683 C357.213,211.634 357.723,213.683 356.780,215.265 L334.957,251.733 C334.197,252.989 332.722,253.598 331.289,253.255 L250.333,232.959 L165.219,318.239 L175.452,328.486 L253.441,250.359 ZM192.673,425.455 L158.524,399.205 L124.678,425.443 L124.678,447.812 L192.673,447.812 L192.673,425.455 ZM247.419,363.498 L213.573,389.742 L213.573,447.812 L281.568,447.812 L281.568,389.753 L247.419,363.498 ZM295.805,365.656 L261.173,365.656 L286.928,385.458 C287.753,386.089 288.231,387.067 288.231,388.105 L288.231,447.812 L295.805,447.812 L295.805,365.656 ZM370.463,354.045 L336.314,327.790 L302.468,354.035 L302.468,447.812 L370.463,447.812 L370.463,354.045 ZM459.358,300.487 L425.209,274.232 L391.364,300.476 L391.364,447.812 L459.358,447.812 L459.358,300.487 ZM462.690,454.487 L388.032,454.487 L373.795,454.487 L299.137,454.487 L284.899,454.487 L210.242,454.487 L196.004,454.487 L121.347,454.487 L50.855,454.487 C49.016,454.487 47.524,452.992 47.524,451.149 L47.524,27.677 L25.669,27.677 L25.669,473.322 L475.332,473.322 L475.332,454.487 L462.690,454.487 ZM95.075,374.473 L74.007,374.473 C72.168,374.473 70.676,372.978 70.676,371.135 L70.676,356.290 C70.676,354.448 72.168,352.953 74.007,352.953 L95.075,352.953 C96.914,352.953 98.406,354.448 98.406,356.290 L98.406,371.135 C98.406,372.978 96.914,374.473 95.075,374.473 ZM91.744,359.628 L77.338,359.628 L77.338,367.798 L91.744,367.798 L91.744,359.628 ZM95.075,321.594 L74.007,321.594 C72.168,321.594 70.676,320.099 70.676,318.256 L70.676,303.411 C70.676,301.569 72.168,300.074 74.007,300.074 L95.075,300.074 C96.914,300.074 98.406,301.569 98.406,303.411 L98.406,318.256 C98.406,320.099 96.914,321.594 95.075,321.594 ZM91.744,306.749 L77.338,306.749 L77.338,314.919 L91.744,314.919 L91.744,306.749 ZM95.075,268.715 L74.007,268.715 C72.168,268.715 70.676,267.220 70.676,265.377 L70.676,250.532 C70.676,248.690 72.168,247.195 74.007,247.195 L95.075,247.195 C96.914,247.195 98.406,248.690 98.406,250.532 L98.406,265.377 C98.406,267.220 96.914,268.715 95.075,268.715 ZM91.744,253.870 L77.338,253.870 L77.338,262.040 L91.744,262.040 L91.744,253.870 ZM95.075,215.836 L74.007,215.836 C72.168,215.836 70.676,214.341 70.676,212.498 L70.676,197.653 C70.676,195.811 72.168,194.316 74.007,194.316 L95.075,194.316 C96.914,194.316 98.406,195.811 98.406,197.653 L98.406,212.498 C98.406,214.341 96.914,215.836 95.075,215.836 ZM91.744,200.991 L77.338,200.991 L77.338,209.161 L91.744,209.161 L91.744,200.991 ZM95.075,162.957 L74.007,162.957 C72.168,162.957 70.676,161.462 70.676,159.619 L70.676,144.774 C70.676,142.932 72.168,141.437 74.007,141.437 L95.075,141.437 C96.914,141.437 98.406,142.932 98.406,144.774 L98.406,159.619 C98.406,161.462 96.914,162.957 95.075,162.957 ZM91.744,148.112 L77.338,148.112 L77.338,156.282 L91.744,156.282 L91.744,148.112 Z" class="cls-1"/>
</svg>
