<?xml version="1.0" encoding="UTF-8"?><svg id="a" xmlns="http://www.w3.org/2000/svg" viewBox="0 0 54 54"><path d="M27,1.5c14.06,0,25.5,11.44,25.5,25.5s-11.44,25.5-25.5,25.5S1.5,41.06,1.5,27,12.94,1.5,27,1.5m0-1.5C12.09,0,0,12.09,0,27s12.09,27,27,27,27-12.09,27-27S41.91,0,27,0h0Z"/><g><path d="M45.16,19.61v-1.54h-1.28v-1.51H7.29v17.82h1.28v1.51h1.32v1.54H46.47V19.61h-1.32Zm-2.03-2.3v2.53c-1.49-.01-2.71-1.1-2.92-2.53h2.92Zm-2.96,16.23c0-1.63,1.32-2.95,2.96-2.96v3.05h-2.95s-.01-.06-.01-.09Zm-.72-16.23c.21,1.84,1.78,3.27,3.68,3.28v9.24c-2.05,.01-3.71,1.66-3.71,3.71v.09H11.62v-.02c0-2.01-1.59-3.65-3.58-3.71v-9.26c1.86-.06,3.38-1.5,3.56-3.33h27.85Zm-31.41,0h2.8c-.18,1.42-1.36,2.52-2.8,2.58v-2.58Zm0,16.32v-2.98c1.57,.06,2.83,1.36,2.83,2.96v.02h-2.83Zm1.28,.75H43.88v-15.56h.53v16.32H9.32v-.76Zm36.41,2.3H10.63v-.79H45.16v-15.53h.57v16.32Z"/><path d="M25.13,30.81c3.09,0,5.6-2.51,5.6-5.6s-2.51-5.6-5.6-5.6-5.6,2.51-5.6,5.6,2.52,5.6,5.6,5.6Zm0-10.45c2.68,0,4.85,2.18,4.85,4.85s-2.17,4.85-4.85,4.85-4.85-2.18-4.85-4.85,2.18-4.85,4.85-4.85Z"/><path d="M24.2,27.27c-.29-.11-.52-.26-.7-.42l-.2,.4c.18,.19,.44,.34,.77,.46,.29,.1,.59,.15,.9,.17v.81h.35v-.81c.32-.02,.61-.07,.83-.17,.27-.12,.47-.29,.6-.49,.13-.2,.2-.42,.2-.66,0-.26-.06-.46-.17-.62s-.25-.29-.43-.38-.38-.17-.59-.23c-.15-.04-.29-.08-.44-.11v-1.84c.19,0,.38,.03,.58,.08,.23,.07,.46,.17,.67,.31l.17-.41c-.2-.14-.43-.24-.7-.32-.24-.07-.48-.1-.72-.11v-.81h-.35v.82c-.3,.02-.56,.07-.77,.16-.27,.12-.46,.29-.59,.49-.13,.2-.19,.43-.19,.67,0,.26,.05,.47,.16,.63,.11,.16,.25,.29,.43,.39,.18,.1,.38,.18,.59,.23,.12,.03,.24,.06,.36,.09v1.84c-.27-.02-.53-.06-.77-.16Zm1.64-1.43c.18,.07,.32,.16,.43,.28,.11,.12,.16,.27,.16,.46,0,.16-.04,.3-.14,.43-.09,.13-.23,.23-.43,.31-.15,.06-.34,.09-.55,.1v-1.74c.18,.05,.36,.1,.52,.16Zm-1.31-.88c-.18-.07-.32-.16-.43-.27-.11-.12-.16-.27-.16-.46,0-.17,.05-.32,.14-.45,.09-.13,.23-.24,.42-.32,.13-.06,.3-.08,.48-.1v1.74c-.15-.04-.31-.08-.44-.13Z"/></g></svg>