<svg xmlns="http://www.w3.org/2000/svg" xmlns:xlink="http://www.w3.org/1999/xlink" preserveAspectRatio="xMidYMid" width="500" height="500" viewBox="0 0 500 500">
  <defs>
    <style>
      .cls-1 {
        fill: #000;
        fill-rule: evenodd;
      }
    </style>
  </defs>
  <path d="M487.996,447.537 C487.987,447.882 487.972,448.226 487.955,448.571 C487.940,448.859 487.924,449.147 487.904,449.435 C487.879,449.777 487.849,450.119 487.816,450.460 C487.788,450.749 487.759,451.038 487.725,451.327 C487.685,451.666 487.639,452.005 487.590,452.344 C487.549,452.633 487.508,452.922 487.461,453.210 C487.405,453.547 487.343,453.883 487.279,454.219 C487.224,454.507 487.170,454.795 487.110,455.082 C487.039,455.416 486.960,455.749 486.881,456.082 C486.813,456.368 486.747,456.654 486.672,456.939 C486.586,457.271 486.491,457.600 486.396,457.931 C486.315,458.213 486.236,458.497 486.149,458.778 C486.047,459.107 485.935,459.434 485.824,459.762 C485.730,460.040 485.639,460.319 485.539,460.596 C485.420,460.924 485.292,461.248 485.165,461.573 C485.058,461.846 484.955,462.119 484.842,462.391 C484.707,462.716 484.560,463.039 484.416,463.362 C484.298,463.627 484.184,463.894 484.059,464.158 C483.906,464.484 483.740,464.805 483.577,465.128 C483.448,465.383 483.324,465.641 483.190,465.895 C483.015,466.223 482.828,466.546 482.645,466.871 C482.507,467.113 482.376,467.358 482.233,467.598 C482.033,467.936 481.819,468.267 481.609,468.600 C481.469,468.821 481.335,469.046 481.190,469.266 C480.949,469.631 480.692,469.990 480.438,470.350 C480.311,470.531 480.191,470.714 480.060,470.893 C479.668,471.429 479.263,471.958 478.843,472.478 C478.416,473.007 477.974,473.528 477.517,474.040 C476.976,474.644 476.425,475.234 475.851,475.814 C467.993,483.685 457.554,488.019 446.455,488.024 L446.441,488.024 C435.331,488.024 424.884,483.690 417.016,475.819 L313.219,372.082 C312.562,371.422 311.937,370.737 311.329,370.038 C311.329,370.038 311.329,370.038 311.329,370.038 C311.143,369.824 310.967,369.602 310.786,369.384 C310.786,369.384 310.786,369.384 310.786,369.384 C310.484,369.022 310.194,368.651 309.904,368.280 C309.595,367.883 309.287,367.485 308.993,367.077 C308.993,367.077 308.993,367.077 308.993,367.077 C308.936,366.998 308.884,366.915 308.827,366.836 C308.341,366.151 307.867,365.458 307.423,364.746 C307.423,364.746 307.423,364.746 307.423,364.746 C307.332,364.601 307.252,364.450 307.163,364.304 C306.570,363.325 306.020,362.320 305.509,361.295 C305.278,360.834 305.037,360.378 304.824,359.909 C304.824,359.909 304.824,359.909 304.824,359.909 C304.724,359.688 304.638,359.462 304.542,359.240 C304.542,359.240 304.542,359.240 304.542,359.240 C304.273,358.619 304.014,357.994 303.775,357.359 C303.775,357.359 303.775,357.359 303.775,357.359 C303.652,357.033 303.540,356.702 303.425,356.371 C303.313,356.051 303.189,355.736 303.085,355.412 C229.543,404.180 131.857,394.618 69.220,332.021 C-2.516,260.252 -3.061,142.962 67.992,70.561 L69.191,69.334 C104.255,34.264 150.911,14.965 200.597,14.965 C250.282,14.965 296.938,34.264 331.973,69.310 C394.589,131.931 404.139,229.613 355.380,303.126 C355.737,303.240 356.084,303.375 356.437,303.498 C356.437,303.498 356.437,303.498 356.437,303.498 C358.039,304.057 359.593,304.718 361.104,305.461 C361.520,305.666 361.943,305.857 362.351,306.076 C362.351,306.076 362.351,306.076 362.351,306.076 C362.873,306.355 363.377,306.663 363.886,306.964 C364.169,307.130 364.458,307.289 364.736,307.462 L364.736,307.462 C365.031,307.646 365.318,307.840 365.608,308.031 C366.095,308.352 366.577,308.681 367.050,309.023 C367.050,309.023 367.050,309.023 367.050,309.023 C367.318,309.217 367.586,309.412 367.849,309.613 C367.849,309.613 367.849,309.613 367.849,309.613 C368.316,309.968 368.770,310.337 369.220,310.712 C370.188,311.516 371.133,312.350 372.027,313.244 L475.840,417.033 L475.845,417.033 C477.297,418.486 478.617,420.023 479.811,421.626 C479.859,421.690 479.902,421.756 479.950,421.820 C480.292,422.285 480.627,422.755 480.948,423.232 C481.026,423.347 481.097,423.465 481.174,423.581 C481.457,424.011 481.735,424.442 482.000,424.879 C482.092,425.030 482.176,425.183 482.266,425.335 C482.506,425.742 482.743,426.150 482.968,426.563 C483.064,426.740 483.154,426.920 483.247,427.098 C483.454,427.491 483.658,427.884 483.851,428.282 C483.947,428.480 484.036,428.681 484.129,428.880 C484.307,429.263 484.483,429.646 484.649,430.033 C484.741,430.248 484.827,430.465 484.915,430.681 C485.069,431.056 485.221,431.432 485.363,431.811 C485.449,432.040 485.528,432.271 485.610,432.502 C485.741,432.872 485.871,433.242 485.991,433.614 C486.069,433.856 486.141,434.099 486.215,434.341 C486.326,434.707 486.434,435.072 486.535,435.440 C486.604,435.691 486.667,435.944 486.731,436.197 C486.823,436.559 486.912,436.920 486.993,437.284 C487.052,437.544 487.106,437.806 487.159,438.067 C487.233,438.426 487.303,438.784 487.367,439.144 C487.415,439.412 487.458,439.680 487.500,439.949 C487.556,440.304 487.609,440.660 487.655,441.016 C487.691,441.290 487.723,441.565 487.754,441.840 C487.793,442.192 487.828,442.545 487.858,442.898 C487.882,443.177 487.903,443.457 487.921,443.737 C487.944,444.086 487.962,444.436 487.976,444.787 C487.987,445.070 487.996,445.353 488.002,445.637 C488.008,445.984 488.010,446.331 488.008,446.678 C488.007,446.965 488.003,447.251 487.996,447.537 ZM471.641,421.228 L367.833,317.438 C362.982,312.592 356.802,309.267 349.959,307.827 C349.676,307.768 349.419,307.658 349.177,307.528 C349.166,307.522 349.154,307.516 349.143,307.509 C349.143,307.509 349.143,307.509 349.143,307.509 C349.004,307.433 348.872,307.349 348.749,307.252 L348.749,307.252 C348.737,307.242 348.725,307.231 348.713,307.221 C348.541,307.082 348.388,306.926 348.253,306.754 C348.213,306.706 348.172,306.660 348.136,306.608 C348.136,306.608 348.136,306.608 348.136,306.608 C348.011,306.426 347.901,306.234 347.818,306.029 C347.817,306.026 347.815,306.023 347.813,306.020 C347.806,306.002 347.805,305.982 347.798,305.963 C347.798,305.963 347.798,305.963 347.798,305.963 C347.652,305.573 347.593,305.149 347.624,304.715 C347.625,304.702 347.627,304.689 347.628,304.675 C347.639,304.553 347.642,304.432 347.668,304.309 C347.756,303.885 347.935,303.504 348.173,303.174 L348.173,303.174 C397.910,231.652 389.336,135.075 327.774,73.503 C293.860,39.584 248.692,20.898 200.597,20.898 C152.496,20.898 107.332,39.584 73.420,73.503 L72.240,74.712 C3.448,144.808 3.980,258.348 73.420,327.822 C134.993,389.361 231.626,397.917 303.157,348.188 C303.477,347.961 303.847,347.793 304.255,347.705 C304.457,347.662 304.660,347.643 304.862,347.644 C304.866,347.644 304.869,347.642 304.873,347.642 C305.240,347.642 305.612,347.710 305.964,347.850 C306.044,347.881 306.110,347.933 306.185,347.970 C306.296,348.026 306.408,348.080 306.511,348.148 C306.511,348.148 306.511,348.148 306.511,348.148 C306.589,348.200 306.659,348.260 306.730,348.319 C306.833,348.402 306.932,348.489 307.023,348.585 C307.023,348.585 307.023,348.585 307.023,348.585 C307.089,348.654 307.151,348.724 307.210,348.800 C307.210,348.800 307.210,348.800 307.210,348.800 C307.305,348.921 307.388,349.052 307.463,349.189 C307.494,349.242 307.528,349.293 307.554,349.349 C307.554,349.349 307.554,349.349 307.554,349.349 C307.650,349.550 307.729,349.762 307.777,349.990 C309.227,356.804 312.561,362.993 317.423,367.888 L421.216,471.620 C427.962,478.370 436.921,482.091 446.441,482.091 L446.455,482.091 C455.965,482.086 464.910,478.370 471.641,471.625 C472.134,471.127 472.618,470.605 473.091,470.083 C485.616,456.032 484.983,434.573 471.641,421.228 ZM200.597,339.989 C164.881,339.989 129.180,326.406 101.993,299.232 L101.988,299.227 C48.224,245.448 47.764,157.468 100.968,103.109 L101.965,102.089 C156.371,47.715 244.837,47.725 299.195,102.060 C325.497,128.356 339.980,163.372 339.980,200.650 C339.980,237.934 325.497,272.946 299.195,299.232 C272.013,326.397 236.297,339.989 200.597,339.989 ZM295.000,106.259 C242.937,54.224 158.241,54.229 106.187,106.264 L105.217,107.259 C54.274,159.304 54.713,243.539 106.192,295.032 L106.187,295.027 C158.251,347.067 242.947,347.067 295.000,295.027 C320.177,269.868 334.041,236.349 334.041,200.650 C334.041,164.957 320.177,131.433 295.000,106.259 ZM288.753,197.467 C286.984,198.075 285.206,198.375 283.476,198.375 C278.682,198.375 274.265,196.089 271.438,191.914 C271.143,191.480 270.684,190.538 270.651,190.010 C270.622,189.566 267.099,145.199 213.605,116.203 C212.571,115.643 211.397,115.078 210.179,114.483 C203.897,111.439 195.300,107.269 196.871,99.436 C197.450,96.547 199.398,94.102 202.505,92.353 C206.251,90.241 211.320,89.459 214.431,90.478 C218.660,91.468 288.003,108.893 299.306,181.545 C299.837,188.798 295.585,195.099 288.753,197.467 ZM293.411,182.212 C282.461,111.883 213.687,96.387 212.996,96.243 C212.861,96.213 212.730,96.175 212.601,96.126 C211.610,95.774 208.256,95.928 205.414,97.527 C204.332,98.137 202.979,99.166 202.689,100.606 C202.021,103.930 207.981,106.819 212.770,109.144 C214.074,109.771 215.326,110.381 216.432,110.985 C269.394,139.691 275.802,181.931 276.503,188.755 C279.532,192.712 283.722,192.915 286.810,191.852 C290.095,190.716 293.793,187.508 293.411,182.212 Z" class="cls-1"/>
</svg>
