<svg xmlns="http://www.w3.org/2000/svg" xmlns:xlink="http://www.w3.org/1999/xlink" preserveAspectRatio="xMidYMid" width="500" height="500" viewBox="0 0 500 500">
  <defs>
    <style>
      .cls-1 {
        fill: #000;
        fill-rule: evenodd;
      }
    </style>
  </defs>
  <path d="M467.877,372.576 C461.465,379.276 452.859,383.017 443.663,383.088 C443.568,383.088 443.478,383.093 443.383,383.093 C434.596,383.093 426.292,379.754 419.844,373.649 C419.417,373.536 419.019,373.324 418.709,372.995 L232.686,178.237 L148.187,177.940 C146.929,177.935 145.830,177.083 145.515,175.867 L121.340,82.644 C121.097,81.706 121.363,80.710 122.039,80.016 L131.672,70.120 C132.191,69.589 132.907,69.287 133.656,69.287 L133.660,69.287 C134.412,69.287 135.128,69.594 135.647,70.130 L181.512,117.638 L224.341,73.167 L178.300,25.600 C177.260,24.532 177.260,22.828 178.291,21.756 L187.884,11.793 C188.592,11.058 189.655,10.775 190.619,11.045 L280.715,35.996 C281.909,36.324 282.742,37.415 282.742,38.654 L283.027,128.769 L468.431,321.836 C468.774,322.192 469.009,322.629 469.125,323.098 C481.350,337.252 480.899,359.157 467.877,372.576 ZM464.151,325.842 C463.844,325.518 463.628,325.126 463.511,324.706 L278.264,131.806 C277.768,131.292 277.493,130.607 277.493,129.896 L277.213,40.772 L190.731,16.821 L184.135,23.671 L230.176,71.238 C231.217,72.306 231.217,74.010 230.186,75.082 L183.513,123.546 C182.991,124.087 182.269,124.393 181.517,124.393 C180.765,124.393 180.048,124.092 179.526,123.551 L133.646,76.032 L127.094,82.765 L150.341,172.411 L233.885,172.708 C234.637,172.708 235.359,173.019 235.877,173.565 L421.890,368.313 C422.277,368.421 422.633,368.619 422.922,368.912 C428.487,374.545 435.867,377.694 443.617,377.555 C451.304,377.492 458.505,374.360 463.890,368.732 C475.222,357.056 475.335,337.819 464.151,325.842 ZM456.054,360.238 C452.832,363.568 448.552,365.402 444.005,365.402 C443.991,365.402 443.978,365.402 443.964,365.402 C439.426,365.393 435.174,363.554 431.983,360.229 C425.373,353.339 425.346,342.533 431.921,335.625 C435.178,332.300 439.462,330.479 444.019,330.479 C448.560,330.479 452.832,332.290 456.044,335.576 C462.606,342.380 462.606,353.438 456.063,360.234 C456.058,360.238 456.058,360.238 456.054,360.238 ZM452.075,339.432 C449.925,337.234 447.060,336.017 444.019,336.017 C440.968,336.017 438.084,337.242 435.904,339.473 C431.478,344.123 431.497,351.730 435.975,356.398 C438.115,358.629 440.960,359.859 443.978,359.864 C443.987,359.864 443.997,359.864 444.005,359.864 C447.037,359.864 449.904,358.633 452.075,356.389 C456.576,351.712 456.576,344.106 452.075,339.432 ZM139.423,203.314 C139.423,201.787 140.661,200.547 142.190,200.547 L180.462,200.547 C181.991,200.547 183.229,201.787 183.229,203.314 L183.229,239.986 C195.652,242.761 207.151,247.655 217.479,254.559 L242.338,228.810 C242.861,228.269 243.577,227.967 244.324,227.967 C244.329,227.967 244.329,227.967 244.329,227.967 C245.078,227.967 245.798,228.269 246.317,228.805 L273.425,256.785 C274.466,257.857 274.466,259.561 273.430,260.634 L248.426,286.594 C255.175,297.367 259.920,309.327 262.547,322.210 L297.895,322.210 C299.424,322.210 300.662,323.449 300.662,324.977 L300.662,364.555 C300.662,366.082 299.424,367.322 297.895,367.322 L262.525,367.322 C259.889,380.205 255.148,392.169 248.407,402.939 L273.416,428.827 C274.452,429.899 274.452,431.603 273.411,432.675 L246.299,460.667 C245.781,461.208 245.059,461.510 244.312,461.510 C243.559,461.510 242.842,461.208 242.320,460.667 L217.456,434.928 C207.074,441.854 195.575,446.756 183.207,449.523 L183.207,486.208 C183.207,487.736 181.967,488.975 180.440,488.975 L142.190,488.975 C140.661,488.975 139.423,487.736 139.423,486.208 L139.423,449.519 C127.671,446.847 115.934,441.831 105.218,434.901 L80.269,460.699 C79.747,461.239 79.030,461.541 78.278,461.541 C77.525,461.541 76.808,461.239 76.286,460.699 L49.255,432.702 C48.219,431.630 48.219,429.930 49.250,428.858 L74.190,402.943 C67.468,392.065 62.727,380.114 60.070,367.353 L24.774,367.353 C23.247,367.353 22.007,366.114 22.007,364.586 L22.007,324.977 C22.007,323.449 23.247,322.210 24.774,322.210 L60.070,322.210 C62.719,309.381 67.458,297.421 74.190,286.597 L49.250,260.634 C48.219,259.556 48.223,257.862 49.255,256.790 L76.286,228.810 C77.327,227.733 79.224,227.725 80.265,228.810 L105.201,254.564 C115.478,247.691 126.969,242.802 139.423,239.994 L139.423,203.314 ZM106.435,260.430 C105.326,261.228 103.803,261.079 102.853,260.093 L78.278,234.719 L55.090,258.718 L79.687,284.327 C80.580,285.255 80.716,286.678 80.012,287.756 C72.645,299.075 67.616,311.769 65.066,325.481 C64.823,326.793 63.679,327.743 62.344,327.743 L27.541,327.743 L27.541,361.819 L62.344,361.819 C63.679,361.819 64.819,362.766 65.066,364.078 C67.621,377.708 72.654,390.402 80.017,401.794 C80.716,402.876 80.575,404.295 79.687,405.219 L55.090,430.773 L78.278,454.791 L102.835,429.399 C103.767,428.430 105.259,428.267 106.376,429.029 C117.672,436.672 130.248,442.043 142.739,444.566 C144.028,444.828 144.956,445.964 144.956,447.279 L144.956,483.441 L177.674,483.441 L177.674,447.279 C177.674,445.959 178.602,444.824 179.895,444.566 C193.138,441.899 205.367,436.680 216.230,429.057 C217.348,428.277 218.862,428.411 219.813,429.399 L244.316,454.759 L267.571,430.746 L242.905,405.214 C242.009,404.281 241.874,402.853 242.581,401.771 C249.958,390.519 254.986,377.830 257.523,364.054 C257.762,362.739 258.911,361.788 260.244,361.788 L295.129,361.788 L295.129,327.743 L260.263,327.743 C258.925,327.743 257.780,326.788 257.541,325.477 C255.017,311.707 249.989,299.017 242.599,287.765 C241.892,286.683 242.023,285.255 242.924,284.327 L267.589,258.718 L244.334,234.719 L219.835,260.093 C218.889,261.079 217.367,261.228 216.249,260.430 C205.457,252.837 193.232,247.624 179.918,244.943 C178.624,244.685 177.696,243.550 177.696,242.229 L177.696,206.081 L144.956,206.081 L144.956,242.229 C144.956,243.546 144.033,244.682 142.743,244.943 C129.388,247.664 117.169,252.877 106.435,260.430 ZM221.656,339.527 C221.656,374.451 193.251,402.857 158.329,402.857 C123.408,402.857 95.003,374.451 95.003,339.527 C95.003,304.604 123.408,276.197 158.329,276.197 C193.251,276.197 221.656,304.604 221.656,339.527 ZM100.537,339.527 C100.537,371.395 126.464,397.324 158.329,397.324 C190.195,397.324 216.123,371.395 216.123,339.527 C216.123,307.660 190.195,281.731 158.329,281.731 C126.464,281.731 100.537,307.660 100.537,339.527 Z" class="cls-1"/>
</svg>
