<?xml version="1.0" encoding="UTF-8"?><svg id="a" xmlns="http://www.w3.org/2000/svg" viewBox="0 0 54 54"><path d="M27,1.5c14.06,0,25.5,11.44,25.5,25.5s-11.44,25.5-25.5,25.5S1.5,41.06,1.5,27,12.94,1.5,27,1.5m0-1.5C12.09,0,0,12.09,0,27s12.09,27,27,27,27-12.09,27-27S41.91,0,27,0h0Z"/><g><path d="M39.76,17.56H14.24v-3.95c0-1.86,1.51-3.36,3.36-3.36h18.79c1.86,0,3.36,1.51,3.36,3.36v3.95Zm-24.77-.75h24.02v-3.2c0-1.44-1.17-2.61-2.61-2.61H17.61c-1.44,0-2.61,1.17-2.61,2.61v3.2Z"/><path d="M36.39,30.85H17.61c-1.86,0-3.36-1.51-3.36-3.36v-10.68h25.52v10.68c0,1.85-1.51,3.36-3.36,3.36ZM14.99,17.56v9.93c0,1.44,1.17,2.61,2.61,2.61h18.79c1.44,0,2.61-1.17,2.61-2.61v-9.93H14.99Z"/><g><path d="M20.82,13.11c-.21,0-.38-.17-.38-.38v-4.24c0-.21,.17-.38,.38-.38s.38,.17,.38,.38v4.24c0,.21-.17,.38-.38,.38Z"/><path d="M33.17,13.11c-.21,0-.38-.17-.38-.38v-4.24c0-.21,.17-.38,.38-.38s.38,.17,.38,.38v4.24c0,.21-.17,.38-.38,.38Z"/></g></g><path d="M27,25.63c-1.2,0-2.17-.97-2.17-2.17s.97-2.17,2.17-2.17,2.17,.97,2.17,2.17-.97,2.17-2.17,2.17Zm0-3.59c-.78,0-1.42,.64-1.42,1.42s.64,1.42,1.42,1.42,1.42-.64,1.42-1.42-.64-1.42-1.42-1.42Z"/><g><path d="M19.08,41.41v1.18h-4.95l2.54-3.33c.35-.46,.6-.82,.73-1.08s.21-.5,.21-.7c0-.28-.08-.5-.25-.66-.17-.16-.4-.24-.69-.24-.27,0-.49,.1-.65,.3s-.24,.47-.24,.81v.03h-1.44v-.12c0-.71,.2-1.26,.61-1.65,.41-.39,.98-.58,1.73-.58s1.35,.17,1.78,.52c.42,.35,.63,.83,.63,1.46,0,.7-.55,1.74-1.65,3.12l-.1,.12-.66,.82h2.41Z"/><path d="M20.67,42.59v-7.15h1.95c.77,0,1.37,.05,1.82,.16s.83,.29,1.17,.54c.43,.32,.76,.73,.98,1.22,.22,.49,.33,1.05,.33,1.67s-.11,1.2-.34,1.69c-.23,.49-.56,.89-1,1.21-.33,.23-.69,.4-1.09,.5s-.98,.15-1.75,.15h-2.07Zm1.53-1.29h.85c.8,0,1.38-.18,1.75-.55,.37-.37,.55-.94,.55-1.73s-.18-1.37-.55-1.73-.95-.55-1.75-.55h-.85v4.56Z"/><path d="M27.17,42.59l2.72-7.15h1.75l2.76,7.15h-1.74l-.58-1.52h-2.77l-.5,1.52h-1.64Zm4.55-2.72l-.8-2.31c-.02-.07-.05-.19-.09-.35-.04-.17-.07-.37-.11-.61-.04,.23-.08,.44-.12,.62-.04,.18-.07,.31-.09,.37l-.77,2.28h1.98Z"/><path d="M36.07,42.59v-3.26l-2.42-3.89h1.79l1.06,1.96c.05,.1,.11,.22,.16,.37,.05,.15,.11,.32,.17,.52,.04-.17,.1-.32,.15-.47,.06-.15,.12-.29,.19-.43l1.05-1.95h1.79l-2.42,3.89v3.26h-1.53Z"/></g></svg>