<svg xmlns="http://www.w3.org/2000/svg" xmlns:xlink="http://www.w3.org/1999/xlink" preserveAspectRatio="xMidYMid" width="500" height="500" viewBox="0 0 500 500">
  <defs>
    <style>
      .cls-1 {
        fill: #000;
        fill-rule: evenodd;
      }
    </style>
  </defs>
  <path d="M414.640,473.688 C414.734,473.850 415.962,480.255 412.498,484.533 C411.210,486.113 408.762,488.000 404.361,488.000 L99.439,488.000 C94.806,487.129 87.018,483.483 87.018,475.558 L87.018,57.942 C86.992,57.635 86.796,53.271 90.234,49.582 C93.125,46.482 97.570,44.920 103.465,44.920 L209.868,44.920 L209.868,39.608 C209.868,39.386 209.894,39.164 209.954,38.942 C210.022,38.686 216.992,13.195 242.669,12.999 C242.772,12.999 242.882,12.999 242.985,12.999 C270.351,12.999 275.529,38.463 275.581,38.720 L275.585,44.398 L405.528,44.398 C406.416,44.535 413.607,46.251 414.614,53.689 C415.408,59.419 414.725,431.298 414.640,473.688 ZM272.126,66.960 C271.068,66.593 270.360,65.593 270.360,64.475 L270.385,39.215 C270.257,38.831 265.949,18.242 242.985,18.242 C242.891,18.242 242.796,18.242 242.703,18.242 C222.247,18.404 215.926,37.208 215.106,39.975 L215.106,47.086 C215.135,47.247 215.151,47.410 215.149,47.575 L215.106,50.730 L215.106,64.568 C215.106,65.704 214.381,66.704 213.307,67.062 L180.642,77.830 C180.523,80.299 180.386,85.440 180.293,90.615 L306.649,90.615 L306.504,78.736 L272.126,66.960 ZM275.598,62.597 L309.959,74.372 C311.001,74.731 311.717,75.713 311.725,76.823 L311.921,93.202 C311.930,93.901 311.657,94.585 311.171,95.080 C310.675,95.575 310.002,95.858 309.302,95.858 L177.623,95.858 C176.923,95.858 176.249,95.575 175.754,95.072 C175.259,94.577 174.986,93.894 175.003,93.193 C175.310,74.210 175.310,74.210 177.213,73.441 L209.868,62.672 L209.868,59.692 L106.511,59.692 L106.511,470.144 L399.105,470.144 L399.105,59.692 L275.596,59.692 L275.598,62.597 ZM409.419,54.347 C408.907,50.598 405.085,49.616 404.923,49.573 L275.640,49.642 L275.634,56.191 L400.854,56.191 C401.818,56.191 402.603,56.977 402.603,57.942 L402.603,471.895 C402.603,472.860 401.818,473.645 400.854,473.645 L104.762,473.645 C103.797,473.645 103.013,472.860 103.013,471.895 L103.013,57.942 C103.013,56.977 103.797,56.191 104.762,56.191 L209.794,56.191 L209.868,50.791 L209.868,50.163 L103.465,50.163 C99.080,50.163 95.924,51.170 94.072,53.160 C92.171,55.201 92.247,57.737 92.247,57.763 L92.255,475.558 C92.255,481.203 99.874,482.791 99.950,482.808 L404.361,482.757 C406.262,482.757 407.594,482.253 408.421,481.229 C410.050,479.222 409.709,475.405 409.453,474.226 C409.667,331.446 410.025,60.769 409.419,54.347 ZM374.247,413.066 L219.209,413.126 C218.749,413.126 218.305,412.938 217.973,412.613 C217.648,412.280 217.460,411.836 217.460,411.375 L217.460,399.053 C217.460,398.088 218.246,397.302 219.209,397.302 L374.247,397.242 C374.707,397.242 375.151,397.431 375.484,397.755 C375.808,398.088 375.996,398.532 375.996,398.993 L375.996,411.316 C375.996,412.280 375.211,413.066 374.247,413.066 ZM372.498,400.744 L220.958,400.803 L220.958,409.625 L372.498,409.565 L372.498,400.744 ZM374.247,303.761 L219.209,303.820 C218.749,303.820 218.305,303.632 217.973,303.308 C217.648,302.975 217.460,302.530 217.460,302.069 L217.460,289.747 C217.460,288.782 218.246,287.996 219.209,287.996 L374.247,287.937 C374.707,287.937 375.151,288.125 375.484,288.449 C375.808,288.782 375.996,289.227 375.996,289.687 L375.996,302.010 C375.996,302.975 375.211,303.761 374.247,303.761 ZM372.498,291.438 L220.958,291.498 L220.958,300.319 L372.498,300.260 L372.498,291.438 ZM374.247,194.455 L219.209,194.514 C218.749,194.514 218.305,194.326 217.973,194.002 C217.648,193.669 217.460,193.225 217.460,192.764 L217.460,180.441 C217.460,179.477 218.246,178.690 219.209,178.690 L374.247,178.631 C374.707,178.631 375.151,178.819 375.484,179.144 C375.808,179.477 375.996,179.921 375.996,180.382 L375.996,192.704 C375.996,193.669 375.211,194.455 374.247,194.455 ZM372.498,182.132 L220.958,182.192 L220.958,191.013 L372.498,190.954 L372.498,182.132 ZM227.143,137.360 L212.536,151.680 L212.829,199.758 C212.829,200.218 212.650,200.672 212.317,200.996 C211.993,201.329 211.549,201.517 211.080,201.517 L147.466,201.517 C146.502,201.517 145.718,200.731 145.718,199.766 L145.718,135.780 C145.718,134.814 146.502,134.029 147.466,134.029 L210.539,134.029 L216.966,127.462 C217.641,126.779 218.732,126.763 219.423,127.419 L227.135,134.849 C227.475,135.182 227.672,135.635 227.672,136.104 C227.672,136.574 227.485,137.035 227.143,137.360 ZM149.215,198.016 L209.323,198.016 L209.060,155.089 L195.460,168.423 L195.460,191.022 C195.460,191.986 194.675,192.772 193.711,192.772 L180.429,192.772 L176.155,192.772 L149.215,192.772 L149.215,198.016 ZM149.599,162.764 C149.473,162.629 149.388,162.476 149.318,162.317 L149.318,164.430 L149.318,165.036 L149.318,189.271 L176.155,189.271 L180.429,189.271 L191.963,189.271 L191.963,171.852 L175.695,187.802 C175.371,188.127 174.935,188.306 174.474,188.306 C174.466,188.306 174.449,188.306 174.440,188.306 C173.971,188.298 173.528,188.101 173.203,187.759 L149.599,162.764 ZM149.633,160.322 L156.441,153.499 C156.773,153.166 157.089,153.106 157.703,152.987 C158.172,152.996 158.616,153.192 158.948,153.534 L174.944,170.399 L191.963,153.010 L191.963,146.275 L149.318,146.275 L149.318,160.824 C149.394,160.644 149.487,160.470 149.633,160.322 ZM149.215,137.530 L149.215,142.774 L193.711,142.774 C194.675,142.774 195.460,143.559 195.460,144.524 L195.460,149.436 L207.112,137.530 L149.215,137.530 ZM218.246,131.143 L194.979,154.920 C194.958,154.942 194.938,154.963 194.916,154.984 L176.172,174.139 C175.840,174.481 175.234,174.840 174.910,174.669 C174.440,174.660 173.988,174.464 173.664,174.122 L157.643,157.248 L153.310,161.594 L174.526,184.062 L209.125,150.134 C209.302,149.587 209.735,149.160 210.287,148.995 L223.415,136.121 L218.246,131.143 ZM147.466,243.335 L210.539,243.335 L216.966,236.768 C217.641,236.085 218.732,236.068 219.423,236.725 L227.135,244.155 C227.475,244.487 227.672,244.940 227.672,245.410 C227.672,245.879 227.485,246.341 227.143,246.666 L212.829,260.700 L212.829,309.072 C212.829,310.036 212.043,310.823 211.080,310.823 L147.466,310.823 C146.502,310.823 145.718,310.036 145.718,309.072 L145.718,245.086 C145.718,244.120 146.502,243.335 147.466,243.335 ZM223.415,245.427 L218.246,240.448 L195.460,263.734 L195.460,264.316 C195.460,265.282 194.675,266.067 193.711,266.067 C193.549,266.067 193.395,266.037 193.246,265.996 L176.172,283.445 C175.840,283.795 175.234,283.872 174.910,283.975 C174.440,283.966 173.988,283.769 173.664,283.428 L157.643,266.554 L153.310,270.900 L174.526,293.368 L223.415,245.427 ZM149.633,269.628 L156.441,262.805 C156.773,262.481 157.217,262.293 157.678,262.293 C157.686,262.293 157.694,262.293 157.703,262.293 C158.172,262.302 158.616,262.497 158.948,262.839 L174.944,279.705 L191.963,262.316 L191.963,255.581 L149.318,255.581 L149.318,270.004 L149.318,270.103 C149.400,269.934 149.494,269.769 149.633,269.628 ZM149.318,271.620 L149.318,272.130 L149.318,298.577 L176.155,298.577 L179.815,298.577 L191.963,298.577 L191.963,281.158 L175.695,297.108 C175.371,297.432 174.935,297.612 174.474,297.612 C174.466,297.612 174.449,297.612 174.440,297.612 C173.971,297.604 173.528,297.407 173.203,297.065 L149.599,272.070 C149.473,271.936 149.394,271.778 149.318,271.620 ZM149.215,307.321 L209.331,307.321 L209.331,264.129 L195.460,277.729 L195.460,300.328 C195.460,301.292 194.675,302.078 193.711,302.078 L179.815,302.078 L176.155,302.078 L149.215,302.078 L149.215,307.321 ZM149.215,252.079 L193.711,252.079 C194.675,252.079 195.460,252.864 195.460,253.830 L195.460,258.742 L207.112,246.836 L149.215,246.836 L149.215,252.079 ZM147.466,352.640 L210.539,352.640 L216.966,346.073 C217.623,345.399 218.681,345.374 219.372,345.989 L226.179,352.051 C226.291,352.153 226.393,352.264 226.478,352.393 L227.382,353.759 C227.843,354.459 227.740,355.391 227.143,355.971 L212.829,370.005 L212.829,418.378 C212.829,419.342 212.043,420.128 211.080,420.128 L147.466,420.128 C146.502,420.128 145.718,419.342 145.718,418.378 L145.718,354.391 C145.718,353.426 146.502,352.640 147.466,352.640 ZM209.874,368.014 L223.663,354.494 L218.297,349.711 L194.959,373.555 C194.951,373.563 194.943,373.572 194.935,373.580 L176.172,392.750 C175.840,393.092 175.234,393.383 174.910,393.280 C174.440,393.272 173.988,393.075 173.664,392.734 L157.643,375.860 L153.310,380.206 L174.526,402.674 L209.824,368.063 C209.840,368.046 209.857,368.030 209.874,368.014 ZM149.633,378.933 L156.441,372.111 C156.773,371.786 157.089,371.504 157.703,371.598 C158.172,371.607 158.616,371.803 158.948,372.145 L174.944,389.010 L191.963,371.621 L191.963,364.886 L149.318,364.886 L149.318,379.409 C149.400,379.240 149.494,379.074 149.633,378.933 ZM149.318,380.926 L149.318,383.041 L149.318,407.883 L170.644,407.883 L172.683,407.883 L191.963,407.883 L191.963,390.464 L175.695,406.414 C175.371,406.738 174.935,406.917 174.474,406.917 C174.466,406.917 174.449,406.917 174.440,406.917 C173.971,406.909 173.528,406.713 173.203,406.371 L149.599,381.376 C149.473,381.241 149.394,381.084 149.318,380.926 ZM149.215,416.627 L209.331,416.627 L209.331,373.434 L195.460,387.034 L195.460,409.633 C195.460,410.598 194.675,411.384 193.711,411.384 L172.683,411.384 L170.644,411.384 L149.215,411.384 L149.215,416.627 ZM149.215,361.385 L193.711,361.385 C194.675,361.385 195.460,362.170 195.460,363.136 L195.460,368.047 L207.112,356.142 L149.215,356.142 L149.215,361.385 ZM252.471,55.295 C250.261,57.874 247.139,59.232 243.462,59.232 C235.588,59.232 231.476,53.041 231.476,46.918 C231.476,40.795 235.588,34.604 243.462,34.604 C251.337,34.604 255.448,40.795 255.448,46.918 C255.448,50.086 254.390,53.057 252.471,55.295 ZM243.462,39.847 C241.330,39.847 239.632,40.564 238.421,41.965 C237.337,43.229 236.714,45.031 236.714,46.918 C236.714,50.435 238.805,53.989 243.462,53.989 C245.595,53.989 247.293,53.271 248.504,51.871 C249.588,50.607 250.211,48.805 250.211,46.918 C250.211,43.399 248.120,39.847 243.462,39.847 Z" class="cls-1"/>
</svg>
