<svg xmlns="http://www.w3.org/2000/svg" xmlns:xlink="http://www.w3.org/1999/xlink" preserveAspectRatio="xMidYMid" width="500" height="500" viewBox="0 0 500 500">
  <defs>
    <style>
      .cls-1 {
        fill: #000;
        fill-rule: evenodd;
      }
    </style>
  </defs>
  <path d="M397.116,490.028 L103.845,490.028 C95.022,490.028 87.425,486.863 81.266,480.623 C75.103,474.407 71.981,466.745 71.981,457.860 L71.981,280.122 C71.981,271.244 75.103,263.583 81.270,257.359 C87.437,251.118 95.034,247.961 103.845,247.961 L111.087,247.961 L111.087,151.753 C111.087,113.194 124.845,79.736 151.989,52.295 C179.149,24.887 212.286,10.993 250.479,10.993 C288.672,10.993 321.808,24.887 348.964,52.295 C376.112,79.736 389.871,113.203 389.871,151.753 C389.871,157.786 387.673,163.068 383.332,167.440 C379.011,171.821 373.777,174.044 367.783,174.044 L348.233,174.044 C342.239,174.044 337.005,171.821 332.680,167.432 C328.347,163.076 326.145,157.794 326.145,151.753 C326.145,130.734 318.685,112.542 303.971,97.689 C289.274,82.844 271.277,75.314 250.479,75.314 C229.676,75.314 211.679,82.844 196.989,97.689 C182.271,112.542 174.812,130.734 174.812,151.753 L174.812,247.961 L397.116,247.961 C405.923,247.961 413.524,251.118 419.694,257.359 C419.699,257.359 419.699,257.359 419.699,257.359 C425.858,263.590 428.981,271.244 428.981,280.122 L428.981,457.860 C428.981,466.745 425.858,474.399 419.694,480.623 C413.536,486.863 405.936,490.028 397.116,490.028 ZM103.845,253.036 C96.335,253.036 90.131,255.623 84.877,260.929 C79.614,266.244 77.053,272.526 77.053,280.122 L77.053,457.860 C77.053,465.464 79.614,471.746 84.872,477.051 C90.122,482.367 96.327,484.953 103.845,484.953 L397.116,484.953 C404.635,484.953 410.839,482.367 416.089,477.051 C421.351,471.737 423.908,465.464 423.908,457.860 L423.908,280.122 C423.908,272.526 421.351,266.252 416.093,260.929 L416.093,260.929 C410.831,255.623 404.626,253.036 397.116,253.036 L172.275,253.036 C170.875,253.036 169.739,251.904 169.739,250.499 L169.739,151.753 C169.739,129.345 177.690,109.954 193.383,94.118 C209.060,78.273 228.272,70.239 250.479,70.239 C272.681,70.239 291.889,78.273 307.578,94.118 C323.267,109.954 331.218,129.345 331.218,151.753 C331.218,156.472 332.874,160.431 336.283,163.853 C339.678,167.299 343.586,168.969 348.233,168.969 L367.783,168.969 C372.431,168.969 376.338,167.299 379.726,163.861 C383.138,160.423 384.798,156.464 384.798,151.753 C384.798,114.583 371.526,82.323 345.357,55.866 C319.190,29.457 287.267,16.068 250.479,16.068 C213.690,16.068 181.767,29.457 155.595,55.866 C129.431,82.323 116.159,114.583 116.159,151.753 L116.159,250.499 C116.159,251.904 115.023,253.036 113.623,253.036 L103.845,253.036 ZM252.503,455.438 L248.459,455.438 C235.513,455.438 224.983,444.817 224.983,431.758 L224.983,375.165 C212.116,366.511 204.483,352.187 204.483,336.574 C204.483,310.968 225.116,290.131 250.479,290.131 C275.841,290.131 296.474,310.968 296.474,336.574 C296.474,352.196 288.841,366.520 275.978,375.173 L275.978,431.758 C275.978,444.817 265.448,455.438 252.503,455.438 ZM250.479,295.206 C227.912,295.206 209.555,313.762 209.555,336.574 C209.555,350.906 216.780,364.015 228.875,371.644 C229.610,372.106 230.056,372.917 230.056,373.792 L230.056,431.758 C230.056,442.015 238.313,450.363 248.459,450.363 L252.503,450.363 C262.648,450.363 270.905,442.015 270.905,431.758 L270.905,373.792 C270.905,372.917 271.352,372.106 272.091,371.644 C284.181,364.023 291.402,350.914 291.402,336.574 C291.402,313.762 273.045,295.206 250.479,295.206 Z" class="cls-1"/>
</svg>
