<svg xmlns="http://www.w3.org/2000/svg" xmlns:xlink="http://www.w3.org/1999/xlink" preserveAspectRatio="xMidYMid" width="500" height="500" viewBox="0 0 500 500">
  <defs>
    <style>
      .cls-1 {
        fill: #000;
        fill-rule: evenodd;
      }
    </style>
  </defs>
  <path d="M480.536,456.839 L156.660,456.839 C155.297,456.839 154.199,455.737 154.199,454.377 L154.199,390.291 C154.199,370.109 186.118,352.734 241.258,329.541 C286.732,310.398 300.598,294.386 300.598,261.012 C300.598,252.302 298.154,249.102 294.459,244.259 C289.729,238.068 283.846,230.364 280.374,208.718 C279.557,203.651 277.849,202.700 275.252,201.260 C269.377,197.997 264.391,193.518 262.965,171.744 C262.965,159.931 267.212,154.489 269.554,152.388 C268.760,147.260 266.099,129.568 264.960,115.585 C264.038,104.205 267.029,79.993 284.126,61.444 C297.857,46.547 317.239,38.993 341.735,38.993 C366.232,38.993 385.613,46.547 399.345,61.456 C416.442,80.009 419.433,104.214 418.502,115.585 C417.364,129.568 414.711,147.256 413.917,152.384 C416.257,154.482 420.506,159.887 420.506,171.583 C419.079,193.518 414.094,197.993 408.210,201.260 C405.613,202.700 403.906,203.651 403.087,208.718 C399.617,230.364 393.733,238.068 389.004,244.259 C385.301,249.098 382.856,252.299 382.856,261.012 C382.856,294.382 396.724,310.394 442.197,329.541 L444.689,330.575 C459.014,336.518 482.997,346.463 482.997,368.914 L482.997,454.377 C482.997,455.737 481.899,456.839 480.536,456.839 ZM478.075,368.914 C478.075,349.755 456.849,340.953 442.798,335.126 L440.289,334.080 C392.499,313.963 377.935,296.888 377.935,261.012 C377.935,250.631 381.253,246.291 385.093,241.263 C389.485,235.513 394.952,228.356 398.230,207.941 C399.425,200.503 402.823,198.618 405.822,196.950 C409.757,194.764 414.222,192.287 415.584,171.423 C415.584,158.988 410.278,155.732 410.054,155.600 C409.180,155.087 408.667,154.064 408.827,153.062 C408.859,152.845 412.274,131.444 413.596,115.184 C414.398,105.336 411.697,82.131 395.721,64.796 C382.961,50.941 364.797,43.917 341.735,43.917 C318.674,43.917 300.510,50.938 287.750,64.784 C271.774,82.114 269.064,105.332 269.866,115.184 C271.188,131.449 274.612,152.845 274.643,153.062 C274.812,154.100 274.299,155.131 273.369,155.624 C273.192,155.732 267.887,158.988 267.887,171.583 C269.241,192.287 273.705,194.764 277.641,196.954 C280.640,198.618 284.038,200.503 285.232,207.941 C288.511,228.360 293.978,235.517 298.370,241.267 C302.210,246.295 305.520,250.635 305.520,261.012 C305.520,296.893 290.956,313.967 243.165,334.080 C202.501,351.186 159.120,371.048 159.120,390.291 L159.120,451.915 L478.075,451.915 L478.075,368.914 ZM212.978,227.377 C211.071,228.440 210.012,229.021 209.443,232.546 C206.814,248.926 202.165,255.017 198.766,259.464 C196.065,262.996 194.278,265.331 194.278,271.666 C194.278,289.177 199.391,299.631 212.529,308.950 C213.235,309.452 213.619,310.281 213.555,311.143 C213.491,312.006 212.978,312.772 212.209,313.160 C135.771,351.664 127.891,358.921 127.891,390.808 L127.891,460.536 C127.891,461.896 126.793,462.998 125.430,462.998 L20.472,462.998 C19.815,462.998 19.182,462.738 18.725,462.269 C18.260,461.803 18.003,461.170 18.011,460.512 C18.108,451.354 19.093,370.767 24.657,361.239 C32.920,347.096 50.644,337.857 87.227,322.495 C121.446,308.080 131.346,296.680 131.346,271.666 C131.346,265.331 129.558,262.996 126.865,259.461 C123.466,255.014 118.817,248.922 116.188,232.546 C115.619,229.021 114.569,228.435 112.654,227.377 C108.084,224.847 104.212,221.398 103.123,204.778 C103.123,195.971 106.112,191.741 108.020,189.936 C107.363,185.691 105.455,172.851 104.630,162.609 C103.924,153.996 106.185,135.651 119.146,121.580 C129.566,110.264 144.259,104.526 162.816,104.526 C181.372,104.526 196.057,110.256 206.477,121.564 C219.439,135.630 221.708,153.984 221.003,162.613 C220.177,172.851 218.268,185.686 217.612,189.933 C219.519,191.729 222.508,195.927 222.508,204.617 C221.419,221.398 217.548,224.847 212.978,227.377 ZM216.097,162.213 C216.690,154.923 214.686,137.740 202.855,124.904 C193.411,114.651 179.937,109.451 162.816,109.451 C145.694,109.451 132.219,114.655 122.769,124.917 C110.938,137.764 108.942,154.930 109.535,162.213 C110.521,174.414 113.078,190.430 113.102,190.590 C113.271,191.625 112.765,192.655 111.835,193.152 C111.739,193.213 108.044,195.575 108.044,204.617 C109.038,219.742 112.228,221.511 115.042,223.066 C117.295,224.318 120.108,225.873 121.046,231.764 C123.483,246.917 127.531,252.214 130.777,256.469 C133.726,260.330 136.268,263.663 136.268,271.666 C136.268,298.552 124.813,312.010 89.135,327.039 C54.314,341.659 36.416,350.878 28.904,363.725 C25.306,369.892 23.382,423.797 22.965,458.074 L122.970,458.074 L122.970,390.808 C122.970,355.761 134.624,346.816 206.462,310.542 C194.358,300.818 189.356,289.273 189.356,271.666 C189.356,263.663 191.904,260.330 194.855,256.473 C198.101,252.214 202.149,246.917 204.586,231.764 C205.532,225.873 208.338,224.318 210.598,223.066 C213.403,221.511 216.593,219.746 217.587,204.456 C217.587,195.575 213.891,193.213 213.740,193.120 C212.882,192.599 212.369,191.576 212.529,190.590 C212.554,190.430 215.103,174.414 216.097,162.213 Z" class="cls-1"/>
</svg>
