<svg xmlns="http://www.w3.org/2000/svg" xmlns:xlink="http://www.w3.org/1999/xlink" preserveAspectRatio="xMidYMid" width="500" height="500" viewBox="0 0 500 500">
  <defs>
    <style>
      .cls-1 {
        fill: #000;
        fill-rule: evenodd;
      }
    </style>
  </defs>
  <path d="M472.355,441.056 L424.751,441.056 C416.682,441.056 410.117,434.494 410.117,426.426 L410.117,417.224 C410.117,415.752 411.308,414.566 412.776,414.566 C414.243,414.566 415.435,415.752 415.435,417.224 L415.435,426.426 C415.435,431.560 419.614,435.741 424.751,435.741 L472.355,435.741 C477.496,435.741 481.679,431.560 481.679,426.426 L481.679,378.803 C481.679,373.652 477.496,369.462 472.355,369.462 L424.751,369.462 C419.614,369.462 415.435,373.652 415.435,378.803 L415.435,387.954 C415.435,389.425 414.243,390.611 412.776,390.611 C411.308,390.611 410.117,389.425 410.117,387.954 L410.117,378.803 C410.117,370.717 416.682,364.147 424.751,364.147 L472.355,364.147 C480.431,364.147 486.997,370.717 486.997,378.803 L486.997,426.426 C486.997,434.494 480.431,441.056 472.355,441.056 ZM471.250,290.016 L423.651,290.016 C415.573,290.016 409.008,283.444 409.008,275.358 L409.008,266.157 C409.008,264.684 410.199,263.498 411.667,263.498 C413.135,263.498 414.326,264.684 414.326,266.157 L414.326,275.358 C414.326,280.510 418.510,284.699 423.651,284.699 L471.250,284.699 C476.396,284.699 480.579,280.510 480.579,275.358 L480.579,227.736 C480.579,222.576 476.396,218.377 471.250,218.377 L423.651,218.377 C418.510,218.377 414.326,222.576 414.326,227.736 L414.326,236.886 C414.326,238.358 413.135,239.544 411.667,239.544 C410.199,239.544 409.008,238.358 409.008,236.886 L409.008,227.736 C409.008,219.642 415.573,213.062 423.651,213.062 L471.250,213.062 C479.327,213.062 485.897,219.642 485.897,227.736 L485.897,275.358 C485.897,283.444 479.327,290.016 471.250,290.016 ZM471.250,137.832 L423.655,137.832 C419.744,137.832 416.067,136.308 413.296,133.537 C410.533,130.767 409.008,127.096 409.012,123.192 L409.012,113.998 C409.012,112.527 410.203,111.341 411.672,111.341 C413.139,111.341 414.331,112.527 414.331,113.998 L414.331,123.192 C414.331,125.677 415.301,128.014 417.064,129.781 C418.826,131.546 421.169,132.516 423.655,132.516 L471.250,132.516 C476.396,132.516 480.579,128.335 480.579,123.192 L480.579,75.561 C480.579,70.418 476.396,66.228 471.250,66.228 L423.655,66.228 C418.510,66.228 414.326,70.418 414.326,75.561 L414.326,84.720 C414.326,86.192 413.135,87.378 411.667,87.378 C410.199,87.378 409.008,86.192 409.008,84.720 L409.008,75.561 C409.008,67.483 415.578,60.912 423.655,60.912 L471.250,60.912 C479.327,60.912 485.897,67.483 485.897,75.561 L485.897,123.192 C485.897,131.269 479.327,137.832 471.250,137.832 ZM385.041,420.989 L336.813,420.989 C315.701,420.989 298.529,403.805 298.529,382.673 L298.529,268.814 L238.422,268.814 L238.422,450.337 C238.422,463.392 227.811,474.014 214.763,474.014 L156.985,474.014 C155.517,474.014 154.326,472.828 154.326,471.356 L154.326,384.300 C154.326,381.149 151.767,378.587 148.623,378.587 L103.842,378.587 C100.702,378.587 98.148,381.149 98.148,384.300 L98.148,471.356 C98.148,472.828 96.957,474.014 95.488,474.014 L37.672,474.014 C24.632,474.014 14.021,463.392 14.021,450.337 L14.021,52.671 C14.021,39.608 24.632,28.985 37.672,28.985 L214.763,28.985 C227.811,28.985 238.422,39.608 238.422,52.671 L238.422,234.229 L298.529,234.229 L298.529,120.353 C298.529,99.238 315.701,82.062 336.813,82.062 L385.037,82.062 C386.505,82.062 387.696,83.248 387.696,84.720 L387.701,113.998 C387.701,114.700 387.423,115.383 386.921,115.877 C386.423,116.379 385.747,116.656 385.041,116.656 L336.813,116.656 C334.769,116.656 333.102,118.318 333.102,120.353 L333.102,234.229 L385.037,234.229 C386.505,234.229 387.696,235.415 387.696,236.886 L387.696,266.157 C387.696,267.628 386.505,268.814 385.037,268.814 L333.102,268.814 L333.102,382.673 C333.102,384.733 334.769,386.404 336.813,386.404 L385.041,386.404 C386.510,386.404 387.701,387.590 387.701,389.062 L387.701,418.332 C387.701,419.803 386.510,420.989 385.041,420.989 ZM382.382,391.719 L336.813,391.719 C331.833,391.719 327.784,387.659 327.784,382.673 L327.784,266.157 C327.784,264.684 328.975,263.498 330.443,263.498 L382.378,263.498 L382.378,239.544 L330.443,239.544 C328.975,239.544 327.784,238.358 327.784,236.886 L327.784,120.353 C327.784,115.383 331.833,111.341 336.813,111.341 L382.382,111.341 L382.378,87.378 L336.813,87.378 C318.637,87.378 303.848,102.173 303.848,120.353 L303.848,236.886 C303.848,238.358 302.657,239.544 301.188,239.544 L235.763,239.544 C234.295,239.544 233.104,238.358 233.104,236.886 L233.104,52.671 C233.104,42.542 224.875,34.301 214.763,34.301 L37.672,34.301 C27.564,34.301 19.339,42.542 19.339,52.671 L19.339,450.337 C19.339,460.457 27.564,468.699 37.672,468.699 L92.828,468.699 L92.828,384.300 C92.828,378.215 97.771,373.272 103.842,373.272 L148.623,373.272 C154.703,373.272 159.645,378.215 159.645,384.300 L159.645,468.699 L214.763,468.699 C224.875,468.699 233.104,460.457 233.104,450.337 L233.104,266.157 C233.104,264.684 234.295,263.498 235.763,263.498 L301.188,263.498 C302.657,263.498 303.848,264.684 303.848,266.157 L303.848,382.673 C303.848,400.870 318.637,415.674 336.813,415.674 L382.382,415.674 L382.382,391.719 ZM186.006,347.126 L152.867,347.126 C146.795,347.126 141.854,342.183 141.854,336.115 L141.854,302.949 C141.854,296.863 146.795,291.920 152.867,291.920 L186.006,291.920 C192.083,291.920 197.024,296.863 197.024,302.949 L197.024,336.115 C197.024,342.183 192.083,347.126 186.006,347.126 ZM191.706,302.949 C191.706,299.798 189.146,297.235 186.006,297.235 L152.867,297.235 C149.727,297.235 147.172,299.798 147.172,302.949 L147.172,336.115 C147.172,339.257 149.727,341.811 152.867,341.811 L186.006,341.811 C189.146,341.811 191.706,339.257 191.706,336.115 L191.706,302.949 ZM186.006,272.528 L152.867,272.528 C146.795,272.528 141.854,267.576 141.854,261.490 L141.854,228.351 C141.854,222.256 146.795,217.304 152.867,217.304 L186.006,217.304 C192.083,217.304 197.024,222.256 197.024,228.351 L197.024,261.490 C197.024,267.576 192.083,272.528 186.006,272.528 ZM191.706,228.351 C191.706,225.191 189.146,222.619 186.006,222.619 L152.867,222.619 C149.727,222.619 147.172,225.191 147.172,228.351 L147.172,261.490 C147.172,264.642 149.727,267.213 152.867,267.213 L186.006,267.213 C189.146,267.213 191.706,264.642 191.706,261.490 L191.706,228.351 ZM186.006,197.868 L152.867,197.868 C146.795,197.868 141.854,192.934 141.854,186.865 L141.854,153.709 C141.854,147.623 146.795,142.679 152.867,142.679 L186.006,142.679 C192.083,142.679 197.024,147.623 197.024,153.709 L197.024,186.865 C197.024,192.934 192.083,197.868 186.006,197.868 ZM191.706,153.709 C191.706,150.557 189.146,147.995 186.006,147.995 L152.867,147.995 C149.727,147.995 147.172,150.557 147.172,153.709 L147.172,186.865 C147.172,189.999 149.727,192.553 152.867,192.553 L186.006,192.553 C189.146,192.553 191.706,189.999 191.706,186.865 L191.706,153.709 ZM186.006,123.270 L152.867,123.270 C146.795,123.270 141.854,118.327 141.854,112.249 L141.854,79.084 C141.854,73.015 146.795,68.072 152.867,68.072 L186.006,68.072 C192.083,68.072 197.024,73.015 197.024,79.084 L197.024,112.249 C197.024,118.327 192.083,123.270 186.006,123.270 ZM191.706,79.084 C191.706,75.941 189.146,73.387 186.006,73.387 L152.867,73.387 C149.727,73.387 147.172,75.941 147.172,79.084 L147.172,112.249 C147.172,115.392 149.727,117.955 152.867,117.955 L186.006,117.955 C189.146,117.955 191.706,115.392 191.706,112.249 L191.706,79.084 ZM99.586,347.126 L66.441,347.126 C60.370,347.126 55.429,342.183 55.429,336.115 L55.429,302.949 C55.429,296.863 60.370,291.920 66.441,291.920 L99.586,291.920 C105.661,291.920 110.603,296.863 110.603,302.949 L110.603,336.115 C110.603,342.183 105.661,347.126 99.586,347.126 ZM105.284,302.949 C105.284,299.798 102.725,297.235 99.586,297.235 L66.441,297.235 C63.301,297.235 60.747,299.798 60.747,302.949 L60.747,336.115 C60.747,339.257 63.301,341.811 66.441,341.811 L99.586,341.811 C102.725,341.811 105.284,339.257 105.284,336.115 L105.284,302.949 ZM99.586,272.528 L66.441,272.528 C60.370,272.528 55.429,267.576 55.429,261.490 L55.429,228.351 C55.429,222.256 60.370,217.304 66.441,217.304 L99.586,217.304 C105.661,217.304 110.603,222.256 110.603,228.351 L110.603,261.490 C110.603,267.576 105.661,272.528 99.586,272.528 ZM105.284,228.351 C105.284,225.191 102.725,222.619 99.586,222.619 L66.441,222.619 C63.301,222.619 60.747,225.191 60.747,228.351 L60.747,261.490 C60.747,264.642 63.301,267.213 66.441,267.213 L99.586,267.213 C102.725,267.213 105.284,264.642 105.284,261.490 L105.284,228.351 ZM99.586,197.868 L66.441,197.868 C60.370,197.868 55.429,192.934 55.429,186.865 L55.429,153.709 C55.429,147.623 60.370,142.679 66.441,142.679 L99.586,142.679 C105.661,142.679 110.603,147.623 110.603,153.709 L110.603,186.865 C110.603,192.934 105.661,197.868 99.586,197.868 ZM105.284,153.709 C105.284,150.557 102.725,147.995 99.586,147.995 L66.441,147.995 C63.301,147.995 60.747,150.557 60.747,153.709 L60.747,186.865 C60.747,189.999 63.301,192.553 66.441,192.553 L99.586,192.553 C102.725,192.553 105.284,189.999 105.284,186.865 L105.284,153.709 ZM99.586,123.270 L66.441,123.270 C60.370,123.270 55.429,118.327 55.429,112.249 L55.429,79.084 C55.429,73.015 60.370,68.072 66.441,68.072 L99.586,68.072 C105.661,68.072 110.603,73.015 110.603,79.084 L110.603,112.249 C110.603,118.327 105.661,123.270 99.586,123.270 ZM105.284,79.084 C105.284,75.941 102.725,73.387 99.586,73.387 L66.441,73.387 C63.301,73.387 60.747,75.941 60.747,79.084 L60.747,112.249 C60.747,115.392 63.301,117.955 66.441,117.955 L99.586,117.955 C102.725,117.955 105.284,115.392 105.284,112.249 L105.284,79.084 Z" class="cls-1"/>
</svg>
